<?xml version="1.0" standalone="no"?>
<!DOCTYPE svg PUBLIC "-//W3C//DTD SVG 1.1//EN" "http://www.w3.org/Graphics/SVG/1.1/DTD/svg11.dtd" >
<svg xmlns="http://www.w3.org/2000/svg" xmlns:xlink="http://www.w3.org/1999/xlink" version="1.1">
<metadata>
Created by FontForge 20150824 at Wed Sep 28 07:59:51 2016
 By Everything Fonts
Copyright (c) 2016 by Anthony James. All rights reserved.
</metadata>
<defs>
<font id="JitzuSwashMedium" horiz-adv-x="525" >
  <font-face 
    font-family="JitzuSwashMedium"
    font-weight="500"
    font-stretch="normal"
    units-per-em="1000"
    panose-1="0 0 0 0 0 0 0 0 0 0"
    ascent="800"
    descent="-200"
    x-height="452"
    cap-height="700"
    bbox="-926 -343 1351 941"
    underline-thickness="50"
    underline-position="-150"
    unicode-range="U+0001-FB06"
  />
<missing-glyph horiz-adv-x="576" 
 />
    <glyph glyph-name="f_t" unicode="ft" horiz-adv-x="560" 
d="M518 338l-132 -275q-17 -35 -5.5 -45.5t34.5 3.5q59 29 106 103l8 -5q-39 -64 -87 -94t-90 -30q-51 0 -66 36.5t10 86.5l122 252q14 32 4.5 52t-34.5 20h-186q36 0 51.5 -27t-4.5 -77q-1 -2 -27 -55.5t-38 -77.5t-40.5 -79.5t-49 -90t-47.5 -79t-52 -77.5t-48 -55
q-69 -67 -151 -67q-46 0 -73.5 25t-27.5 64q0 25 17.5 42.5t42.5 17.5t42.5 -17.5t17.5 -42.5q0 -35 -31 -52.5t-61 1.5q25 -28 73 -28q33 0 60.5 32.5t65.5 104.5q99 186 210 440q14 32 14 57q0 41 -43 41v10h113q-7 22 -7 47q0 84 74.5 142.5t153.5 58.5q52 0 83 -28.5
t31 -60.5q0 -25 -17.5 -42.5t-42.5 -17.5t-42.5 17.5t-17.5 42.5q0 30 24 48t53 10q-28 20 -69 21q-13 0 -26 -13q-37 -38 -115 -206q-6 -13 -9 -19h86q74 0 133.5 32.5t84.5 69.5h10l-49 -102h77v-10h-159q36 0 51.5 -27t-5.5 -77z" />
    <glyph glyph-name="f_b" unicode="fb" horiz-adv-x="784" 
d="M673 453q54 0 85 -34t31 -89q0 -110 -106 -218q-53 -53 -117 -85t-122 -32t-91 33.5t-33 89.5q0 49 27 106l190 395q15 31 -10.5 51t-73.5 20q-21 0 -34 -9.5t-28 -30.5q-28 -42 -102 -198h79v-10h-166q36 0 51.5 -27t-4.5 -77q-1 -2 -27 -55.5t-38 -77.5t-40.5 -79.5
t-49 -90t-47.5 -79t-52 -77.5t-48 -55q-69 -67 -151 -67q-46 0 -73.5 25t-27.5 64q0 25 17.5 42.5t42.5 17.5t42.5 -17.5t17.5 -42.5q0 -35 -31 -52.5t-61 1.5q25 -28 73 -28q33 0 60.5 32.5t65.5 104.5q99 186 210 440q14 32 14 57q0 41 -43 41v10h113q-7 22 -7 47
q0 81 77 141t167 60q36 0 64 -13q29 13 57 13q35 0 54.5 -18.5t19.5 -49.5q0 -24 -14 -55l-95 -197q64 73 134 73zM642 224q54 105 54 171q0 48 -33 48q-30 0 -74.5 -31.5t-73.5 -80.5l-52 -107q-50 -105 -50 -168q0 -51 34 -51q39 0 93.5 62.5t101.5 156.5z" />
    <glyph glyph-name="f_k" unicode="fk" horiz-adv-x="774" 
d="M704 383q0 21 13 37.5t33 21.5q-50 4 -111 -37q-33 -22 -67 -56q-10 -183 49 -354q-24 -50 -19.5 -116.5t41.5 -94.5q23 -17 50 -17q34 0 56 24q-30 -16 -59.5 1t-29.5 51q0 25 17.5 42.5t42.5 17.5t42.5 -17.5t17.5 -42.5q0 -35 -25.5 -60.5t-61.5 -25.5q-49 0 -90 49
t-66 125t-40 154.5t-19 151.5q-23 -32 -42 -68l-45 -93q-28 -59 -16 -78q-13 -3 -28 -3q-31 0 -48.5 18t-17.5 48q0 27 15 57l12 26l229 475q15 31 -10.5 51t-73.5 20q-21 0 -34 -9.5t-28 -30.5q-28 -42 -102 -198h79v-10h-166q36 0 51.5 -27t-4.5 -77q-1 -2 -27 -55.5
t-38 -77.5t-40.5 -79.5t-49 -90t-47.5 -79t-52 -77.5t-48 -55q-69 -67 -151 -67q-46 0 -73.5 25t-27.5 64q0 25 17.5 42.5t42.5 17.5t42.5 -17.5t17.5 -42.5q0 -35 -31 -52.5t-61 1.5q25 -28 73 -28q33 0 60.5 32.5t65.5 104.5q99 186 210 440q14 32 14 57q0 41 -43 41v10
h113q-7 22 -7 47q0 81 77 141t167 60q36 0 64 -13q29 13 56 13q36 0 55 -18.5t19 -49.5q0 -27 -14 -55l-157 -325q75 106 158 161q57 39 104 39q41 0 63.5 -20t22.5 -49q0 -25 -17.5 -42.5t-42.5 -17.5t-42.5 17.5t-17.5 42.5z" />
    <glyph glyph-name="f_f" unicode="ff" horiz-adv-x="524" 
d="M699 700q52 0 83 -28.5t31 -60.5q0 -25 -17.5 -42.5t-42.5 -17.5t-42.5 17.5t-17.5 42.5q0 30 24 48t53 10q-28 20 -69 21q-13 0 -26 -13q-37 -38 -115 -206q-6 -13 -9 -19h79v-10h-166q36 0 51.5 -27t-4.5 -77q-1 -2 -27 -55.5t-38 -77.5t-40.5 -79.5t-49 -90t-47.5 -79
t-52 -77.5t-48 -55q-69 -67 -151 -67q-35 0 -63 16t-40 45l8 8q10 -27 33 -42q26 -17 62 -17q33 0 60.5 32.5t65.5 104.5q99 186 210 440q14 32 14 57q0 41 -43 41h-163q36 0 51.5 -27t-4.5 -77q-1 -2 -27 -55.5t-38 -77.5t-40.5 -79.5t-49 -90t-47.5 -79t-52 -77.5t-48 -55
q-69 -67 -151 -67q-46 0 -73.5 25t-27.5 64q0 25 17.5 42.5t42.5 17.5t42.5 -17.5t17.5 -42.5q0 -35 -31 -52.5t-61 1.5q25 -28 73 -28q33 0 60.5 32.5t65.5 104.5q99 186 210 440q14 32 14 57q0 41 -43 41v10h113q-7 22 -7 47q0 81 77 141t167 60q63 0 106 -36q-1 -1 -4 -3
t-4 -3q-40 32 -98 32q-21 0 -34 -9.5t-28 -30.5q-28 -42 -102 -198h189q-7 22 -7 47q0 84 74.5 142.5t153.5 58.5z" />
    <glyph glyph-name="fi" unicode="fi" horiz-adv-x="552" 
d="M514 329l-128 -266q-17 -35 -5.5 -45.5t34.5 3.5q59 29 106 103l8 -5q-39 -64 -87 -94t-90 -30q-51 0 -66 36.5t10 86.5l126 261q14 28 14 44q0 19 -14 19h-220q36 0 51.5 -27t-4.5 -77q-1 -2 -27 -55.5t-38 -77.5t-40.5 -79.5t-49 -90t-47.5 -79t-52 -77.5t-48 -55
q-69 -67 -151 -67q-46 0 -73.5 25t-27.5 64q0 25 17.5 42.5t42.5 17.5t42.5 -17.5t17.5 -42.5q0 -35 -31 -52.5t-61 1.5q25 -28 73 -28q33 0 60.5 32.5t65.5 104.5q99 186 210 440q14 32 14 57q0 41 -43 41v10h113q-7 22 -7 47q0 81 77 141t167 60q56 0 97 -26t41 -63
q0 -25 -17.5 -42.5t-42.5 -17.5t-42.5 17.5t-17.5 42.5q0 26 19.5 44t45.5 16q-36 19 -83 19q-21 0 -34 -9.5t-28 -30.5q-28 -42 -102 -198h165q36 0 55 -18.5t19 -48.5q0 -28 -14 -56z" />
    <glyph glyph-name="fl" unicode="fl" horiz-adv-x="552" 
d="M297 118l240 501q15 31 -10.5 51t-73.5 20q-21 0 -34 -9.5t-28 -30.5q-28 -42 -102 -198h79v-10h-166q36 0 51.5 -27t-4.5 -77q-1 -2 -27 -55.5t-38 -77.5t-40.5 -79.5t-49 -90t-47.5 -79t-52 -77.5t-48 -55q-69 -67 -151 -67q-46 0 -73.5 25t-27.5 64q0 25 17.5 42.5
t42.5 17.5t42.5 -17.5t17.5 -42.5q0 -35 -31 -52.5t-61 1.5q25 -28 73 -28q33 0 60.5 32.5t65.5 104.5q99 186 210 440q14 32 14 57q0 41 -43 41v10h113q-7 22 -7 47q0 81 77 141t167 60q36 0 64 -13q29 13 57 13q35 0 54.5 -18.5t19.5 -49.5q0 -24 -14 -55l-248 -514
q-17 -35 -5.5 -45.5t34.5 3.5q62 31 106 103l9 -5q-40 -64 -88.5 -94t-89.5 -30q-50 0 -65 36.5t10 86.5z" />
    <glyph glyph-name="f_f_i" unicode="ffi" horiz-adv-x="814" 
d="M684 442h-220q36 0 51.5 -27t-4.5 -77q-1 -2 -27 -55.5t-38 -77.5t-40.5 -79.5t-49 -90t-47.5 -79t-52 -77.5t-48 -55q-69 -67 -151 -67q-35 0 -63 16t-40 45l8 8q10 -27 33 -42q26 -17 62 -17q33 0 60.5 32.5t65.5 104.5q99 186 210 440q14 32 14 57q0 41 -43 41h-163
q36 0 51.5 -27t-4.5 -77q-1 -2 -27 -55.5t-38 -77.5t-40.5 -79.5t-49 -90t-47.5 -79t-52 -77.5t-48 -55q-69 -67 -151 -67q-46 0 -73.5 25t-27.5 64q0 25 17.5 42.5t42.5 17.5t42.5 -17.5t17.5 -42.5q0 -35 -31 -52.5t-61 1.5q25 -28 73 -28q33 0 60.5 32.5t65.5 104.5
q99 186 210 440q14 32 14 57q0 41 -43 41v10h113q-7 22 -7 47q0 81 77 141t167 60q63 0 106 -36q-1 -1 -4 -3t-4 -3q-40 32 -98 32q-21 0 -34 -9.5t-28 -30.5q-28 -42 -102 -198h189q-7 22 -7 47q0 81 77 141t167 60q57 0 97.5 -26t40.5 -63q0 -25 -17.5 -42.5t-42.5 -17.5
t-42.5 17.5t-17.5 42.5q0 26 19.5 44t45.5 16q-36 19 -83 19q-21 0 -34 -9.5t-28 -30.5q-28 -42 -102 -198h165q36 0 55 -18.5t19 -48.5q0 -28 -14 -56l-128 -266q-17 -35 -5.5 -45.5t34.5 3.5q59 29 106 103l8 -5q-39 -64 -87 -94t-90 -30q-51 0 -66 36.5t10 86.5l126 261
q14 28 14 44q0 19 -14 19z" />
    <glyph glyph-name="f_f_l" unicode="ffl" horiz-adv-x="814" 
d="M715 690q-21 0 -34 -9.5t-28 -30.5q-28 -42 -102 -198h79v-10h-166q36 0 51.5 -27t-4.5 -77q-1 -2 -27 -55.5t-38 -77.5t-40.5 -79.5t-49 -90t-47.5 -79t-52 -77.5t-48 -55q-69 -67 -151 -67q-35 0 -63 16t-40 45l8 8q10 -27 33 -42q26 -17 62 -17q33 0 60.5 32.5
t65.5 104.5q99 186 210 440q14 32 14 57q0 41 -43 41h-163q36 0 51.5 -27t-4.5 -77q-1 -2 -27 -55.5t-38 -77.5t-40.5 -79.5t-49 -90t-47.5 -79t-52 -77.5t-48 -55q-69 -67 -151 -67q-46 0 -73.5 25t-27.5 64q0 25 17.5 42.5t42.5 17.5t42.5 -17.5t17.5 -42.5
q0 -35 -31 -52.5t-61 1.5q25 -28 73 -28q33 0 60.5 32.5t65.5 104.5q99 186 210 440q14 32 14 57q0 41 -43 41v10h113q-7 22 -7 47q0 81 77 141t167 60q63 0 106 -36q-1 -1 -4 -3t-4 -3q-40 32 -98 32q-21 0 -34 -9.5t-28 -30.5q-28 -42 -102 -198h189q-7 22 -7 47
q0 81 77 141t167 60q36 0 64 -13q29 13 57 13q35 0 54.5 -18.5t19.5 -49.5q0 -24 -14 -55l-248 -514q-17 -35 -5.5 -45.5t34.5 3.5q62 31 106 103l9 -5q-40 -64 -88 -94t-90 -30q-50 0 -65 36.5t10 86.5l240 501q15 31 -10.5 51t-73.5 20z" />
    <glyph glyph-name="T_h" unicode="Th" horiz-adv-x="1233" 
d="M1351 762q0 -90 -89 -161.5t-202 -64.5l-81 -167q70 83 151 83q38 0 60 -18t22 -49q0 -28 -32 -92l-111 -230q-17 -35 -5.5 -45.5t34.5 3.5q62 31 106 104l9 -6q-39 -64 -87.5 -94t-90.5 -30q-50 0 -65 36.5t10 86.5l63 131l60 125q13 27 13 45q0 19 -15 19
q-12 0 -40 -14t-57 -43q-33 -33 -52 -69l-114 -236q-16 -32 -19.5 -47t3.5 -31q-15 -3 -29 -3q-31 0 -48.5 18t-17.5 48q0 27 15 57l212 439q-36 12 -99.5 40t-82.5 35q-14 -28 -60.5 -122t-77.5 -158q-16 -33 -42.5 -88.5t-47 -96.5l-35.5 -71q-76 -147 -186.5 -243
t-238.5 -96q-74 0 -119 39t-45 106q0 84 67 170.5t170 142.5t200 56v-11q-94 0 -194.5 -55t-165.5 -139t-65 -164q0 -61 42 -97q29 -26 73 -26q45 0 89.5 22.5t89.5 77.5t74.5 93t74 124.5t56.5 111.5t52 111q12 25 17 36q120 260 255 283q-78 30 -152 30q-110 0 -195 -54
q-76 -46 -102 -113q23 23 55 23t55 -22.5t23 -54.5t-23 -55t-55 -23t-54.5 23t-22.5 55q0 51 31 97q30 44 86 81q125 78 313 78q122 0 290 -42l18 36q31 65 99.5 112.5t137.5 47.5q43 0 67.5 -26.5t24.5 -68.5zM1287 834q-28 0 -55 -18.5t-50.5 -52.5t-40 -62.5t-34.5 -66.5
q58 -14 89 -14q66 0 105 43t39 99q0 30 -14.5 51t-38.5 21z" />
    <glyph glyph-name="T_i" unicode="Ti" horiz-adv-x="997" 
d="M1096 700l11 -12q0 -45 -40 -78.5t-109 -33.5q-21 0 -40.5 2.5t-41.5 10t-32.5 11.5t-38 16t-34.5 15q-7 -15 -30.5 -62.5t-51 -103t-55.5 -113.5q-116 -239 -125 -257q-76 -146 -186.5 -242t-238.5 -96q-74 0 -119 39t-45 106q0 63 40.5 130.5t103 119.5t141.5 86
t152 34v-12q-94 0 -194.5 -55t-165.5 -139t-65 -164q0 -61 41 -97q31 -26 74 -26q45 0 89.5 22.5t89.5 77.5t74.5 93t74 124.5t56.5 111.5t52 111q12 25 17 36q120 258 254 283q-74 30 -151 30q-110 0 -195 -54q-76 -46 -102 -113q23 23 55 23t55 -22.5t23 -54.5t-23 -55
t-55 -23t-54.5 23t-22.5 55v0q0 51 31 97q30 44 86 81q120 75 292 75h403zM859 21q62 31 106 104l9 -6q-39 -64 -87.5 -94t-90.5 -30q-50 0 -65 36.5t10 86.5l123 256q14 30 14 44q0 19 -14 19q-19 0 -58 -30l-6 7q49 39 99 39q35 0 54.5 -18.5t19.5 -49.5q0 -25 -14 -56
l-129 -266q-17 -35 -5.5 -45.5t34.5 3.5z" />
    <glyph glyph-name=".notdef" horiz-adv-x="576" 
 />
    <glyph glyph-name=".null" horiz-adv-x="0" 
 />
    <glyph glyph-name="nonmarkingreturn" horiz-adv-x="333" 
 />
    <glyph glyph-name="NULL" horiz-adv-x="0" 
 />
    <glyph glyph-name="NULL" horiz-adv-x="0" 
 />
    <glyph glyph-name="one_alt" horiz-adv-x="434" 
d="M160 12h82v-12h-222v12h74q-27 18 -27 53q0 31 34 103l140 290h-57v12q148 9 238 110h12z" />
    <glyph glyph-name="two_alt" horiz-adv-x="604" 
d="M32 0h-12q11 56 41 102.5t70 79t86 61t90 53t80 49.5t58 57.5t22 70.5q0 41 -27.5 66.5t-71.5 25.5q-76 -9 -123 -42q37 11 68 -12.5t31 -62.5q0 -32 -23 -54.5t-54 -22.5q-32 0 -55 22.5t-23 54.5q0 61 68 96.5t155 35.5q75 0 133.5 -32.5t58.5 -99.5q0 -51 -36.5 -85.5
t-103.5 -62.5q-26 -10 -127 -42.5t-160 -64.5t-96 -83q38 36 83.5 42.5t80.5 -6.5t79.5 -28t71.5 -15q56 0 79 49l11 -5l-9 -19q-15 -31 -26 -48.5t-31.5 -42.5t-48.5 -37t-62 -12q-43 0 -106.5 27.5t-91.5 27.5q-24 0 -47 -11.5t-32 -31.5z" />
    <glyph glyph-name="three_alt" horiz-adv-x="691" 
d="M679 580h12q-10 -47 -35 -86.5t-51.5 -65t-74 -53t-76 -40t-83.5 -35.5q-10 -4 -36 -15t-39 -17q89 4 152.5 -33t63.5 -109q0 -92 -97 -169t-213 -77q-81 0 -131.5 44t-50.5 107q0 32 22.5 55t54.5 23t55 -23t23 -55q0 -50 -45.5 -70.5t-83.5 13.5q34 -66 120 -79
q45 1 91 40.5t75 98t29 113.5q0 46 -24.5 75.5t-71.5 30.5q-33 -17 -58 -34l-7 10q45 31 166 82q151 61 212 111q-33 -16 -74 -11.5t-71 16t-64.5 24t-54.5 12.5q-58 0 -86 -58q-1 -2 -4 -7.5t-6.5 -13.5t-6.5 -14h-13l101 210h13l-64 -133q13 27 25.5 46.5t32 41.5t46 33.5
t58.5 11.5q33 0 99 -25.5t94 -25.5q49 0 76 51z" />
    <glyph glyph-name="four_alt" horiz-adv-x="615" 
d="M615 580l-227 -469h108v-12h-196q26 0 40 -26t-5 -72l-52 -109h82v-12h-222v12h74q-27 18 -27 53q0 31 34 103l25 51h-229q114 82 210 208q58 77 81 138q-37 -34 -83.5 -13.5t-46.5 70.5q0 32 23 55t55 23t54.5 -23t22.5 -55q0 -71 -96 -202q-83 -109 -184 -189h199
q4 9 90 186.5t87 180.5q98 20 171 102h12z" />
    <glyph glyph-name="five_alt" horiz-adv-x="703" 
d="M690 581h13l-101 -210h-13l19 40q10 21 1 37t-36 16q-25 0 -93 -26.5t-105 -26.5q-60 0 -84 43t-5 90l-166 -342q99 67 198 67q87 0 140.5 -40t53.5 -102q0 -92 -97 -169t-213 -77q-81 0 -131.5 44t-50.5 107q0 32 22.5 55t54.5 23t55 -23t23 -55q0 -50 -45.5 -70.5
t-83.5 13.5q34 -66 120 -79q45 1 91 40.5t75 98t29 113.5q0 44 -22 72.5t-64 32.5q-91 -15 -168 -76l-7 9v0l190 395h14q-11 -21 -2 -37.5t36 -16.5q26 0 93 27t105 27q59 0 84 -42.5t6 -89.5z" />
    <glyph glyph-name="six_alt" horiz-adv-x="694" 
d="M544 700q68 0 109 -40.5t41 -95.5q0 -42 -23 -68t-58 -26q-32 0 -55 22.5t-23 54.5q0 38 28 60.5t63 17t54 -38.5q-8 44 -44 73t-92 29q-80 0 -172.5 -97.5t-157.5 -233.5q69 31 132 31q87 0 140.5 -40t53.5 -102q0 -93 -102 -169.5t-236 -76.5q-85 0 -133.5 52
t-48.5 136q0 87 49 180t123.5 165.5t169.5 119.5t182 47zM303 372q-45 -7 -97 -32q-61 -135 -61 -230q0 -43 14.5 -70.5t39.5 -27.5q65 0 127.5 85.5t62.5 169.5q0 44 -23 74.5t-63 30.5z" />
    <glyph glyph-name="seven_alt" horiz-adv-x="543" 
d="M541 580q5 -46 -9.5 -90.5t-42 -81.5t-62 -73t-70 -70.5t-65.5 -67.5t-49 -71t-20 -74q-2 -31 14 -61q-7 -46 -42.5 -78.5t-79.5 -32.5q-42 0 -68.5 26.5t-26.5 65.5q0 48 34 96t86 86t114.5 81.5t118 83t98.5 92t55 105.5q-21 -45 -62.5 -75.5t-92.5 -30.5
q-40 0 -106 26t-90 26q-49 0 -77 -59q-9 -18 -16 -33h-13l101 210h13l-49 -101q22 41 58.5 67.5t82.5 26.5q37 0 98.5 -25.5t83.5 -25.5q46 0 72 58v0h12z" />
    <glyph glyph-name="eight_alt" horiz-adv-x="625" 
d="M474 700q69 0 110 -35.5t41 -91.5q0 -64 -54 -122t-135 -85q51 -60 56 -118q6 -90 -87.5 -169t-209.5 -79q-82 0 -128.5 39.5t-46.5 102.5q0 74 67 142t165 93q-44 60 -44 111q0 83 81.5 147.5t184.5 64.5zM194 13q68 0 123.5 48.5t55.5 108.5q0 26 -13 55.5t-22 43
t-40 50.5t-35 42q-67 -32 -113.5 -106.5t-46.5 -141.5q0 -47 24.5 -73.5t66.5 -26.5zM422 383q56 35 91.5 99.5t35.5 121.5q0 84 -74 84q-56 0 -102.5 -40t-47.5 -97q0 -17 5 -34t9 -28t18 -29.5t18.5 -24t24.5 -27.5t22 -25z" />
    <glyph glyph-name="nine_alt" unicode="&#x9;" horiz-adv-x="694" 
d="M512 580q85 0 133.5 -52t48.5 -136q0 -87 -49 -180t-123.5 -165.5t-169.5 -119.5t-182 -47q-68 0 -109 40.5t-41 95.5q0 43 23 68.5t58 25.5q32 0 55 -22.5t23 -54.5q0 -38 -28 -60.5t-63 -17t-54 38.5q8 -44 44 -73t92 -29q80 0 172.5 97.5t157.5 232.5
q-71 -30 -132 -30q-87 0 -140.5 40t-53.5 102q0 93 102 169.5t236 76.5zM508 239q61 137 61 231q0 43 -14.5 70.5t-39.5 27.5q-65 0 -127.5 -86t-62.5 -170q0 -44 23 -74.5t63 -30.5q49 9 97 32z" />
    <glyph glyph-name="b_alt" horiz-adv-x="496" 
d="M59 224l183 379q41 85 90.5 147t98.5 94.5t93.5 47t88.5 14.5q72 0 117 -39t45 -106q0 -68 -43.5 -136t-107.5 -120q-69 -56 -152 -88q29 -34 29 -87q0 -75 -53 -154t-134 -130t-158 -51q-58 0 -91 33.5t-33 89.5q0 49 27 106zM305 494l-130 -270q-50 -105 -50 -168
q0 -51 34 -51q39 0 93.5 62.5t101.5 156.5q56 111 54 175q-37 -8 -70 -8v10q32 0 70 8q-5 32 -29 33q-44 -3 -85 -47q-22 -25 -36 -54q29 24 64 8t35 -54q0 -25 -17.5 -42.5t-42.5 -17.5t-42.5 17.5t-17.5 42.5q0 53 50 107q46 51 98 51q46 0 79 -28q81 30 154 88
q61 50 102 112q45 71 45 136q0 63 -42 99q-30 26 -76 26q-69 0 -152 -85q-29 -29 -55 -64.5t-53.5 -85.5t-39.5 -73.5t-42 -83.5z" />
    <glyph glyph-name="CR" unicode="&#xd;" horiz-adv-x="576" 
 />
    <glyph glyph-name="f_alt" horiz-adv-x="271" 
d="M447 700q52 0 83 -28.5t31 -60.5q0 -25 -17.5 -42.5t-42.5 -17.5t-42.5 17.5t-17.5 42.5q0 30 23.5 48t52.5 10q-28 20 -68 21q-14 0 -27 -13q-10 -10 -21 -26t-19 -30t-21.5 -40t-20 -39.5t-22 -46.5t-20.5 -43h79v-10h-165q36 0 51.5 -27t-5.5 -77l-126 -262
q-30 -59 -16 -77l-2 -1q-14 -3 -28 -3q-31 0 -48.5 18t-17.5 48q0 27 15 57l109 226q22 55 12 76.5t-43 21.5v10h112q-7 28 -7 47q1 84 75 142.5t154 58.5z" />
    <glyph glyph-name="space" unicode=" " horiz-adv-x="250" 
 />
    <glyph glyph-name="exclam" unicode="!" horiz-adv-x="344" 
d="M131 147q29 -13 39.5 -44t-3.5 -59q-13 -29 -44 -39.5t-59 3.5q-29 13 -39.5 44t3.5 59q13 29 44 39.5t59 -3.5zM400 700q39 0 50.5 -28t-7.5 -52l-266 -391h-12l126 391q9 28 38.5 54t70.5 26z" />
    <glyph glyph-name="quotedbl" unicode="&#x22;" horiz-adv-x="384" 
d="M157 700q25 0 42.5 -17.5t17.5 -42.5q1 -54 -64 -119q-29 -30 -78 -63l-5 8q49 34 76 62q34 34 49 66q-29 -24 -63.5 -8t-34.5 54q0 25 17.5 42.5t42.5 17.5zM323 700q25 0 42.5 -17.5t17.5 -42.5q1 -54 -64 -119q-29 -30 -78 -63l-5 8q49 34 76 62q34 34 49 66
q-29 -24 -63.5 -8t-34.5 54q0 25 17.5 42.5t42.5 17.5z" />
    <glyph glyph-name="numbersign" unicode="#" horiz-adv-x="520" 
d="M563 447h-136l-90 -186h136l-6 -14h-137l-95 -197h-15l95 197h-159l-96 -197h-15l95 197h-140l7 14h140l89 186h-140l7 14h140l92 189h15l-91 -189h159l91 189h16l-92 -189h137zM321 261l90 186h-159l-90 -186h159z" />
    <glyph glyph-name="dollar" unicode="$" horiz-adv-x="488" 
d="M462 690q54 -16 87.5 -52t33.5 -74q0 -32 -23 -55t-55 -23t-54.5 23t-22.5 55q0 41 35 64t73 7q-31 30 -79 44l-123 -255q30 -31 44.5 -47t35.5 -45t30.5 -57t9.5 -58q0 -91 -78 -154t-178 -63q-30 0 -65 7l-31 -62h-13l32 65q-55 16 -88 51t-33 74q0 31 23 54t54 23
q32 0 55 -22.5t23 -54.5q0 -41 -34.5 -64.5t-72.5 -7.5q28 -26 78 -42l141 292q-45 50 -69.5 90t-24.5 83q0 91 67.5 152.5t151.5 61.5q32 0 59 -7l29 62h14zM385 133q0 27 -19.5 60.5t-34 50t-55.5 60.5l-138 -286q30 -6 60 -6q67 0 127 32.5t60 88.5zM325 434l120 248
q-25 6 -53 6q-61 0 -104 -35t-43 -81q0 -33 20.5 -65t59.5 -73z" />
    <glyph glyph-name="percent" unicode="%" horiz-adv-x="690" 
d="M375 586q0 -89 -86 -172.5t-176 -83.5q-44 0 -68.5 25.5t-24.5 68.5q0 89 86 172.5t176 83.5q44 0 68.5 -25.5t24.5 -68.5zM117 337q31 0 72 48.5t76 120.5q21 46 30 84.5t4.5 60.5t-20.5 22q-31 0 -72.5 -48.5t-76.5 -121.5q-21 -45 -30 -83.5t-4 -60.5t21 -22zM576 370
q44 0 69 -25.5t25 -68.5q0 -89 -86.5 -172.5t-176.5 -83.5q-44 0 -68.5 25.5t-24.5 68.5q0 89 86 172.5t176 83.5zM559 196q21 46 30 84.5t4.5 60.5t-20.5 22q-31 0 -72 -48t-77 -122q-21 -45 -30 -83.5t-4 -60.5t21 -22q31 0 72 48.5t76 120.5zM506 700h16l-338 -700h-16z
" />
    <glyph glyph-name="ampersand" unicode="&#x26;" horiz-adv-x="720" 
d="M720 538q0 -64 -51 -103.5t-135 -68.5q79 -64 79 -152q0 -85 -72.5 -149.5t-179.5 -64.5q-108 0 -179.5 65t-71.5 149q0 88 78 152q63 49 147 60q-52 8 -91 37q-57 40 -57 98q0 55 51 97t125 42q69 0 121 -39t52 -88q0 -25 -17.5 -42.5t-42.5 -17.5t-42.5 17.5
t-17.5 42.5q0 33 28 50.5t57 3.5q-37 44 -99 44q-49 0 -83 -35t-34 -85q0 -51 36 -85t93 -34v-12q-67 0 -115 -57.5t-48 -137.5q0 -81 48 -138.5t115 -57.5q71 0 129 57t58 128q0 87 -81 147q-36 -12 -48 -16.5t-39 -16t-38 -21t-22 -25t-14 -34.5q10 21 29.5 33.5
t42.5 12.5q34 0 57 -23.5t23 -56.5t-23 -56.5t-57 -23.5q-36 0 -60 27.5t-24 75.5q0 39 18 71.5t54 57t64 38.5t74 33q91 37 109 48q51 32 39 80q-3 -23 -20 -37.5t-40 -14.5q-25 0 -42.5 17.5t-17.5 42.5t17.5 42.5t42.5 17.5q32 0 53.5 -28t21.5 -67z" />
    <glyph glyph-name="quotesingle" unicode="'" horiz-adv-x="218" 
d="M158 700q25 0 42.5 -17.5t17.5 -42.5q0 -55 -64 -119q-33 -33 -78 -63l-6 8q45 30 77 62q34 34 49 66q-29 -24 -63.5 -8t-34.5 54q0 25 17.5 42.5t42.5 17.5z" />
    <glyph glyph-name="parenleft" unicode="(" horiz-adv-x="355" 
d="M555 780l-6 -12q-83 -44 -162 -119.5t-139 -166t-99 -190.5t-40.5 -191.5t35.5 -170.5l-5 -10q-62 35 -92.5 98t-25.5 143q12 185 171 364.5t363 254.5z" />
    <glyph glyph-name="parenright" unicode=")" horiz-adv-x="505" 
d="M-44 -68q82 44 161.5 119.5t139 166t98.5 190.5t40.5 191.5t-35.5 170.5l5 10q62 -35 93 -98t26 -143q-12 -185 -171 -364.5t-363 -254.5l3 6z" />
    <glyph glyph-name="asterisk" unicode="*" horiz-adv-x="310" 
d="M180 567q-6 -9 -25.5 -41.5t-28.5 -41.5q-13 -11 -27.5 -13.5t-22.5 6.5q-8 8 -5 21.5t15 24.5q10 9 44 26.5t44 23.5q-11 1 -30 0t-33.5 -1t-21.5 3q-11 4 -12.5 17t7.5 26q10 13 23.5 18.5t24.5 0.5q9 -3 26 -26t22 -28q1 10 -1 45t2 38q5 14 17 24t25 10t19.5 -10
t1.5 -24q-3 -8 -12 -22t-22.5 -32.5t-19.5 -28.5q10 6 41.5 28.5t42.5 25.5q14 5 24.5 -0.5t10.5 -18.5q1 -13 -9 -25.5t-24 -17.5q-1 -4 -38.5 -2.5t-47.5 0.5q6 -6 28.5 -23.5t26.5 -26.5q5 -11 -1.5 -24.5t-20.5 -21.5q-14 -9 -26.5 -6.5t-17.5 13.5q-3 12 -2.5 22.5
t2 30.5t1.5 30z" />
    <glyph glyph-name="plus" unicode="+" horiz-adv-x="450" 
d="M390 227v-6h-183l-89 -184l-5 3l87 181h-180v6h183l89 183l5 -3l-87 -180h180z" />
    <glyph glyph-name="comma" unicode="," horiz-adv-x="220" 
d="M90 115q25 0 42.5 -17.5t17.5 -42.5q0 -55 -65 -120q-31 -32 -77 -63l-6 8q45 31 76 62q33 31 50 66q-29 -24 -63.5 -7.5t-34.5 54.5q0 25 17.5 42.5t42.5 17.5z" />
    <glyph glyph-name="hyphen" unicode="-" horiz-adv-x="410" 
d="M390 227v-6h-370v6h370z" />
    <glyph glyph-name="period" unicode="." horiz-adv-x="212" 
d="M81 115q25 0 43 -17.5t18 -43.5q0 -24 -18 -41.5t-43 -17.5q-24 0 -41.5 17.5t-17.5 41.5q0 25 17.5 43t41.5 18z" />
    <glyph glyph-name="slash" unicode="/" horiz-adv-x="230" 
d="M317 700h13l-297 -700h-13z" />
    <glyph glyph-name="zero" unicode="0" horiz-adv-x="661" 
d="M544 700q88 0 137.5 -51.5t49.5 -136.5q0 -87 -49 -180t-124 -165.5t-170 -119.5t-182 -47t-136.5 51.5t-49.5 136.5q0 87 49 180t123.5 165.5t169.5 119.5t182 47zM540 350q66 142 66 240q0 44 -16.5 71t-45.5 27q-77 0 -171.5 -97t-161.5 -241q-66 -142 -66 -240
q0 -44 16 -71t45 -27q77 0 171.5 97t162.5 241z" />
    <glyph glyph-name="one" unicode="1" horiz-adv-x="402" 
d="M492 700l-332 -688h82v-12h-222v12h74q-27 18 -27 53q0 31 34 103l198 410h-57v12q148 9 238 110h12z" />
    <glyph glyph-name="two" unicode="2" horiz-adv-x="588" 
d="M487 700q78 0 134.5 -39.5t56.5 -114.5q0 -98 -116 -168q-45 -28 -118.5 -55t-130.5 -46.5t-123 -62.5t-111 -104q39 36 86 42.5t83 -6.5t82 -28t74 -15q53 0 81 49l11 -6l-9 -18q-16 -31 -27 -48.5t-32.5 -42.5t-49.5 -37t-63 -12q-44 0 -109 27.5t-93 27.5
q-24 0 -47.5 -11.5t-33.5 -31.5h-12q10 72 66.5 138.5t129.5 117t144.5 100t120.5 107.5t49 120q0 48 -32.5 77t-73.5 21q-84 -17 -131 -64q38 19 74.5 -4t36.5 -66q0 -32 -23 -54.5t-55 -22.5t-54.5 22.5t-22.5 54.5q0 45 39 81t92.5 54t106.5 18z" />
    <glyph glyph-name="three" unicode="3" horiz-adv-x="601" 
d="M679 700h12q-10 -47 -35 -86.5t-51.5 -65t-74 -53t-76 -40t-83.5 -35.5q-10 -4 -36 -15t-39 -17q89 4 152.5 -33t63.5 -109q0 -92 -97 -169t-213 -77q-81 0 -131.5 44t-50.5 107q0 32 22.5 55t54.5 23t55 -23t23 -55q0 -50 -45.5 -70.5t-83.5 13.5q34 -66 120 -79
q45 1 91 40.5t75 98t29 113.5q0 46 -24.5 75.5t-71.5 30.5q-33 -17 -58 -34l-7 10q45 31 166 82q151 61 212 111q-33 -16 -74 -11.5t-71 16t-64.5 24t-54.5 12.5q-58 0 -86 -58q-1 -2 -4 -7.5t-6.5 -13.5t-6.5 -14h-13l101 210h13l-64 -133q13 27 25.5 46.5t32 41.5t46 33.5
t58.5 11.5q33 0 99 -25.5t94 -25.5q49 0 76 51z" />
    <glyph glyph-name="four" unicode="4" 
d="M615 700l-227 -469h108v-12h-196q26 0 40 -26t-5 -72l-52 -109h82v-12h-222v12h74q-27 18 -27 53q0 31 34 103l25 51h-229q114 82 210 208q58 77 81 138q-37 -34 -83.5 -13.5t-46.5 70.5q0 32 23 55t55 23t54.5 -23t22.5 -55q0 -71 -96 -202q-83 -109 -184 -189h199
q4 9 90 186.5t87 180.5q98 20 171 102h12z" />
    <glyph glyph-name="five" unicode="5" horiz-adv-x="613" 
d="M690 700h13l-101 -210h-13l19 40q10 21 1 37t-36 16q-25 0 -93 -26.5t-105 -26.5q-60 0 -84 43t-5 90l-166 -342q99 67 198 67q87 0 140.5 -40t53.5 -102q0 -92 -97 -169t-213 -77q-81 0 -131.5 44t-50.5 107q0 32 22.5 55t54.5 23t55 -23t23 -55q0 -50 -45.5 -70.5
t-83.5 13.5q34 -66 120 -79q45 1 91 40.5t75 98t29 113.5q0 44 -22 72.5t-64 32.5q-91 -15 -168 -76l-7 9v0l190 395h14q-11 -21 -2 -37.5t36 -16.5q26 0 93 27t105 27q59 0 84 -42.5t6 -89.5z" />
    <glyph glyph-name="six" unicode="6" horiz-adv-x="604" 
d="M544 700q68 0 109 -40.5t41 -95.5q0 -42 -23 -68t-58 -26q-32 0 -55 22.5t-23 54.5q0 38 28 60.5t63 17t54 -38.5q-8 44 -44 73t-92 29q-80 0 -172.5 -97.5t-157.5 -233.5q69 31 132 31q87 0 140.5 -40t53.5 -102q0 -93 -102 -169.5t-236 -76.5q-85 0 -133.5 52
t-48.5 136q0 87 49 180t123.5 165.5t169.5 119.5t182 47zM303 372q-45 -7 -97 -32q-61 -135 -61 -230q0 -43 14.5 -70.5t39.5 -27.5q65 0 127.5 85.5t62.5 169.5q0 44 -23 74.5t-63 30.5z" />
    <glyph glyph-name="seven" unicode="7" horiz-adv-x="453" 
d="M541 700q5 -46 -9.5 -90.5t-42 -81.5t-62 -73t-70 -70.5t-65.5 -67.5t-49 -71t-20 -74q-2 -31 14 -61q-7 -46 -42.5 -78.5t-79.5 -32.5q-42 0 -68.5 26.5t-26.5 65.5q0 48 34 96t86 86t114.5 81.5t118 83t98.5 92t55 105.5q-21 -45 -62.5 -75.5t-92.5 -30.5
q-40 0 -106 26t-90 26q-49 0 -77 -59q-9 -18 -16 -33h-13l101 210h13l-49 -101q22 41 58.5 67.5t82.5 26.5q37 0 98.5 -25.5t83.5 -25.5q46 0 72 58v0h12z" />
    <glyph glyph-name="eight" unicode="8" horiz-adv-x="535" 
d="M474 700q69 0 110 -35.5t41 -91.5q0 -64 -54 -122t-135 -85q51 -60 56 -118q6 -90 -87.5 -169t-209.5 -79q-82 0 -128.5 39.5t-46.5 102.5q0 74 67 142t165 93q-44 60 -44 111q0 83 81.5 147.5t184.5 64.5zM194 13q68 0 123.5 48.5t55.5 108.5q0 26 -13 55.5t-22 43
t-40 50.5t-35 42q-67 -32 -113.5 -106.5t-46.5 -141.5q0 -47 24.5 -73.5t66.5 -26.5zM422 383q56 35 91.5 99.5t35.5 121.5q0 84 -74 84q-56 0 -102.5 -40t-47.5 -97q0 -17 5 -34t9 -28t18 -29.5t18.5 -24t24.5 -27.5t22 -25z" />
    <glyph glyph-name="nine" unicode="9" horiz-adv-x="604" 
d="M512 700q85 0 133.5 -52t48.5 -136q0 -87 -49 -180t-123.5 -165.5t-169.5 -119.5t-182 -47q-68 0 -109 40.5t-41 95.5q0 42 23 68t58 26q32 0 55 -22.5t23 -54.5q0 -38 -28 -60.5t-63 -17t-54 38.5q8 -44 44 -73t92 -29q80 0 172.5 97.5t157.5 232.5q-71 -30 -132 -30
q-87 0 -140.5 40t-53.5 102q0 93 102 169.5t236 76.5zM508 359q61 137 61 231q0 43 -14.5 70.5t-39.5 27.5q-65 0 -127.5 -86t-62.5 -170q0 -44 23 -74.5t63 -30.5q49 9 97 32z" />
    <glyph glyph-name="colon" unicode=":" horiz-adv-x="292" 
d="M80 115q25 0 42.5 -18t17.5 -43t-17.5 -42t-42.5 -17t-42.5 17t-17.5 42t17.5 43t42.5 18zM211 388q25 0 43 -18t18 -43t-17.5 -42t-43.5 -17q-24 0 -41.5 17t-17.5 42t17.5 43t41.5 18z" />
    <glyph glyph-name="semicolon" unicode=";" horiz-adv-x="292" 
d="M211 388q25 0 43 -18t18 -43t-17.5 -42t-43.5 -17q-24 0 -41.5 17t-17.5 42t17.5 43t41.5 18zM80 115q25 0 42.5 -17.5t17.5 -42.5q0 -55 -65 -120q-31 -32 -77 -63l-6 8q45 31 76 62q33 31 50 66q-29 -24 -63.5 -7.5t-34.5 54.5q0 25 17.5 42.5t42.5 17.5z" />
    <glyph glyph-name="less" unicode="&#x3c;" horiz-adv-x="475" 
d="M292 71l-3 -5l-269 158l429 158l2 -6l-417 -153z" />
    <glyph glyph-name="equal" unicode="=" horiz-adv-x="487" 
d="M390 147v-6h-370v6h370zM467 307v-6h-370v6h370z" />
    <glyph glyph-name="greater" unicode="&#x3e;" horiz-adv-x="475" 
d="M183 376l4 6l268 -159l-429 -157l-2 6l417 153z" />
    <glyph glyph-name="question" unicode="?" horiz-adv-x="468" 
d="M97 155q32 0 55 -23t23 -55t-23 -54.5t-55 -22.5q-31 0 -54 23t-23 54q0 32 22.5 55t54.5 23zM568 556q0 -44 -26 -85t-65 -69.5t-84.5 -54.5t-85 -44t-66 -35t-26.5 -29q0 -14 18 -8l2 -3q-23 -14 -43 -12q-14 0 -22 7.5t-8 20.5q0 19 26.5 46.5t64 58.5t75.5 66
t64.5 79.5t26.5 88.5q0 43 -27 72t-64 29q-69 -10 -122 -44q36 6 63.5 -17t27.5 -59q0 -32 -22.5 -55t-54.5 -23t-55 23t-23 55q0 57 74.5 96.5t160.5 39.5q85 0 138 -40t53 -104z" />
    <glyph glyph-name="at" unicode="@" horiz-adv-x="963" 
d="M516 -208q65 0 122.5 17t97.5 44.5t64 50t42 45.5l9 -8q-58 -75 -146 -118t-189 -43q-114 0 -208.5 45.5t-151 130.5t-56.5 193q0 81 39 163.5t101 145.5t145.5 102.5t167.5 39.5q162 0 261 -93t99 -220q0 -119 -92.5 -206t-221.5 -87q-37 0 -54.5 22.5t-9.5 57.5
q-62 -80 -129 -80q-46 0 -77 30t-31 81q0 65 47 134.5t119.5 115.5t140.5 46q26 0 41 -16t16 -41l23 48h103l-160 -331q-12 -24 -12 -39q0 -25 52 -11q74 22 134 96t60 180q0 123 -85 212t-224 89q-69 0 -137.5 -36.5t-119.5 -96.5t-83 -141t-32 -165q0 -158 94 -257.5
t240 -99.5h1zM548 108l97 201q15 31 3 57t-43 26q-54 0 -123 -96q-42 -59 -71.5 -131t-29.5 -117t30 -45q29 0 69.5 29t67.5 76z" />
    <glyph glyph-name="A" unicode="A" horiz-adv-x="944" 
d="M860 61q52 51 89 135l11 -5q-38 -86 -94.5 -141t-120.5 -55q-61 0 -92 47.5t-31 127.5q0 36 9 79q-37 -16 -68 -35q-34 -20 -67.5 -47.5t-52 -46.5t-39.5 -41.5t-22 -23.5l-8 8q56 62 79 143q-79 -114 -172 -168q-73 -43 -144 -43q-59 0 -93 34t-34 90q0 57 30.5 112.5
t78.5 99.5q51 47 110 74t113 27q90 0 120 -74q19 -44 13 -99q5 8 32.5 48t37.5 54.5t35 49t41 54t39 46t44 47.5q135 133 279 142l1 -12q-59 -65 -121.5 -176.5t-96.5 -221.5q56 0 111 -18l-4 -11q-53 18 -111 16q-26 -89 -26 -156q0 -99 48 -99q35 0 76 39zM275 48
q93 54 185 189q12 67 -9 117q-29 66 -109 66q-110 0 -215 -97q-46 -42 -75.5 -96t-29.5 -108q0 -51 30.5 -81.5t84.5 -30.5q67 0 138 41zM557 224q37 24 77 39q23 101 80.5 209t124.5 173q-63 -32 -127 -96q-33 -32 -70.5 -79t-55 -71t-65 -93t-50.5 -74q-8 -50 -36 -104
q55 55 122 96z" />
    <glyph glyph-name="B" unicode="B" horiz-adv-x="949" 
d="M1019 578q0 -59 -53 -118t-137 -87q80 -36 80 -119q0 -77 -68.5 -153t-176 -124t-213.5 -48q-57 0 -105.5 20t-68.5 63q-51 -17 -102 -17q-74 0 -119.5 39.5t-45.5 106.5q0 87 71.5 176t176.5 144q9 93 132 164q117 67 275 74q36 34 80 34h59q-2 -3 -7 -14t-9 -19h103
q56 0 92 -35t36 -87zM138 16q81 0 166 85q64 63 122 163q44 75 115.5 227t110.5 195q-52 -3 -112 -16q-79 -19 -144 -56q-83 -46 -114 -110q22 20 52 20q32 0 55 -22.5t23 -54.5t-23 -55t-55 -23t-54.5 23t-22.5 55q-81 -44 -142 -110q-93 -99 -93 -196q0 -62 42 -98
q32 -27 74 -27zM692 365q67 0 138.5 82.5t71.5 162.5q0 36 -17 57t-44 21h-59q-11 -23 -89 -183q-60 -124 -116 -216.5t-125 -161.5q-78 -79 -164 -111q34 -69 142 -69q62 0 124.5 31t108.5 77.5t74.5 102.5t28.5 105q0 41 -25 65.5t-54 24.5z" />
    <glyph glyph-name="C" unicode="C" horiz-adv-x="651" 
d="M568 367q-32 0 -55 22.5t-23 54.5t23 55t55 23t54.5 -23t22.5 -55q0 -36 -27 -58q52 15 86 50q55 53 55 121q0 56 -45 93q-46 38 -116 38q-62 0 -135 -63t-131 -152t-97 -191t-39 -176q0 -46 15.5 -72.5t46.5 -26.5q77 0 165 39.5t165 109.5l8 -8q-78 -71 -167.5 -112
t-170.5 -41q-88 0 -138 51.5t-50 137.5q0 117 81.5 238.5t205.5 199.5t241 78q74 0 123.5 -40.5t49.5 -102.5q0 -72 -59.5 -131t-143.5 -59z" />
    <glyph glyph-name="D" unicode="D" horiz-adv-x="1081" 
d="M874 700q99 0 168.5 -67t69.5 -175q0 -98 -65 -197t-162.5 -170.5t-215 -116.5t-219.5 -45q-136 0 -179 81q-47 -15 -96 -15q-74 0 -119.5 39.5t-45.5 106.5q0 87 71.5 176t176.5 144q9 93 132 164q117 67 275 74q36 34 80 34h59q-2 -3 -7 -14t-9 -19h86zM138 16
q81 0 166 85q59 59 114.5 150t90 169t74 155.5t69.5 110.5q-52 -3 -112 -16q-79 -19 -144 -56q-84 -47 -113 -109q22 20 51 20q32 0 55 -22.5t23 -54.5t-23 -55t-55 -23t-54.5 22.5t-22.5 54.5q-81 -44 -142 -110q-93 -99 -93 -196q0 -62 42 -98q32 -27 74 -27zM425 -56
q84 0 181 53t175 133t130 181.5t52 191.5q0 83 -36.5 133.5t-104.5 51.5h-40q-11 -23 -89 -183q-60 -124 -116 -216.5t-125 -161.5q-80 -82 -170 -113q15 -27 44 -44q42 -26 99 -26z" />
    <glyph glyph-name="E" unicode="E" horiz-adv-x="769" 
d="M718 595q32 0 54.5 -23t22.5 -55q0 -17 -6 -31q38 38 38 84q0 47 -35.5 79.5t-88.5 32.5q-81 0 -159.5 -80t-78.5 -167q0 -45 31 -71.5t87 -26.5l-6 -12q-92 0 -185.5 -62.5t-152 -156.5t-58.5 -182q0 -66 39 -101.5t102 -35.5q54 0 133 40q93 47 161.5 119.5t88.5 147.5
q-25 -27 -59 -27q-32 0 -55 23t-23 55t23 54.5t55 22.5t54.5 -22.5t22.5 -54.5q0 -89 -74.5 -180.5t-189.5 -149.5t-226 -58q-102 0 -157.5 50.5t-55.5 130.5q0 88 64.5 174.5t166 145.5t210.5 73q-52 8 -84.5 41t-32.5 80q0 90 107 169t231 79q71 0 114 -38t43 -92
q0 -51 -41 -92q-38 -38 -80 -38q-32 0 -55 22.5t-23 54.5t23 55t55 23z" />
    <glyph glyph-name="F" unicode="F" horiz-adv-x="907" 
d="M1096 700l11 -12q0 -45 -39.5 -78.5t-108.5 -33.5q-62 0 -156 41q-75 -88 -161 -255q53 1 112 31t95 78h12l-111 -230h-12q12 48 -18.5 78t-84.5 31q-24 -48 -67 -136t-59 -118q-49 -94 -110.5 -167.5t-144.5 -122.5t-170 -49q-73 0 -118.5 39t-44.5 106q0 84 67 171
t169.5 143t199.5 56v-12q-94 0 -194 -55t-165 -139t-65 -164q0 -61 41 -97q31 -26 73 -26q84 0 174 91q27 28 56.5 69t49.5 72.5t51 91t42.5 83t44 92.5t36.5 77q118 246 277 273q-91 40 -174 40q-111 0 -196 -54q-77 -48 -101 -113q23 23 55 23t54.5 -22.5t22.5 -54.5
t-22.5 -55t-54.5 -23t-55 23t-23 55v0v0q0 102 118 178q120 75 292 75h402z" />
    <glyph glyph-name="G" unicode="G" horiz-adv-x="677" 
d="M568 367q-32 0 -55 22.5t-23 54.5t23 55t55 23t54.5 -23t22.5 -55q0 -36 -27 -58q52 15 86 50q55 53 55 121q0 56 -45 93q-46 38 -116 38q-62 0 -135 -63t-131 -152t-97 -191t-39 -176q0 -46 15.5 -72.5t46.5 -26.5q70 0 152 34l124 257h-85v12h225v-12h-75
q27 -16 27 -52q0 -35 -30 -98q-78 -71 -167.5 -112t-170.5 -41q-88 0 -138 51.5t-50 137.5q0 117 81.5 238.5t205.5 199.5t241 78q74 0 123.5 -40.5t49.5 -102.5q0 -72 -59.5 -131t-143.5 -59z" />
    <glyph glyph-name="H" unicode="H" horiz-adv-x="925" 
d="M1079 700q31 0 55 -14l-6 -11q-8 5 -16 5q-41 0 -107 -139q-1 -3 -2 -5l-2 -4l-252 -520h85v-12h-224v12h74q-38 23 -23 85q5 21 30 71q47 97 85 176h-148q-119 -244 -122 -249q-75 -146 -185 -242t-238 -96q-73 0 -118 39t-45 106q0 84 67 170.5t169.5 142.5t200.5 56
v-12q-95 0 -195 -54.5t-165 -138.5t-65 -164q0 -62 41 -97q32 -27 73 -27q33 0 66 13t64.5 40t58.5 55t56.5 73.5t50.5 78.5t48 87t41 82.5t38 80.5t31 67l37.5 80t34 72t28.5 57t28.5 49.5t27 34.5t31 27t33.5 13h-27q-170 0 -286 -74q-77 -48 -101 -113q23 23 55 23
t54.5 -22.5t22.5 -54.5t-22.5 -55t-54.5 -23t-55 23t-23 55q0 50 32 97q30 44 86 81q120 75 292 75h176v-12h-72q-6 -13 -35.5 -73t-63 -128t-64.5 -131h148q26 54 33 68q76 157 133 216.5t131 59.5z" />
    <glyph glyph-name="I" unicode="I" horiz-adv-x="636" 
d="M674 700h181v-12h-73q-36 -73 -91 -186q-126 -263 -239 -375q-130 -132 -277 -132q-74 0 -119.5 39.5t-45.5 106.5q0 88 74 179t182 145q5 42 30 79q30 44 86 81q120 75 292 75zM342 369q-32 0 -55 23t-22 59q-87 -45 -150 -114q-93 -99 -93 -196q0 -62 42 -98
q32 -27 74 -27q81 0 166 85q64 63 122 163q46 78 99.5 194.5t88.5 167.5t84 62h-24q-171 0 -285 -74q-76 -46 -102 -113q23 23 55 23t55 -22.5t23 -54.5t-23 -55t-55 -23z" />
    <glyph glyph-name="J" unicode="J" horiz-adv-x="672" 
d="M693 700h178v-12h-73q-11 -23 -67.5 -138.5t-94.5 -193.5h65v-12h-170q23 0 40 -15t17 -42q0 -31 -34 -101q-17 -35 -46 -91q-49 -94 -110 -167t-144 -122t-170 -49q-73 0 -118.5 39t-45.5 106q0 84 67 170.5t170 142.5t200 56v-12q-94 0 -194 -54.5t-165.5 -138.5
t-65.5 -164q0 -61 42 -97q30 -27 73 -27q82 0 174 92q23 24 45.5 52.5t46 67t39.5 65t41.5 77.5l35 70t36.5 76t31 66h-67v12h72q15 31 37.5 80t33.5 71.5t28.5 56.5t28.5 50t27 34t31.5 27t33.5 13h-28q-169 0 -285 -74q-77 -48 -101 -113q23 23 55 23t54.5 -22.5
t22.5 -54.5t-22.5 -55t-54.5 -23t-55 23t-23 55v0v0q0 50 32 97q30 44 86 81q119 75 291 75z" />
    <glyph glyph-name="K" unicode="K" horiz-adv-x="954" 
d="M952 594l-241 -181q-7 -229 68 -397q-32 -71 -23 -135.5t53 -93.5q31 -18 64 -18q43 0 75 27h1l1 1q-18 -8 -35 -8q-32 0 -54.5 22.5t-22.5 54.5t22.5 55t54.5 23t55 -23t23 -55q0 -48 -36 -78.5t-84 -30.5q-59 0 -110 51q-74 75 -117 230t-47 287q-73 -126 -147 -198
q-130 -132 -277 -132q-74 0 -119.5 39.5t-45.5 106.5q0 88 74 179t182 145q5 42 30 79q30 44 86 81q120 75 292 75h181v-12h-73q-36 -73 -91 -186q-32 -68 -74 -145l262 197q60 46 69 90q1 41 -47 44v12h253v-12q-78 0 -202 -94zM342 369q-32 0 -55 23t-22 59
q-87 -45 -150 -114q-93 -99 -93 -196q0 -62 42 -98q32 -27 74 -27q43 0 86.5 23t81 62.5t66 78.5t54.5 84q46 78 99.5 194.5t88.5 167.5t84 62h-24q-171 0 -285 -74q-76 -46 -102 -113q23 23 55 23t55 -22.5t23 -54.5t-23 -55t-55 -23z" />
    <glyph glyph-name="L" unicode="L" horiz-adv-x="504" 
d="M401 263q-60 -90 -122 -142.5t-163 -89.5q62 20 100 20q46 0 94.5 -20t89 -48.5t78 -57.5t74.5 -49t66 -20q35 0 59 23l9 -7q-29 -44 -68 -67t-78 -23q-40 0 -89 30.5t-91 69.5t-99 75.5t-113 48.5t-134 -11l-4 11q136 51 262 258q40 68 81.5 154.5t63.5 134.5t54.5 87
t71.5 48h-28q-169 0 -285 -74q-76 -48 -102 -113q23 23 55 23t55 -22.5t23 -54.5t-23 -55t-55 -23t-54.5 23t-22.5 55q0 51 31 97q32 46 86 81q120 75 292 75h179v-12h-72q-40 -81 -91 -186q-73 -153 -130 -239z" />
    <glyph glyph-name="M" unicode="M" horiz-adv-x="1112" 
d="M334 431q-7 32 10 76q26 69 103 121q106 72 218 72h45q26 0 44 -19.5t15 -45.5l-46 -435q176 247 279 349q75 75 152 113t171 38v-12q-15 0 -43 -2q-32 -24 -92 -146l-255 -528h83v-12h-141h-81v12h74q-27 18 -27 53q0 31 34 103l177 367q1 2 4.5 9.5t5 10.5t5.5 9.5
t6 10.5t6 10.5t7.5 11t8 10.5t9.5 11t11 10q-50 -31 -107 -87q-101 -100 -280 -352q-13 -19 -60 -84.5t-75 -104.5h-15v0l57 529q-46 -157 -138 -291q-73 -109 -159 -172q-98 -71 -197 -71q-61 0 -98 34q-35 35 -35 90q0 46 24 97q43 89 138 153q82 54 162 62zM600 458
q39 103 49 187l4 43q-105 -5 -199 -70q-75 -51 -100 -117q23 23 56 23q32 0 54.5 -22.5t22.5 -54.5t-22.5 -55t-54.5 -23q-24 0 -44.5 14t-28.5 36q-84 -8 -168 -67.5t-124 -140.5q-23 -49 -23 -92q0 -50 31 -81q34 -31 90 -31q95 0 190 68q84 63 156 169q66 96 111 214z
" />
    <glyph glyph-name="N" unicode="N" horiz-adv-x="918" 
d="M1118 700v-12q-51 0 -94.5 -28.5t-68.5 -80.5l-243 -502q-11 -23 2.5 -44t38.5 -21h24v-12h-131q-26 0 -44 19.5t-15 45.5l50 464q-46 -157 -138 -291q-73 -109 -159 -172q-98 -71 -197 -71q-61 0 -98 34q-35 35 -35 90q0 46 24 97q43 89 138 153q82 54 162 62
q-8 33 10 76q26 69 103 121q106 72 218 72h45q26 0 44 -19.5t15 -45.5l-56 -529l231 479q21 41 5.5 72t-64.5 31h-8v12h241zM600 458q39 103 49 187l4 43q-105 -5 -199 -70q-75 -51 -100 -117q23 23 56 23q32 0 54.5 -22.5t22.5 -54.5t-22.5 -55t-54.5 -23q-24 0 -44.5 14
t-28.5 36q-84 -8 -168 -67.5t-124 -140.5q-23 -49 -23 -92q0 -50 31 -81q34 -31 90 -31q95 0 190 68q84 63 156 169q66 96 111 214z" />
    <glyph glyph-name="O" unicode="O" horiz-adv-x="719" 
d="M443 370q-36 0 -59 27.5t-23 66.5q0 78 71 157q74 79 165 79q79 0 125.5 -52t46.5 -135q0 -88 -49.5 -182.5t-125 -167.5t-171.5 -120.5t-184 -47.5q-89 0 -139 52t-50 138q0 152 133.5 305.5t302.5 199.5l4 -8q-35 -19 -66 -53q-30 -32 -51 -73q-86 -103 -141.5 -232.5
t-55.5 -217.5q0 -47 17.5 -73t50.5 -26q78 0 172 100.5t158 234.5t68 232q1 51 -20.5 78t-57.5 27q-62 0 -123 -66q-56 -60 -66 -130q20 42 68 42q32 0 55 -22.5t23 -54.5t-23 -55t-55 -23z" />
    <glyph glyph-name="P" unicode="P" horiz-adv-x="773" 
d="M497 298q63 9 123.5 54.5t98 111t37.5 127.5q0 42 -22 69.5t-58 27.5h-48q-11 -23 -89 -183q-39 -81 -65 -130t-73.5 -120.5t-94.5 -118.5q-108 -110 -234 -131q60 -12 168 -57q57 -22 85 -32.5t75 -22t83 -11.5q62 0 105 28q50 31 83 98l10 -5q-64 -133 -198 -133
q-37 0 -84 11t-78 22.5t-85 33.5q-153 63 -226 63v12v0q39 6 78 31.5t73.5 66t59 76t52.5 81.5q42 73 114 225t111 195q-67 -5 -124 -19q-77 -20 -137 -54q-84 -49 -113 -110q23 20 52 20q32 0 55 -23t23 -55t-23 -54.5t-55 -22.5t-54.5 22.5t-22.5 54.5v1q0 50 36 97
q35 45 96 81q64 36 140 55q72 18 140 19q36 34 80 34h59q-10 -20 -16 -33h92q74 0 115.5 -42t41.5 -102q0 -99 -112.5 -181t-279.5 -89z" />
    <glyph glyph-name="Q" unicode="Q" horiz-adv-x="741" 
d="M664 589q0 99 -68 99q-77 0 -171 -100.5t-158 -234.5t-68 -232q-1 -51 20.5 -78t57.5 -27q61 0 123 66q57 63 66 130q-22 -42 -69 -42q-31 0 -54 23t-23 54q0 32 22.5 55t54.5 23q37 0 60 -27.5t23 -66.5q0 -79 -72 -157q-72 -79 -165 -79q-78 0 -125 52.5t-47 134.5
q0 88 49.5 182.5t125.5 167.5t172 120.5t184 47.5q89 0 139 -52t50 -138q-1 -115 -77.5 -232t-198.5 -200t-252 -107q50 13 111 -1.5t109 -39.5t102 -48t87 -23q31 0 57 20l9 -7q-29 -44 -68.5 -67t-78.5 -23q-40 0 -90.5 22.5t-93.5 50.5t-102 53.5t-117.5 30.5t-138.5 -18
l-4 11q37 12 145.5 32t160.5 49q35 19 66 53q30 32 51 73q86 102 141 231.5t55 218.5z" />
    <glyph glyph-name="R" unicode="R" horiz-adv-x="991" 
d="M1081 -134q0 -48 -35.5 -78.5t-83.5 -30.5q-59 0 -110 51q-82 84 -126.5 263t-38.5 294q81 11 148 87t67 156q0 35 -18 57.5t-48 22.5h-54q-11 -23 -89 -183q-60 -124 -116 -216.5t-125 -161.5q-130 -132 -277 -132q-74 0 -119.5 39.5t-45.5 106.5q0 87 71.5 176
t176.5 144q9 93 132 164q117 67 275 74q36 34 80 34h59q-2 -3 -7 -14t-9 -19h103q56 0 92 -35t36 -87q0 -70 -71.5 -137.5t-186.5 -82.5q12 0 25 -4t13 -8q6 -189 69 -330q-32 -71 -23 -135.5t53 -93.5q30 -18 64 -18q47 0 76 28q-38 -20 -75 3t-37 66q0 32 23 55t55 23
t54.5 -23t22.5 -55zM426 264q44 75 115.5 227t110.5 195q-52 -3 -112 -16q-79 -19 -144 -56q-53 -29 -89 -71q-13 -17 -25 -39q22 20 52 20q32 0 55 -22.5t23 -54.5t-23 -55t-55 -23t-54.5 23t-22.5 55q-81 -44 -142 -110q-93 -99 -93 -196q0 -62 42 -98q32 -27 74 -27
q43 0 86.5 23t81 62.5t66 78.5t54.5 84z" />
    <glyph glyph-name="S" unicode="S" horiz-adv-x="597" 
d="M631 639q36 -38 36 -79q0 -32 -22.5 -55t-54.5 -23t-55 23t-23 55q0 43 36.5 65.5t74.5 3.5q-56 59 -144 59q-58 0 -106.5 -27t-48.5 -76q0 -34 23 -72.5t55.5 -76.5t64.5 -80t55 -96.5t23 -110.5q0 -98 -65 -190t-162.5 -147t-192.5 -55q-81 0 -125 44t-39 112
q4 66 45 129.5t99 112.5q118 100 247 112q-67 83 -86 120q-26 51 -26 103q0 89 74 149.5t165 60.5q93 0 152 -61zM284 -191q76 36 125 98t48 138q0 58 -24.5 106t-70.5 105q-126 -7 -249 -110q-57 -48 -96.5 -109.5t-43.5 -124.5t36 -103t116 -40q77 0 159 40z" />
    <glyph glyph-name="T" unicode="T" horiz-adv-x="907" 
d="M284 447q0 51 31 97q30 44 86 81q120 75 292 75h402l12 -12q0 -45 -40 -78.5t-109 -33.5q-21 0 -40.5 2.5t-41.5 10t-32.5 11.5t-38 16t-34.5 15q-7 -15 -30.5 -62.5t-51 -103t-55.5 -113.5q-116 -239 -125 -257q-77 -147 -187.5 -242.5t-238.5 -95.5q-73 0 -118 39
t-45 106q0 84 67 171t169.5 143t200.5 56v-12q-95 0 -195 -55t-165 -139t-65 -164q0 -61 41 -97q31 -26 74 -26q164 -1 350 362q26 50 102 214q120 258 255 283q-74 30 -151 30q-111 0 -196 -54q-77 -48 -101 -113q23 23 55 23t55 -22.5t23 -54.5t-23 -55t-55 -23t-54.5 23
t-22.5 55z" />
    <glyph glyph-name="U" unicode="U" horiz-adv-x="820" 
d="M80 447q0 45 28 93q25 43 74 81q48 36 108 57q62 22 131 22h178v-12h-75q38 -24 23 -85q-3 -13 -29 -71l-206 -426q-20 -40 -20 -65q0 -27 23 -27q33 0 86 39q67 50 118 138q1 3 2.5 6t4.5 8t11.5 23t20.5 44l166 343q27 56 -1 73h-46v12h223v-12h-74q37 -24 23 -85
q-3 -9 -30 -71l-206 -426q-19 -41 -19 -65q0 -27 22 -27q32 0 87 39q65 48 118 138l10 -6q-53 -91 -120 -140.5t-132 -49.5q-46 0 -71 24.5t-25 60.5q0 23 8 47q-101 -132 -214 -132q-46 0 -70.5 24t-24.5 61q0 10 2 21.5t3.5 19t7.5 21l8 18t10 22t10 20.5l200 413
q26 55 -2 73q-110 0 -200 -55.5t-119 -131.5q23 23 55 23t55 -22.5t23 -54.5t-23 -55t-55 -23t-54.5 23t-22.5 55z" />
    <glyph glyph-name="V" unicode="V" horiz-adv-x="725" 
d="M395 700h109v-12h-72q-16 -10 -17.5 -33t3.5 -40q5 -28 25 -99.5t34 -141t14 -126.5q0 -156 -95 -226q50 16 102 51q81 55 154 143q75 93 116 183q50 114 45 199q-8 -24 -28.5 -38.5t-45.5 -14.5q-32 0 -54.5 22.5t-22.5 54.5t22.5 55t54.5 23q36 0 61 -29t25 -89
q0 -84 -46 -188q-43 -94 -118 -186q-73 -88 -156 -145q-88 -59 -165 -64v0v0l-7 10q36 57 39 139.5t-14 152t-35.5 149.5t-18.5 119q0 89 69 118q-50 -3 -93 -19q-57 -22 -99 -57q-60 -50 -80 -111q22 24 56 24q32 0 55 -22.5t23 -54.5t-23 -55t-55 -23t-54.5 23t-22.5 55
q0 50 28 97q24 42 66 76q43 37 102 59q57 21 119 21z" />
    <glyph glyph-name="W" unicode="W" horiz-adv-x="1015" 
d="M395 700h109v-12h-72q-16 -10 -17.5 -33t3.5 -40q5 -28 25 -99.5t34 -141t14 -126.5q0 -156 -95 -226q19 6 52 22q55 27 111 76q55 48 100 104q-7 62 -36.5 182t-29.5 163q0 89 71 119h-84v12h214v-12h-73q-25 -15 -13 -73q5 -28 25 -99.5t34 -141t14 -126.5
q0 -156 -95 -226q52 18 101 51q85 58 154 143q73 89 116 183q52 113 45 199q-8 -23 -28 -38t-45 -15q-32 0 -55 22.5t-23 54.5t23 55t55 23q35 0 60.5 -29t25.5 -89q0 -85 -47 -188q-41 -93 -117 -186q-75 -89 -157 -145q-88 -59 -164 -64v0v0l-8 10q48 78 38 198
q-44 -53 -93 -96q-55 -48 -114 -78q-62 -31 -113 -34l-7 10q36 57 39 139.5t-14 152t-35.5 149.5t-18.5 119q0 89 69 118q-50 -3 -93 -19q-57 -22 -99 -57q-60 -50 -80 -111q22 24 56 24q32 0 55 -22.5t23 -54.5t-23 -55t-55 -23t-54.5 23t-22.5 55q0 50 28 97q24 42 66 76
q43 37 102 59q57 21 119 21z" />
    <glyph glyph-name="X" unicode="X" horiz-adv-x="904" 
d="M987 700q32 0 54.5 -23t22.5 -55t-22.5 -54.5t-54.5 -22.5t-55 22.5t-23 54.5q0 27 18 50q-53 -27 -118 -96q-92 -100 -147 -224q-64 -149 -64 -229q0 -41 16 -69.5t49 -28.5q41 0 113 53q63 45 107 115l11 -7q-57 -88 -142.5 -139.5t-157.5 -51.5q-60 0 -95.5 36.5
t-35.5 98.5q0 46 18 100q-52 -82 -126 -146q-108 -89 -204 -89h-1q-61 0 -96 35q-34 34 -34 89q0 46 24 97q35 73 107 130t151 77q-8 47 18 102q36 72 117.5 123.5t156.5 51.5q60 0 95.5 -36.5t35.5 -98.5q0 -44 -20 -108q44 72 96 127q47 52 94 83q49 33 92 33zM513 315
q77 179 77 257q0 40 -15.5 68t-48.5 28q-49 0 -118 -55q-50 -41 -76 -92q-26 -52 -18 -95q27 6 53 6t46 -14.5t28 -38.5q54 24 91 85l11 -6q-42 -66 -99 -91q6 -35 -17.5 -62.5t-59.5 -27.5q-31 0 -54 22.5t-23 54.5q0 29 18 50q0 2 -1 4.5t-2 3.5q-59 -16 -116 -53
q-92 -62 -134 -148q-23 -49 -23 -92q0 -50 30 -80q32 -32 88 -32h1q88 0 192 83t170 225zM317 413l2 2q-1 0 -2 -1v-1z" />
    <glyph glyph-name="Y" unicode="Y" horiz-adv-x="657" 
d="M596 700h261v-12q-59 0 -98.5 -28t-86.5 -95l-156 -222l-160 -331h82v-12h-140h-82v12h74q-27 18 -27 53q0 31 34 103l85 176q5 31 -36 130.5t-41 134.5q0 70 59 79q-95 0 -182 -74q-61 -52 -81 -115q22 25 56 25q32 0 55 -22.5t23 -54.5t-23 -55t-55 -23t-54.5 23
t-22.5 55q0 97 94 177q92 76 190 76h139v-12h-73q-17 -10 -17 -37q0 -33 48 -149t40 -158l156 221q41 59 27 91t-75 32h-13v12z" />
    <glyph glyph-name="Z" unicode="Z" horiz-adv-x="662" 
d="M136 181q-76 -70 -112 -130q76 81 178 87q48 2 95.5 -19.5t79.5 -49t68 -51t63 -23.5q26 0 48 22q28 29 42 61q-23 -21 -54 -21q-32 0 -54.5 22.5t-22.5 54.5t22.5 55t54.5 23t55 -23t23 -55q0 -71 -62 -131t-142 -60q-44 0 -90 19t-79 42t-74.5 42t-77.5 19
q-68 0 -97 -66l-12 4q30 87 140 186q55 51 228 180q186 136 260 209h-356q-32 0 -54 -20l-11 5l58 122q7 15 25 15h433l11 -6q-42 -78 -147 -171q-60 -52 -212 -164q-162 -119 -227 -178z" />
    <glyph glyph-name="bracketleft" unicode="[" horiz-adv-x="494" 
d="M563 768l-403 -836h119v-12h-259l415 860h259v-12h-131z" />
    <glyph glyph-name="backslash" unicode="\" horiz-adv-x="423" 
d="M20 700h6l297 -700h-6z" />
    <glyph glyph-name="bracketright" unicode="]" horiz-adv-x="614" 
d="M335 780h259l-415 -860h-259v12h131l403 836h-119v12z" />
    <glyph glyph-name="asciicircum" unicode="^" horiz-adv-x="387" 
d="M106 550l-6 10l188 131h42l57 -131l-10 -5l-90 81z" />
    <glyph glyph-name="underscore" unicode="_" horiz-adv-x="490" 
d="M470 -88v-6h-450v6h450z" />
    <glyph glyph-name="grave" unicode="`" horiz-adv-x="298" 
d="M288 551l-188 118l6 9l90 14l102 -135z" />
    <glyph glyph-name="a" unicode="a" horiz-adv-x="552" 
d="M417 21q62 31 106 103l9 -5q-40 -64 -88.5 -94t-89.5 -30q-50 0 -65 36.5t10 86.5l111 232q17 35 3.5 63.5t-48.5 28.5q-61 0 -139 -108q-47 -66 -80 -147t-33 -132q0 -46 30 -50q45 5 84 47q23 26 36 55q-29 -25 -64 -8.5t-35 54.5q0 25 17.5 42.5t42.5 17.5t42.5 -17.5
t17.5 -42.5q0 -54 -50 -108q-47 -50 -100 -50q-43 0 -78.5 32t-35.5 92q0 73 53 151.5t134 130t158 51.5q29 0 46.5 -18t17.5 -46l26 54h116l-183 -379q-17 -35 -5.5 -45.5t34.5 3.5z" />
    <glyph glyph-name="b" unicode="b" horiz-adv-x="496" 
d="M385 453q54 0 85 -34t31 -89q0 -110 -106 -218q-53 -53 -117 -85t-122 -32t-91 33.5t-33 89.5q0 49 27 106l192 398q14 28 14 44q0 18 -14 18q-21 0 -58 -30l-7 8q50 38 100 38q35 0 54.5 -18.5t19.5 -49.5q0 -24 -14 -55l-171 -353q-50 -105 -50 -168q0 -51 34 -51
q39 0 93.5 62.5t101.5 156.5q54 105 54 171q0 44 -29 47q-44 -3 -85 -47q-22 -25 -36 -54q29 24 64 8t35 -54q0 -25 -17.5 -42.5t-42.5 -17.5t-42.5 17.5t-17.5 42.5q0 53 50 107q46 51 98 51z" />
    <glyph glyph-name="c" unicode="c" horiz-adv-x="451" 
d="M365 452q55 0 88 -29t33 -70q0 -25 -17.5 -42.5t-42.5 -17.5t-42.5 17.5t-17.5 42.5q0 35 31.5 52t60.5 -2q-31 39 -93 39q-67 0 -146 -118q-46 -68 -76 -144.5t-30 -124.5q0 -50 34 -50q56 1 118.5 33t114.5 86l7 -7q-53 -55 -118.5 -88.5t-125.5 -33.5
q-58 0 -90.5 33.5t-32.5 89.5q0 74 53 152.5t134 130t158 51.5z" />
    <glyph glyph-name="d" unicode="d" horiz-adv-x="555" 
d="M636 577l-248 -514q-17 -35 -5.5 -45.5t34.5 3.5q62 31 106 103l9 -5q-40 -64 -88.5 -94t-89.5 -30q-50 0 -65 36.5t10 86.5l111 232q17 35 3.5 63.5t-48.5 28.5q-61 0 -139 -108q-47 -66 -80 -147t-33 -132q0 -46 30 -50q45 5 84 47q23 26 36 55q-29 -25 -64 -8.5
t-35 54.5q0 25 17.5 42.5t42.5 17.5t42.5 -17.5t17.5 -42.5q0 -54 -50 -108q-47 -50 -100 -50q-43 0 -78.5 32t-35.5 92q0 73 53 151.5t134 130t158 51.5q29 0 46.5 -18t17.5 -46l113 234q14 28 14 44q0 18 -15 18q-20 0 -58 -30l-6 8q50 38 99 38q36 0 55 -18.5t19 -49.5
q0 -27 -14 -55z" />
    <glyph glyph-name="e" unicode="e" horiz-adv-x="461" 
d="M491 366q0 -42 -36.5 -78t-91.5 -57.5t-112.5 -33.5t-105.5 -12q-32 -78 -32 -129t34 -51q56 1 118.5 33t114.5 86l8 -7q-54 -55 -119.5 -88.5t-125.5 -33.5q-58 0 -90.5 33.5t-32.5 89.5q0 74 52.5 152.5t134 130t159.5 51.5q58 0 91.5 -24.5t33.5 -61.5zM360 442
q-48 0 -108.5 -75.5t-101.5 -171.5q94 2 170.5 64t76.5 134q0 49 -37 49z" />
    <glyph glyph-name="f" unicode="f" horiz-adv-x="262" 
d="M437 700q52 0 83 -28.5t31 -60.5q0 -25 -17.5 -42.5t-42.5 -17.5t-42.5 17.5t-17.5 42.5q0 30 24 48t53 10q-28 20 -69 21q-13 0 -26 -13q-37 -38 -115 -206q-6 -13 -9 -19h79v-10h-166q36 0 51.5 -27t-4.5 -77q-44 -89 -58 -119q-90 -190 -182 -318q-39 -55 -62 -77
q-69 -67 -151 -67q-46 0 -73.5 25t-27.5 64q0 25 17.5 42.5t42.5 17.5t42.5 -17.5t17.5 -42.5q0 -35 -31 -52.5t-61 1.5q25 -28 73 -28q33 0 60.5 32.5t65.5 104.5q99 186 210 440q14 32 14 57q0 41 -43 41v10h113q-7 22 -7 47q0 84 74.5 142.5t153.5 58.5z" />
    <glyph glyph-name="g" unicode="g" horiz-adv-x="523" 
d="M553 585q25 0 42.5 -17.5t17.5 -42.5q0 -65 -61 -99q-36 -21 -69 -15q25 -30 25 -73q0 -97 -102 -183t-213 -86q-72 0 -106 42q-36 -3 -64 -26.5t-28 -56.5q0 -25 19.5 -42t52.5 -17t104 25.5t112 25.5q47 0 78 -31t31 -78q0 -61 -46.5 -107.5t-107.5 -46.5q-20 0 -40 5
t-34.5 11t-36 19t-31 20t-33 25t-30.5 23q-45 7 -70 42q-29 12 -52 12q-22 0 -40 -9q28 4 48.5 -13.5t20.5 -45.5q0 -25 -17.5 -42.5t-42.5 -17.5t-42.5 17.5t-17.5 42.5q0 32 25.5 55t65.5 23q22 0 44 -8q-12 23 -12 52q0 56 40.5 100.5t96.5 51.5q-17 28 -17 63
q0 97 102 183t213 86q54 0 87 -25q35 -19 82 7q27 17 44 44q-29 -23 -63.5 -7t-34.5 54q0 25 17.5 42.5t42.5 17.5zM268 -90q-41 0 -109.5 -25.5t-107.5 -25.5q4 -3 17 -13t17.5 -13.5t17 -12t18.5 -12.5t17.5 -11t19 -10t19 -8t20.5 -7t19.5 -3.5t21.5 -1.5q39 0 70.5 24
t31.5 59q0 26 -19.5 43t-52.5 17zM197 79q39 0 90 54t86.5 128.5t35.5 129.5q0 51 -36 51q-39 0 -89.5 -54t-86 -128t-35.5 -129q0 -52 35 -52z" />
    <glyph glyph-name="h" unicode="h" 
d="M296 381q-30 -30 -52 -69l-114 -236q-28 -59 -16 -78q-14 -3 -28 -3q-31 0 -48.5 18t-17.5 48q0 27 15 57l243 504q14 28 14 44q0 18 -15 18q-20 0 -58 -30l-6 8q50 38 99 38q36 0 55 -18.5t19 -49.5q0 -27 -14 -55l-100 -208q70 83 150 83q38 0 60 -18t22 -49
q0 -25 -31 -92l-111 -230q-17 -35 -5.5 -45.5t34.5 3.5q59 29 106 103l8 -5q-39 -64 -87 -94t-90 -30q-51 0 -66 36.5t10 86.5l124 256q13 27 13 45q0 19 -15 19q-12 0 -40 -14t-58 -43z" />
    <glyph glyph-name="i" unicode="i" horiz-adv-x="292" 
d="M293 671q25 0 42.5 -17.5t17.5 -42.5t-17.5 -42.5t-42.5 -17.5t-42.5 17.5t-17.5 42.5t17.5 42.5t42.5 17.5zM254 329l-128 -266q-17 -35 -6 -45.5t35 3.5q59 29 106 103l8 -5q-39 -64 -87 -94t-90 -30q-51 0 -66 36.5t10 86.5l124 256q14 28 14 44q0 19 -15 19
q-18 0 -58 -31l-6 8q47 38 99 38q36 0 55 -18.5t19 -48.5q0 -28 -14 -56z" />
    <glyph glyph-name="j" unicode="j" horiz-adv-x="269" 
d="M289 671q25 0 42.5 -17.5t17.5 -42.5t-17.5 -42.5t-42.5 -17.5t-42.5 17.5t-17.5 42.5t17.5 42.5t42.5 17.5zM59 -36q46 64 125.5 218t79.5 203q0 31 -19.5 49.5t-54.5 18.5q-49 0 -99 -38l6 -8q41 30 58 30q14 0 14 -18t-11 -44q-4 -10 -24.5 -57t-28.5 -65t-28.5 -62.5
t-32.5 -68t-32 -61.5t-35.5 -63t-35 -53.5t-37.5 -49.5q-101 -118 -190 -118q-46 0 -75 26q-43 37 -43 99q0 64 46 136q40 63 102 112q59 49 132 79q76 33 147 33v10q-72 0 -147 -31.5t-138 -82.5q-64 -52 -107.5 -119.5t-44.5 -136.5q0 -67 45 -106t117 -39q165 0 311 207z
" />
    <glyph glyph-name="k" unicode="k" horiz-adv-x="513" 
d="M443 383q0 21 13 37.5t33 21.5q-49 4 -110 -37q-34 -22 -68 -56q-10 -183 49 -354q-25 -50 -20 -116.5t43 -94.5q22 -17 49 -17q34 0 56 24q-30 -16 -59.5 1t-29.5 51q0 25 17.5 42.5t42.5 17.5t42.5 -17.5t17.5 -42.5q0 -35 -25.5 -60.5t-61.5 -25.5q-49 0 -90 49
t-66 125t-40 154.5t-19 151.5q-28 -41 -42 -68l-45 -93q-28 -59 -16 -78q-14 -3 -28 -3q-31 0 -48.5 18t-17.5 48q0 27 15 57l243 504q14 28 14 44q0 18 -14 18q-21 0 -59 -30l-6 8q50 38 99 38q36 0 55 -18.5t19 -49.5q0 -27 -14 -55l-157 -325q79 108 158 161
q58 39 104 39q41 0 63.5 -20t22.5 -49q0 -25 -17.5 -42.5t-42.5 -17.5t-42.5 17.5t-17.5 42.5z" />
    <glyph glyph-name="l" unicode="l" horiz-adv-x="292" 
d="M36 118l243 504q14 28 14 44q0 18 -14 18q-21 0 -58 -30l-6 8q50 38 99 38q35 0 54.5 -18.5t19.5 -49.5q0 -24 -14 -55l-248 -514q-17 -35 -6 -45.5t35 3.5q59 29 106 103l8 -5q-39 -64 -87 -94t-90 -30q-51 0 -66 36.5t10 86.5z" />
    <glyph glyph-name="m" unicode="m" horiz-adv-x="763" 
d="M735 125l8 -6q-39 -64 -87.5 -94t-90.5 -30q-50 0 -65 36.5t10 86.5l124 256q13 27 13 45q0 19 -16 19q-12 0 -39.5 -14t-57.5 -43q-30 -30 -52 -69l-55 -114l-59 -122q-28 -59 -16 -78q-14 -3 -28 -3q-32 0 -49 18t-17 48q0 26 14 57l124 256q13 27 13 45q0 19 -15 19
q-12 0 -40 -14t-57 -43q-30 -29 -53 -69l-114 -236q-28 -59 -16 -78q-14 -3 -28 -3q-31 0 -48.5 18t-17.5 48q0 27 15 57l123 256q14 30 14 44q0 19 -14 19q-20 0 -58 -31l-7 8q47 38 100 38q43 0 62 -26.5t8 -66.5q74 93 159 93q45 0 67.5 -25.5t10.5 -68.5q73 94 160 94
q38 0 60 -18t22 -49q0 -25 -31 -92l-111 -230q-17 -35 -6 -45.5t35 3.5q60 30 106 104z" />
    <glyph glyph-name="n" unicode="n" horiz-adv-x="526" 
d="M497 125l9 -6q-40 -64 -88.5 -94t-89.5 -30q-51 0 -66 36.5t10 86.5l124 256q13 27 13 45q0 19 -15 19q-12 0 -40 -14t-57 -43q-30 -29 -53 -69l-114 -236q-28 -59 -16 -78q-14 -3 -28 -3q-31 0 -48.5 18t-17.5 48q0 27 15 57l123 256q14 30 14 44q0 19 -14 19
q-20 0 -58 -31l-7 8q47 38 100 38q43 0 62 -26.5t8 -66.5q74 93 159 93q38 0 60 -18t22 -49q0 -25 -31 -92l-111 -230q-17 -35 -5.5 -45.5t34.5 3.5q62 31 106 104z" />
    <glyph glyph-name="o" unicode="o" horiz-adv-x="509" 
d="M365 452q58 0 91 -33.5t33 -88.5q0 -74 -53 -153t-134.5 -130.5t-158.5 -51.5q-58 0 -90.5 33.5t-32.5 89.5q0 74 53 152.5t134 130t158 51.5zM147 5q42 0 102.5 74t103.5 167.5t43 147.5q0 48 -36 48q-46 0 -106 -72t-100.5 -164t-40.5 -151q0 -50 34 -50z" />
    <glyph glyph-name="p" unicode="p" horiz-adv-x="524" 
d="M416 452q42 0 77.5 -32t35.5 -92q0 -73 -53 -151.5t-134 -130t-158 -51.5q-29 0 -46 18t-18 46l-146 -302h-115l298 617q13 29 13 44q0 19 -14 19q-18 0 -58 -31l-6 8q48 38 99 38q35 0 54.5 -18.5t19.5 -48.5q0 -28 -14 -56l-112 -231q-16 -35 -3 -64t48 -29
q63 0 139 108q47 67 80 148t33 131q0 47 -29 50q-45 -5 -84 -47q-23 -24 -37 -54q29 24 64 8t35 -54q0 -25 -17.5 -42.5t-42.5 -17.5t-42.5 17.5t-17.5 42.5q0 53 50 107q47 50 101 50z" />
    <glyph glyph-name="q" unicode="q" horiz-adv-x="528" 
d="M124 -243l286 593q17 35 3.5 63.5t-48.5 28.5q-61 0 -139 -108q-47 -66 -80 -147t-33 -132q0 -46 30 -50q45 5 84 47q23 26 36 55q-29 -25 -64 -8.5t-35 54.5q0 25 17.5 42.5t42.5 17.5t42.5 -17.5t17.5 -42.5q0 -54 -50 -108q-47 -50 -100 -50q-43 0 -78.5 32t-35.5 92
q0 73 53 151.5t134 130t158 51.5q29 0 46.5 -18t17.5 -46l26 54h116l-247 -512q-80 -50 -178 -150q79 81 157.5 124t137.5 46t102 -11.5t66 -43.5l-96 -59q-38 48 -86 61.5t-98 -5t-97 -52.5t-94 -83h-14z" />
    <glyph glyph-name="r" unicode="r" horiz-adv-x="403" 
d="M463 392q0 -25 -17.5 -42.5t-42.5 -17.5t-42.5 17.5t-17.5 42.5q0 43 39 57q-37 -4 -80 -55q-34 -41 -64 -96l-108 -222q-28 -59 -16 -78q-14 -3 -28 -3q-31 0 -48.5 18t-17.5 48q0 27 15 57l123 256q14 28 14 44q0 19 -14 19q-20 0 -58 -31l-7 8q47 38 100 38
q42 0 61 -26t10 -66q67 99 126 99q29 0 50.5 -19t22.5 -47v-1z" />
    <glyph glyph-name="s" unicode="s" horiz-adv-x="391" 
d="M381 394q0 -47 -73 -125q38 -67 38 -115q0 -68 -63.5 -113.5t-139.5 -45.5q-51 0 -93 24.5t-42 63.5q0 25 17.5 42.5t42.5 17.5q27 0 46 -22q48 33 98 74q-36 63 -36 109q0 61 43.5 104.5t99.5 43.5q28 0 45 -16t17 -42zM143 5q44 0 81 18t37 53q0 34 -38 100q-5 8 -6 10
q-43 -35 -97 -74q17 -30 -1 -60q-19 -32 -55 -29q38 -18 79 -18zM371 394q0 22 -14 35t-38 13t-41 -15.5t-17 -41.5q0 -33 42 -107q68 74 68 116z" />
    <glyph glyph-name="t" unicode="t" horiz-adv-x="300" 
d="M258 338l-132 -275q-17 -35 -5.5 -45.5t34.5 3.5q59 29 106 103l8 -5q-39 -64 -87 -94t-90 -30q-51 0 -66 36.5t10 86.5l122 252q14 32 4.5 52t-34.5 20h-13v10q74 0 133.5 32.5t84.5 69.5h10l-49 -102h77v-10h-159q36 0 51.5 -27t-5.5 -77z" />
    <glyph glyph-name="u" unicode="u" 
d="M496 124l9 -5q-40 -64 -88.5 -94t-89.5 -30q-43 0 -60 26t-7 67q-74 -93 -158 -93q-38 0 -60 18t-22 50q0 24 31 91l106 220q14 28 14 44q0 19 -14 19q-20 0 -58 -31l-6 8q47 38 99 38q35 0 54.5 -18.5t19.5 -48.5q0 -25 -14 -56l-124 -256q-13 -26 -13 -44q0 -25 22 -19
q44 12 82 48.5t61 76.5l114 236q28 60 16 78q13 3 28 3q32 0 49 -18t17 -48q0 -24 -14 -57l-129 -266q-17 -35 -5.5 -45.5t34.5 3.5q62 31 106 103z" />
    <glyph glyph-name="v" unicode="v" horiz-adv-x="419" 
d="M364 452q32 0 48.5 -23.5t16.5 -58.5q0 -75 -56.5 -164.5t-137 -151t-147.5 -65.5l-6 8q24 38 25.5 94.5t-10 105t-24.5 103.5t-13 81q0 33 19 52t56 19q15 0 29 -3q-10 -16 1 -62.5t27.5 -113.5t16.5 -114q0 -90 -61 -145q96 41 182.5 150t88.5 202q-17 -34 -55 -34
q-25 0 -42.5 17.5t-17.5 42.5t17.5 42.5t42.5 17.5z" />
    <glyph glyph-name="w" unicode="w" horiz-adv-x="613" 
d="M558 452q31 0 48 -23.5t17 -58.5q0 -75 -56.5 -164.5t-137 -151t-147.5 -65.5l-6 8q28 46 25 118q-51 -54 -108 -88.5t-105 -37.5l-6 8q24 38 25.5 94.5t-10 105t-24.5 103.5t-13 81q0 33 19 52t56 19q15 0 29 -3q-10 -16 1 -62.5t27.5 -113.5t16.5 -114q0 -90 -61 -145
q79 34 152 115q-4 48 -25 136t-21 116q0 33 19 52t56 19q15 0 29 -3q-10 -16 1 -62.5t27.5 -113.5t16.5 -114q0 -90 -61 -145q96 41 182.5 150t88.5 202q-17 -34 -55 -34q-25 0 -42.5 17.5t-17.5 42.5t17.5 42.5t42.5 17.5z" />
    <glyph glyph-name="x" unicode="x" horiz-adv-x="602" 
d="M592 452q25 0 42.5 -17.5t17.5 -42.5t-17.5 -42.5t-42.5 -17.5q-36 0 -53 32t3 62q-31 -19 -67 -60q-61 -68 -96 -154q-28 -81 -28 -129q0 -59 40 -59q39 0 93 54q20 20 39 47l8 -6q-19 -27 -40 -48q-76 -76 -163 -76q-46 0 -73 23t-27 65q0 29 12 70q-23 -40 -56 -78
q-69 -80 -124 -80q-25 0 -42.5 17.5t-17.5 42.5t17.5 42.5t42.5 17.5q36 0 53 -31.5t-3 -61.5q34 21 67 60q60 69 94 154q28 74 28 128q0 60 -40 60q-41 0 -86 -43q-46 -46 -46 -93q0 -24 12 -37t33 -13q55 0 94 63l8 -5q-41 -68 -102 -68q-25 0 -40 16t-15 44q0 49 49 100
q30 29 73 46.5t84 17.5q46 0 73 -23t27 -65q0 -25 -13 -70q28 46 57 78q69 80 125 80z" />
    <glyph glyph-name="y" unicode="y" horiz-adv-x="423" 
d="M373 452q29 0 49.5 -23t20.5 -56q0 -26 -12.5 -53t-42.5 -59t-51.5 -52t-65.5 -58q-103 -88 -143 -136q-66 -81 -66 -153q0 -41 27 -70q27 -25 62 -25q29 0 58 17q-27 -2 -46.5 15.5t-19.5 43.5q0 25 17.5 42.5t42.5 17.5t42.5 -17.5t17.5 -42.5q0 -34 -37 -60t-75 -26
q-41 0 -69 28q-30 30 -30 77q0 83 81 173q13 92 10.5 180t-21 151.5t-44.5 63.5q-17 0 -44 -24l-6 8q49 38 99 38q44 0 72.5 -31t37.5 -77.5t12.5 -100.5t-2.5 -100q102 89 131 121q59 67 54 117q-4 -21 -20.5 -35t-38.5 -14q-25 0 -42.5 17.5t-17.5 42.5t17.5 42.5
t42.5 17.5z" />
    <glyph glyph-name="z" unicode="z" horiz-adv-x="459" 
d="M242 231q-56 -41 -87.5 -64.5t-71 -60t-60.5 -66.5q59 72 124 72q31 0 59 -15t45.5 -33t41 -33t45.5 -15q13 0 21 8q18 21 24 46q-15 -24 -42 -27t-47.5 14t-20.5 46q0 25 17.5 42.5t42.5 17.5q27 0 45 -20.5t18 -51.5q0 -47 -41.5 -87.5t-94.5 -40.5q-44 0 -103.5 40.5
t-93.5 40.5q-44 0 -61 -43l-3 -6l-9 3q10 31 33 61t66 66.5t66.5 54.5t80.5 59q93 65 144 109h-220q-22 0 -36 -14l-9 4l50 105q4 9 16 9h289l9 -4q-18 -35 -60.5 -77t-77 -68t-99.5 -72z" />
    <glyph glyph-name="braceleft" unicode="{" horiz-adv-x="345" 
d="M41 96l100 207q20 44 -18 44l5 12q17 0 33.5 10t23.5 25l96 198q38 78 116 133t148 55l-6 -12q-17 0 -33 -10t-23 -25l-98 -202q-30 -62 -87 -109.5t-118 -65.5q48 -14 57 -66t-19 -105l-100 -207q-20 -44 19 -44l-6 -12q-55 -6 -84 20t-27 67t21 87z" />
    <glyph glyph-name="bar" unicode="|" horiz-adv-x="223" 
d="M317 700h6l-297 -700h-6z" />
    <glyph glyph-name="braceright" unicode="}" horiz-adv-x="345" 
d="M424 604l-101 -207q-20 -44 19 -44l-6 -12q-17 0 -33 -10t-23 -25l-96 -198q-38 -78 -116 -133t-148 -55l5 12q39 0 57 35l97 201q31 62 87.5 110t117.5 66q-48 14 -56.5 66t19.5 105l100 207q20 44 -19 44l6 12q55 6 84 -20t27 -67t-21 -87z" />
    <glyph glyph-name="asciitilde" unicode="~" horiz-adv-x="406" 
d="M396 642l10 -6q-36 -66 -93 -66q-35 0 -88 32.5t-72 32.5q-26 0 -43 -29l-10 6q38 66 93 66q35 0 88 -32t72 -32q26 0 43 28z" />
    <glyph glyph-name="exclamdown" unicode="&#xa1;" horiz-adv-x="355" 
d="M411 692q29 -13 39.5 -44t-3.5 -59q-13 -29 -44 -39.5t-59 3.5q-29 13 -39.5 44t3.5 59q13 29 44 39.5t59 -3.5zM32 80l266 391h12l-126 -391q-9 -28 -38.5 -54t-70.5 -26q-39 0 -50.5 28t7.5 52z" />
    <glyph glyph-name="cent" unicode="&#xa2;" horiz-adv-x="566" 
d="M450 578q52 -1 84 -29.5t32 -69.5q0 -25 -17.5 -42.5t-42.5 -17.5t-42.5 17.5t-17.5 42.5t17.5 42.5t42.5 17.5q16 0 32 -9q-32 39 -93 39l-211 -438q55 3 115.5 34.5t110.5 84.5l7 -7q-52 -54 -115.5 -87.5t-122.5 -34.5l-34 -71h-14l35 71q-55 2 -85.5 35.5t-30.5 87.5
q0 64 39.5 130.5t98.5 115.5q100 85 199 88l34 72h14zM221 132l210 435q-59 -11 -132 -117q-46 -68 -76 -144.5t-30 -124.5q0 -45 28 -49z" />
    <glyph glyph-name="sterling" unicode="&#xa3;" horiz-adv-x="607" 
d="M507 700q68 0 109 -40.5t41 -95.5q0 -42 -23.5 -68t-57.5 -26q-32 0 -55 22.5t-23 54.5t23 55t55 23q43 0 67 -39q-8 38 -33 63q-41 39 -103 39q-24 0 -46.5 -15t-39 -36.5t-35.5 -58.5t-32 -68t-32.5 -78t-32.5 -76h140l-5 -12h-141q-29 -63 -58.5 -109t-63 -78.5
t-53 -48t-60.5 -41t-54 -34.5q43 18 86 17.5t78 -15t71.5 -34.5t65 -41t60 -34.5t55.5 -14.5t51 18l8 -6q-29 -43 -68.5 -65t-78.5 -22q-41 0 -84.5 23t-76 53t-70.5 58t-67 37.5t-67 -7.5l-7 10q70 51 117.5 134.5t88.5 199.5h-92l6 12h90l24 72q40 118 125 195t198 77z
" />
    <glyph glyph-name="currency" unicode="&#xa4;" horiz-adv-x="558" 
d="M511 350q0 -72 -49 -124l96 -97l-8 -8l-96 96q-54 -49 -125 -49q-72 0 -124 49l-97 -96l-8 8l96 97q-49 52 -49 124t49 124l-96 97l8 8l97 -96q52 49 124 49q71 0 125 -49l96 96l8 -8l-96 -97q49 -52 49 -124zM329 180q71 0 120.5 50t49.5 120t-49.5 120t-120.5 50
q-70 0 -120 -50t-50 -120t50 -120t120 -50z" />
    <glyph glyph-name="yen" unicode="&#xa5;" horiz-adv-x="641" 
d="M580 700h261v-12q-59 0 -98.5 -28t-86.5 -95l-152 -215h142l-6 -12h-143l-12 -25h143l-6 -12h-143l-139 -289h85v-12h-143h-82v12h74q-27 18 -27 53q0 31 34 103l64 133h-143l6 12h143l12 25h-143l6 12h138q-31 93 -74 221q-27 80 14 117h-63v12h217v-12h-39
q-26 0 -27 -31q0 -14 8 -40q33 -99 90 -267l151 215q41 59 27 91t-75 32h-13v12z" />
    <glyph glyph-name="brokenbar" unicode="&#xa6;" horiz-adv-x="230" 
d="M20 0l133 315h6l-133 -315h-6zM323 700l-134 -315h-6l134 315h6z" />
    <glyph glyph-name="section" unicode="&#xa7;" horiz-adv-x="604" 
d="M505 700q51 0 100 -29.5t49 -70.5q0 -25 -17.5 -42.5t-42.5 -17.5t-42.5 17.5t-17.5 42.5q0 28 21 46t48 14q-47 30 -98 30q-38 0 -68 -13t-30 -42q0 -24 22 -54.5t49 -56t49 -60t22 -66.5q0 -56 -44.5 -99t-111.5 -54q39 -48 39 -90q0 -64 -57.5 -109.5t-137.5 -45.5
q-54 0 -100.5 23t-46.5 65q0 25 17.5 42.5t42.5 17.5t42.5 -17.5t17.5 -42.5t-17.5 -42.5t-42.5 -17.5q41 -18 87 -18q42 0 77.5 16.5t35.5 48.5q0 24 -22.5 55t-50 56.5t-50 60.5t-22.5 67q0 56 48.5 97t116.5 46q-48 57 -48 99q0 60 55 102t128 42zM468 317
q0 15 -9.5 33.5t-18.5 29t-32 35t-30 32.5q-36 -2 -62 -15t-26 -40q0 -16 10 -34.5t21 -31.5t32.5 -36.5t31.5 -34.5q34 5 58.5 21t24.5 41z" />
    <glyph glyph-name="dieresis" unicode="&#xa8;" horiz-adv-x="316" 
d="M316 622q0 -17 -12.5 -29.5t-29.5 -12.5t-29.5 12.5t-12.5 29.5q0 18 12.5 30.5t29.5 12.5t29.5 -12.5t12.5 -30.5zM185 622q0 -17 -12.5 -29.5t-30.5 -12.5q-17 0 -29.5 12.5t-12.5 29.5q0 18 12.5 30.5t29.5 12.5q18 0 30.5 -12.5t12.5 -30.5z" />
    <glyph glyph-name="copyright" unicode="&#xa9;" horiz-adv-x="590" 
d="M340 580q95 0 162.5 -67.5t67.5 -162.5t-67.5 -162.5t-162.5 -67.5t-162.5 67.5t-67.5 162.5t67.5 162.5t162.5 67.5zM340 142q86 0 147 61t61 147t-61 147t-147 61t-147 -61t-61 -147t61 -147t147 -61zM405 482q31 0 49 -16t18 -35q0 -13 -8.5 -21.5t-20.5 -8.5
t-20.5 8.5t-8.5 21.5q0 17 14.5 25t29.5 0q-18 21 -53 21q-29 0 -64.5 -36.5t-61.5 -90.5q-24 -54 -24 -91t23 -37q62 0 123 56l3 -3q-64 -57 -126 -57q-33 0 -52 19.5t-19 51.5q0 28 15 61q25 55 79 93.5t104 38.5z" />
    <glyph glyph-name="ordfeminine" unicode="&#xaa;" horiz-adv-x="587" 
d="M70 258v12h482v-12h-482zM502 323q54 26 93 90l8 -4q-35 -57 -77.5 -83t-78.5 -26q-44 0 -57 32t9 76l97 203q15 31 3.5 55.5t-42.5 24.5q-54 0 -122 -94q-41 -57 -70 -128.5t-29 -115.5q0 -41 27 -44q38 3 73 41q22 25 32 48q-26 -22 -56.5 -7.5t-30.5 47.5
q0 22 15.5 37.5t37.5 15.5q21 0 36.5 -15.5t15.5 -37.5q0 -48 -44 -94q-41 -44 -87 -44q-38 0 -69 28t-31 81q0 64 46.5 132.5t117.5 113.5t138 45q26 0 41 -16t15 -40l23 47h101l-160 -331q-15 -31 -5 -40t30 3z" />
    <glyph glyph-name="guillemotleft" unicode="&#xab;" horiz-adv-x="458" 
d="M290 54h-16l-174 170l174 170h16l-129 -170zM408 54h-16l-174 170l174 170h16l-129 -170z" />
    <glyph glyph-name="logicalnot" unicode="&#xac;" horiz-adv-x="480" 
d="M460 343l-118 -245h-116l112 233h-318v12h324h116z" />
    <glyph glyph-name="registered" unicode="&#xae;" horiz-adv-x="590" 
d="M420 482q25 0 40.5 -14t15.5 -35q0 -31 -32.5 -58t-81.5 -36q12 -2 13 -7l8 -85q1 -25 18 -25h6v-4h-85v4h28q-8 6 -10 18l-9 95q40 8 66.5 40.5t26.5 67.5q0 15 -7.5 24.5t-20.5 9.5h-42q10 -6 10 -20q0 -16 -13 -39l-94 -196h32v-4h-54h-31v4h28q-10 6 -10 20
q0 16 13 39l83 173q11 23 0 23h-19v5h121zM340 580q95 0 162.5 -67.5t67.5 -162.5t-67.5 -162.5t-162.5 -67.5t-162.5 67.5t-67.5 162.5t67.5 162.5t162.5 67.5zM340 142q86 0 147 61t61 147t-61 147t-147 61t-147 -61t-61 -147t61 -147t147 -61z" />
    <glyph glyph-name="macron" unicode="&#xaf;" horiz-adv-x="330" 
d="M330 593v-20h-330v20h330z" />
    <glyph glyph-name="degree" unicode="&#xb0;" horiz-adv-x="250" 
d="M225 750q52 0 88.5 -36.5t36.5 -88.5t-36.5 -88.5t-88.5 -36.5t-88.5 36.5t-36.5 88.5t36.5 88.5t88.5 36.5zM225 526q41 0 70 29t29 70t-29 70t-70 29t-70 -29t-29 -70t29 -70t70 -29z" />
    <glyph glyph-name="plusminus" unicode="&#xb1;" horiz-adv-x="558" 
d="M318 227h180v-6h-183l-89 -184l-5 3l87 181h-180v6h183l89 183l5 -3zM20 -3v6h370v-6h-370z" />
    <glyph glyph-name="twosuperior" unicode="&#xb2;" horiz-adv-x="446" 
d="M417 750q44 0 76.5 -23t32.5 -65q0 -57 -66 -96q-30 -18 -88 -37.5t-106.5 -45t-81.5 -70.5q22 20 49 24t47.5 -3.5t46.5 -16t42 -8.5q31 0 47 28l6 -3l-5 -11q-13 -24 -21.5 -37.5t-29.5 -28t-47 -14.5q-25 0 -62 16t-54 16q-33 0 -46 -25h-7q6 41 38 79t73.5 67
t82.5 57t69 61.5t28 68.5q0 27 -18.5 44t-41.5 12q-49 -10 -75 -36q22 10 42.5 -3t20.5 -37q0 -19 -12.5 -32t-31.5 -13q-18 0 -31 13t-13 32q0 38 44 62.5t92 24.5z" />
    <glyph glyph-name="threesuperior" unicode="&#xb3;" horiz-adv-x="453" 
d="M526 750h7q-12 -61 -69 -103q-37 -26 -114 -57q-15 -7 -43 -19q51 3 87.5 -18t36.5 -62q0 -53 -55 -97t-122 -44q-46 0 -75 25t-29 61q0 19 13 32t31 13q19 0 31.5 -13t12.5 -32q0 -18 -12.5 -31t-31.5 -13q-16 0 -29 11q19 -38 68 -45q39 1 75 48.5t36 96.5
q0 26 -13.5 42.5t-40.5 17.5q-21 -10 -33 -19l-4 5q27 19 95 47q83 34 121 64q-34 -10 -56 -5t-52 16.5t-43 11.5q-33 0 -49 -33l-10 -20h-8l9 18l49 102h8l-37 -76q11 22 20.5 35.5t29 27t43.5 13.5q18 0 56 -15t54 -15q27 0 43 30z" />
    <glyph glyph-name="acute" unicode="&#xb4;" horiz-adv-x="352" 
d="M352 666l-246 -115l-6 10l163 131l84 -16z" />
    <glyph glyph-name="mu" unicode="&#xb5;" horiz-adv-x="595" 
d="M320 135q6 11 114 236q29 59 16 78q15 3 28 3q32 0 49.5 -18t16.5 -48q0 -28 -14 -57l-124 -256q-14 -31 -14 -44q0 -18 14 -18q9 0 33.5 13.5t48.5 37.5q28 28 48 62l9 -5q-34 -55 -79 -89.5t-94 -34.5q-36 0 -55 18.5t-19 48.5q0 12 3 27q-73 -94 -159 -94
q-38 0 -60 18t-22 50q-12 -56 -12 -156q0 -44 -22.5 -73t-46.5 -29q-22 0 -27 23t14 66l127 263l105 217q14 28 14 44q0 19 -15 19q-18 0 -58 -31l-6 8q47 38 99 38q36 0 55 -18.5t19 -48.5q0 -28 -14 -56l-123 -256q-13 -23 -13 -44q0 -25 22 -19q44 12 82 48.5t60 76.5z
" />
    <glyph glyph-name="paragraph" unicode="&#xb6;" horiz-adv-x="438" 
d="M438 700h100l-338 -700h-15l331 686h-69l-332 -686h-15l169 350q-44 0 -68.5 25.5t-24.5 68.5q0 89 86 172.5t176 83.5z" />
    <glyph glyph-name="periodcentered" unicode="&#xb7;" horiz-adv-x="345" 
d="M183 286q26 0 44 -18t18 -45q0 -26 -18 -44t-44 -18t-44.5 18t-18.5 44q0 27 18.5 45t44.5 18z" />
    <glyph glyph-name="cedilla" unicode="&#xb8;" horiz-adv-x="160" 
d="M97 -30q29 0 46 -12.5t17 -33.5q0 -30 -31 -55t-69 -25q-26 0 -43 14t-17 35h8q0 -25 23.5 -35.5t48.5 11.5q28 28 28 62q0 25 -22.5 27.5t-54.5 -21.5l-5 6v0l34 69l7 -1l-28 -59q29 18 58 18z" />
    <glyph glyph-name="onesuperior" unicode="&#xb9;" horiz-adv-x="340" 
d="M420 750l-190 -393h47v-7h-127v7h43q-16 9 -16 30q0 15 20 59l113 234h-33v7q87 6 136 63h7z" />
    <glyph glyph-name="ordmasculine" unicode="&#xba;" horiz-adv-x="516" 
d="M480 258v12h-410v-12h410zM457 701q51 0 80 -29t29 -78q0 -65 -46.5 -134.5t-118 -114.5t-139.5 -45q-50 0 -79 29.5t-29 78.5q0 65 46.5 134t117.5 114t139 45zM266 308q37 0 90 65t90.5 147t37.5 130q0 42 -31 42q-41 0 -93.5 -63t-88 -144t-35.5 -133q0 -44 30 -44z
" />
    <glyph glyph-name="guillemotright" unicode="&#xbb;" horiz-adv-x="429" 
d="M234 54h-16l130 170l-130 170h16l175 -170zM116 54h-16l130 170l-130 170h16l175 -170z" />
    <glyph glyph-name="onequarter" unicode="&#xbc;" horiz-adv-x="736" 
d="M262 356v-6h-112v6h37q-14 8 -14 26q0 14 17 52l99 205h-28v6q73 5 119 55h6l-167 -344h43zM555 700h15l-338 -700h-15zM686 350l-113 -235h54v-6h-98q13 0 19.5 -13t-2.5 -36l-26 -54h41v-6h-111v6h37q-13 8 -13 26q0 21 17 52l12 25h-114q58 42 105 105q29 39 40 69
q-18 -17 -41.5 -7t-23.5 35q0 16 11.5 27.5t27.5 11.5t27.5 -11t11.5 -28q0 -16 -13 -45q-14 -27 -36 -56q-39 -53 -91 -95h99l45 94l44 90q49 9 85 51h6z" />
    <glyph glyph-name="onehalf" unicode="&#xbd;" horiz-adv-x="752" 
d="M262 356v-6h-112v6h37q-13 8 -13 26q0 16 16 52l100 205h-29v6q73 5 119 55h6l-166 -344h42zM555 700h16l-339 -700h-15zM606 350q39 0 67.5 -20t28.5 -57q0 -48 -58 -84q-26 -16 -77 -32.5t-93.5 -39.5t-71.5 -62q20 18 43.5 21t41.5 -3.5t41 -14t37 -7.5q26 0 41 25
l5 -3l-4 -9q-8 -16 -13.5 -24.5t-16.5 -21t-25 -18.5t-31 -6q-22 0 -54.5 13.5t-47.5 13.5q-29 0 -40 -21h-6q5 36 33 69t64.5 58.5t72.5 50t60.5 53.5t24.5 60q0 24 -16 39t-37 10q-43 -9 -65 -32q19 10 37 -1.5t18 -32.5q0 -16 -11.5 -27.5t-27.5 -11.5t-27 11.5t-11 27.5
q0 33 38 54.5t80 21.5z" />
    <glyph glyph-name="threequarters" unicode="&#xbe;" horiz-adv-x="785" 
d="M604 700h15l-338 -700h-15zM735 350l-113 -235h54v-6h-98q13 0 19.5 -13t-2.5 -36l-26 -54h42v-6h-112v6h38q-14 8 -14 26q0 14 17 52l12 25h-52h-52h-10q58 42 105 105q29 39 40 69q-9 -11 -26 -11q-16 0 -27 11.5t-11 27.5t11 27.5t27 11.5q17 0 28 -11t11 -28
q0 -19 -13 -45q-13 -25 -35 -56q-44 -57 -92 -95h99l45 94l44 90q49 9 85 51h6zM396 473q0 -46 -48.5 -84.5t-106.5 -38.5q-40 0 -65.5 22t-25.5 54q0 16 11.5 27t27.5 11t27 -11t11 -27t-11 -27.5t-27 -11.5q-14 0 -26 10q16 -32 60 -40q34 1 65.5 42.5t31.5 84.5
q0 23 -12 37.5t-35 14.5q-19 -9 -29 -16l-4 4q29 20 83 41q78 34 106 56q-29 -13 -77 4t-55 17q-29 0 -43 -30l-8 -17h-7l8 16l43 89h6l-32 -67q31 67 81 67q16 0 49.5 -13t47.5 -13q23 0 37 26h6q-11 -54 -60 -90q-33 -23 -100 -50q-13 -6 -37 -16q44 2 76 -16.5t32 -54.5z
" />
    <glyph glyph-name="questiondown" unicode="&#xbf;" horiz-adv-x="518" 
d="M491 700q32 0 54.5 -23t22.5 -55t-23 -54.5t-54 -22.5q-32 0 -55 22.5t-23 54.5t23 55t55 23zM368 214q32 0 55 -23t23 -55q0 -57 -74 -96.5t-161 -39.5q-85 0 -138 39.5t-53 103.5q0 53 36 100t88 79t103.5 57.5t88 46.5t37.5 35q0 15 -18 7l-2 4q23 14 43 12
q14 0 22 -7.5t8 -20.5q0 -19 -26.5 -46.5t-64 -58.5t-75.5 -66t-64.5 -79.5t-26.5 -88.5q0 -43 27 -72t64 -29q71 10 122 44q-36 -7 -63.5 16.5t-27.5 59.5q0 32 22.5 55t54.5 23z" />
    <glyph glyph-name="Agrave" unicode="&#xc0;" horiz-adv-x="944" 
d="M860 61q52 51 89 135l11 -5q-38 -86 -94.5 -141t-120.5 -55q-61 0 -92 47.5t-31 127.5q0 36 9 79q-37 -16 -68 -35q-34 -20 -67.5 -47.5t-52 -46.5t-39.5 -41.5t-22 -23.5l-8 8q56 62 79 143q-79 -114 -172 -168q-73 -43 -144 -43q-59 0 -93 34t-34 90q0 57 30.5 112.5
t78.5 99.5q51 47 110 74t113 27q90 0 120 -74q19 -44 13 -99q5 8 32.5 48t37.5 54.5t35 49t41 54t39 46t44 47.5q135 133 279 142l1 -12q-59 -65 -121.5 -176.5t-96.5 -221.5q56 0 111 -18l-4 -11q-53 18 -111 16q-26 -89 -26 -156q0 -99 48 -99q35 0 76 39zM275 48
q93 54 185 189q12 67 -9 117q-29 66 -109 66q-110 0 -215 -97q-46 -42 -75.5 -96t-29.5 -108q0 -51 30.5 -81.5t84.5 -30.5q67 0 138 41zM557 224q37 24 77 39q23 101 80.5 209t124.5 173q-63 -32 -127 -96q-33 -32 -70.5 -79t-55 -71t-65 -93t-50.5 -74q-8 -50 -36 -104
q55 55 122 96zM1008 800l-188 118l6 9l90 14l102 -135z" />
    <glyph glyph-name="Aacute" unicode="&#xc1;" horiz-adv-x="944" 
d="M860 61q52 51 89 135l11 -5q-38 -86 -94.5 -141t-120.5 -55q-61 0 -92 47.5t-31 127.5q0 36 9 79q-37 -16 -68 -35q-34 -20 -67.5 -47.5t-52 -46.5t-39.5 -41.5t-22 -23.5l-8 8q56 62 79 143q-79 -114 -172 -168q-73 -43 -144 -43q-59 0 -93 34t-34 90q0 57 30.5 112.5
t78.5 99.5q51 47 110 74t113 27q90 0 120 -74q19 -44 13 -99q5 8 32.5 48t37.5 54.5t35 49t41 54t39 46t44 47.5q135 133 279 142l1 -12q-59 -65 -121.5 -176.5t-96.5 -221.5q56 0 111 -18l-4 -11q-53 18 -111 16q-26 -89 -26 -156q0 -99 48 -99q35 0 76 39zM275 48
q93 54 185 189q12 67 -9 117q-29 66 -109 66q-110 0 -215 -97q-46 -42 -75.5 -96t-29.5 -108q0 -51 30.5 -81.5t84.5 -30.5q67 0 138 41zM557 224q37 24 77 39q23 101 80.5 209t124.5 173q-63 -32 -127 -96q-33 -32 -70.5 -79t-55 -71t-65 -93t-50.5 -74q-8 -50 -36 -104
q55 55 122 96zM1040 915l-246 -115l-6 10l163 131l84 -16z" />
    <glyph glyph-name="Acircumflex" unicode="&#xc2;" horiz-adv-x="944" 
d="M860 61q52 51 89 135l11 -5q-38 -86 -94.5 -141t-120.5 -55q-61 0 -92 47.5t-31 127.5q0 36 9 79q-37 -16 -68 -35q-34 -20 -67.5 -47.5t-52 -46.5t-39.5 -41.5t-22 -23.5l-8 8q56 62 79 143q-79 -114 -172 -168q-73 -43 -144 -43q-59 0 -93 34t-34 90q0 57 30.5 112.5
t78.5 99.5q51 47 110 74t113 27q90 0 120 -74q19 -44 13 -99q5 8 32.5 48t37.5 54.5t35 49t41 54t39 46t44 47.5q135 133 279 142l1 -12q-59 -65 -121.5 -176.5t-96.5 -221.5q56 0 111 -18l-4 -11q-53 18 -111 16q-26 -89 -26 -156q0 -99 48 -99q35 0 76 39zM275 48
q93 54 185 189q12 67 -9 117q-29 66 -109 66q-110 0 -215 -97q-46 -42 -75.5 -96t-29.5 -108q0 -51 30.5 -81.5t84.5 -30.5q67 0 138 41zM557 224q37 24 77 39q23 101 80.5 209t124.5 173q-63 -32 -127 -96q-33 -32 -70.5 -79t-55 -71t-65 -93t-50.5 -74q-8 -50 -36 -104
q55 55 122 96zM729 800l-6 10l188 131h42l57 -131l-10 -5l-90 81z" />
    <glyph glyph-name="Atilde" unicode="&#xc3;" horiz-adv-x="944" 
d="M860 61q52 51 89 135l11 -5q-38 -86 -94.5 -141t-120.5 -55q-61 0 -92 47.5t-31 127.5q0 36 9 79q-37 -16 -68 -35q-34 -20 -67.5 -47.5t-52 -46.5t-39.5 -41.5t-22 -23.5l-8 8q56 62 79 143q-79 -114 -172 -168q-73 -43 -144 -43q-59 0 -93 34t-34 90q0 57 30.5 112.5
t78.5 99.5q51 47 110 74t113 27q90 0 120 -74q19 -44 13 -99q5 8 32.5 48t37.5 54.5t35 49t41 54t39 46t44 47.5q135 133 279 142l1 -12q-59 -65 -121.5 -176.5t-96.5 -221.5q56 0 111 -18l-4 -11q-53 18 -111 16q-26 -89 -26 -156q0 -99 48 -99q35 0 76 39zM275 48
q93 54 185 189q12 67 -9 117q-29 66 -109 66q-110 0 -215 -97q-46 -42 -75.5 -96t-29.5 -108q0 -51 30.5 -81.5t84.5 -30.5q67 0 138 41zM557 224q37 24 77 39q23 101 80.5 209t124.5 173q-63 -32 -127 -96q-33 -32 -70.5 -79t-55 -71t-65 -93t-50.5 -74q-8 -50 -36 -104
q55 55 122 96zM1056 888l10 -6q-36 -66 -93 -66q-35 0 -88 32.5t-72 32.5q-26 0 -43 -29l-10 6q38 66 93 66q35 0 88 -32t72 -32q26 0 43 28z" />
    <glyph glyph-name="Adieresis" unicode="&#xc4;" horiz-adv-x="944" 
d="M860 61q52 51 89 135l11 -5q-38 -86 -94.5 -141t-120.5 -55q-61 0 -92 47.5t-31 127.5q0 36 9 79q-37 -16 -68 -35q-34 -20 -67.5 -47.5t-52 -46.5t-39.5 -41.5t-22 -23.5l-8 8q56 62 79 143q-79 -114 -172 -168q-73 -43 -144 -43q-59 0 -93 34t-34 90q0 57 30.5 112.5
t78.5 99.5q51 47 110 74t113 27q90 0 120 -74q19 -44 13 -99q5 8 32.5 48t37.5 54.5t35 49t41 54t39 46t44 47.5q135 133 279 142l1 -12q-59 -65 -121.5 -176.5t-96.5 -221.5q56 0 111 -18l-4 -11q-53 18 -111 16q-26 -89 -26 -156q0 -99 48 -99q35 0 76 39zM275 48
q93 54 185 189q12 67 -9 117q-29 66 -109 66q-110 0 -215 -97q-46 -42 -75.5 -96t-29.5 -108q0 -51 30.5 -81.5t84.5 -30.5q67 0 138 41zM557 224q37 24 77 39q23 101 80.5 209t124.5 173q-63 -32 -127 -96q-33 -32 -70.5 -79t-55 -71t-65 -93t-50.5 -74q-8 -50 -36 -104
q55 55 122 96zM1031 870q0 -17 -12.5 -29.5t-29.5 -12.5t-29.5 12.5t-12.5 29.5q0 18 12.5 30.5t29.5 12.5t29.5 -12.5t12.5 -30.5zM900 870q0 -17 -12.5 -29.5t-30.5 -12.5q-17 0 -29.5 12.5t-12.5 29.5q0 18 12.5 30.5t29.5 12.5q18 0 30.5 -12.5t12.5 -30.5z" />
    <glyph glyph-name="Aring" unicode="&#xc5;" horiz-adv-x="944" 
d="M860 61q52 51 89 135l11 -5q-38 -86 -94.5 -141t-120.5 -55q-61 0 -92 47.5t-31 127.5q0 36 9 79q-37 -16 -68 -35q-34 -20 -67.5 -47.5t-52 -46.5t-39.5 -41.5t-22 -23.5l-8 8q56 62 79 143q-79 -114 -172 -168q-73 -43 -144 -43q-59 0 -93 34t-34 90q0 57 30.5 112.5
t78.5 99.5q51 47 110 74t113 27q90 0 120 -74q19 -44 13 -99q5 8 32.5 48t37.5 54.5t35 49t41 54t39 46t44 47.5q135 133 279 142l1 -12q-59 -65 -121.5 -176.5t-96.5 -221.5q56 0 111 -18l-4 -11q-53 18 -111 16q-26 -89 -26 -156q0 -99 48 -99q35 0 76 39zM275 48
q93 54 185 189q12 67 -9 117q-29 66 -109 66q-110 0 -215 -97q-46 -42 -75.5 -96t-29.5 -108q0 -51 30.5 -81.5t84.5 -30.5q67 0 138 41zM557 224q37 24 77 39q23 101 80.5 209t124.5 173q-63 -32 -127 -96q-33 -32 -70.5 -79t-55 -71t-65 -93t-50.5 -74q-8 -50 -36 -104
q55 55 122 96zM888 941q29 0 50 -20.5t21 -49.5t-21 -50t-50 -21t-49.5 21t-20.5 50t20.5 49.5t49.5 20.5zM888 820q21 0 36 15t15 36t-15 35.5t-36 14.5t-35.5 -14.5t-14.5 -35.5t14.5 -36t35.5 -15z" />
    <glyph glyph-name="AE" unicode="&#xc6;" horiz-adv-x="0" 
 />
    <glyph glyph-name="Ccedilla" unicode="&#xc7;" horiz-adv-x="651" 
d="M568 367q-32 0 -55 22.5t-23 54.5t23 55t55 23t54.5 -23t22.5 -55q0 -36 -27 -58q52 15 86 50q55 53 55 121q0 56 -45 93q-46 38 -116 38q-62 0 -135 -63t-131 -152t-97 -191t-39 -176q0 -46 15.5 -72.5t46.5 -26.5q77 0 165 39.5t165 109.5l8 -8q-78 -71 -167.5 -112
t-170.5 -41q-88 0 -138 51.5t-50 137.5q0 117 81.5 238.5t205.5 199.5t241 78q74 0 123.5 -40.5t49.5 -102.5q0 -72 -59.5 -131t-143.5 -59zM248 -30q29 0 46 -12.5t17 -33.5q0 -30 -31.5 -55t-68.5 -25q-26 0 -43 14t-17 35h8q0 -25 23.5 -35.5t48.5 11.5q28 28 28 62
q0 25 -22.5 27.5t-54.5 -21.5l-5 6v0l34 69l7 -1l-28 -59q29 18 58 18z" />
    <glyph glyph-name="Egrave" unicode="&#xc8;" horiz-adv-x="769" 
d="M718 595q32 0 54.5 -23t22.5 -55q0 -17 -6 -31q38 38 38 84q0 47 -35.5 79.5t-88.5 32.5q-81 0 -159.5 -80t-78.5 -167q0 -45 31 -71.5t87 -26.5l-6 -12q-92 0 -185.5 -62.5t-152 -156.5t-58.5 -182q0 -66 39 -101.5t102 -35.5q54 0 133 40q93 47 161.5 119.5t88.5 147.5
q-25 -27 -59 -27q-32 0 -55 23t-23 55t23 54.5t55 22.5t54.5 -22.5t22.5 -54.5q0 -89 -74.5 -180.5t-189.5 -149.5t-226 -58q-102 0 -157.5 50.5t-55.5 130.5q0 88 64.5 174.5t166 145.5t210.5 73q-52 8 -84.5 41t-32.5 80q0 90 107 169t231 79q71 0 114 -38t43 -92
q0 -51 -41 -92q-38 -38 -80 -38q-32 0 -55 22.5t-23 54.5t23 55t55 23zM839 800l-188 118l6 9l90 14l102 -135z" />
    <glyph glyph-name="Eacute" unicode="&#xc9;" horiz-adv-x="769" 
d="M718 595q32 0 54.5 -23t22.5 -55q0 -17 -6 -31q38 38 38 84q0 47 -35.5 79.5t-88.5 32.5q-81 0 -159.5 -80t-78.5 -167q0 -45 31 -71.5t87 -26.5l-6 -12q-92 0 -185.5 -62.5t-152 -156.5t-58.5 -182q0 -66 39 -101.5t102 -35.5q54 0 133 40q93 47 161.5 119.5t88.5 147.5
q-25 -27 -59 -27q-32 0 -55 23t-23 55t23 54.5t55 22.5t54.5 -22.5t22.5 -54.5q0 -89 -74.5 -180.5t-189.5 -149.5t-226 -58q-102 0 -157.5 50.5t-55.5 130.5q0 88 64.5 174.5t166 145.5t210.5 73q-52 8 -84.5 41t-32.5 80q0 90 107 169t231 79q71 0 114 -38t43 -92
q0 -51 -41 -92q-38 -38 -80 -38q-32 0 -55 22.5t-23 54.5t23 55t55 23zM878 915l-246 -115l-6 10l163 131l84 -16z" />
    <glyph glyph-name="Ecircumflex" unicode="&#xca;" horiz-adv-x="769" 
d="M718 595q32 0 54.5 -23t22.5 -55q0 -17 -6 -31q38 38 38 84q0 47 -35.5 79.5t-88.5 32.5q-81 0 -159.5 -80t-78.5 -167q0 -45 31 -71.5t87 -26.5l-6 -12q-92 0 -185.5 -62.5t-152 -156.5t-58.5 -182q0 -66 39 -101.5t102 -35.5q54 0 133 40q93 47 161.5 119.5t88.5 147.5
q-25 -27 -59 -27q-32 0 -55 23t-23 55t23 54.5t55 22.5t54.5 -22.5t22.5 -54.5q0 -89 -74.5 -180.5t-189.5 -149.5t-226 -58q-102 0 -157.5 50.5t-55.5 130.5q0 88 64.5 174.5t166 145.5t210.5 73q-52 8 -84.5 41t-32.5 80q0 90 107 169t231 79q71 0 114 -38t43 -92
q0 -51 -41 -92q-38 -38 -80 -38q-32 0 -55 22.5t-23 54.5t23 55t55 23zM602 800l-6 10l188 131h42l57 -131l-10 -5l-90 81z" />
    <glyph glyph-name="Edieresis" unicode="&#xcb;" horiz-adv-x="769" 
d="M718 595q32 0 54.5 -23t22.5 -55q0 -17 -6 -31q38 38 38 84q0 47 -35.5 79.5t-88.5 32.5q-81 0 -159.5 -80t-78.5 -167q0 -45 31 -71.5t87 -26.5l-6 -12q-92 0 -185.5 -62.5t-152 -156.5t-58.5 -182q0 -66 39 -101.5t102 -35.5q54 0 133 40q93 47 161.5 119.5t88.5 147.5
q-25 -27 -59 -27q-32 0 -55 23t-23 55t23 54.5t55 22.5t54.5 -22.5t22.5 -54.5q0 -89 -74.5 -180.5t-189.5 -149.5t-226 -58q-102 0 -157.5 50.5t-55.5 130.5q0 88 64.5 174.5t166 145.5t210.5 73q-52 8 -84.5 41t-32.5 80q0 90 107 169t231 79q71 0 114 -38t43 -92
q0 -51 -41 -92q-38 -38 -80 -38q-32 0 -55 22.5t-23 54.5t23 55t55 23zM862 870q0 -17 -12.5 -29.5t-29.5 -12.5t-29.5 12.5t-12.5 29.5q0 18 12.5 30.5t29.5 12.5t29.5 -12.5t12.5 -30.5zM731 870q0 -17 -12.5 -29.5t-30.5 -12.5q-17 0 -29.5 12.5t-12.5 29.5
q0 18 12.5 30.5t29.5 12.5q18 0 30.5 -12.5t12.5 -30.5z" />
    <glyph glyph-name="Igrave" unicode="&#xcc;" horiz-adv-x="636" 
d="M674 700h181v-12h-73q-36 -73 -91 -186q-126 -263 -239 -375q-130 -132 -277 -132q-74 0 -119.5 39.5t-45.5 106.5q0 88 74 179t182 145q5 42 30 79q30 44 86 81q120 75 292 75zM342 369q-32 0 -55 23t-22 59q-87 -45 -150 -114q-93 -99 -93 -196q0 -62 42 -98
q32 -27 74 -27q81 0 166 85q64 63 122 163q46 78 99.5 194.5t88.5 167.5t84 62h-24q-171 0 -285 -74q-76 -46 -102 -113q23 23 55 23t55 -22.5t23 -54.5t-23 -55t-55 -23zM879 800l-188 118l6 9l90 14l102 -135z" />
    <glyph glyph-name="Iacute" unicode="&#xcd;" horiz-adv-x="636" 
d="M674 700h181v-12h-73q-36 -73 -91 -186q-126 -263 -239 -375q-130 -132 -277 -132q-74 0 -119.5 39.5t-45.5 106.5q0 88 74 179t182 145q5 42 30 79q30 44 86 81q120 75 292 75zM342 369q-32 0 -55 23t-22 59q-87 -45 -150 -114q-93 -99 -93 -196q0 -62 42 -98
q32 -27 74 -27q81 0 166 85q64 63 122 163q46 78 99.5 194.5t88.5 167.5t84 62h-24q-171 0 -285 -74q-76 -46 -102 -113q23 23 55 23t55 -22.5t23 -54.5t-23 -55t-55 -23zM899 915l-246 -115l-6 10l163 131l84 -16z" />
    <glyph glyph-name="Icircumflex" unicode="&#xce;" horiz-adv-x="636" 
d="M674 700h181v-12h-73q-36 -73 -91 -186q-126 -263 -239 -375q-130 -132 -277 -132q-74 0 -119.5 39.5t-45.5 106.5q0 88 74 179t182 145q5 42 30 79q30 44 86 81q120 75 292 75zM342 369q-32 0 -55 23t-22 59q-87 -45 -150 -114q-93 -99 -93 -196q0 -62 42 -98
q32 -27 74 -27q81 0 166 85q64 63 122 163q46 78 99.5 194.5t88.5 167.5t84 62h-24q-171 0 -285 -74q-76 -46 -102 -113q23 23 55 23t55 -22.5t23 -54.5t-23 -55t-55 -23zM615 800l-6 10l188 131h42l57 -131l-10 -5l-90 81z" />
    <glyph glyph-name="Idieresis" unicode="&#xcf;" horiz-adv-x="636" 
d="M674 700h181v-12h-73q-36 -73 -91 -186q-126 -263 -239 -375q-130 -132 -277 -132q-74 0 -119.5 39.5t-45.5 106.5q0 88 74 179t182 145q5 42 30 79q30 44 86 81q120 75 292 75zM342 369q-32 0 -55 23t-22 59q-87 -45 -150 -114q-93 -99 -93 -196q0 -62 42 -98
q32 -27 74 -27q81 0 166 85q64 63 122 163q46 78 99.5 194.5t88.5 167.5t84 62h-24q-171 0 -285 -74q-76 -46 -102 -113q23 23 55 23t55 -22.5t23 -54.5t-23 -55t-55 -23zM884 870q0 -17 -12.5 -29.5t-29.5 -12.5t-29.5 12.5t-12.5 29.5q0 18 12.5 30.5t29.5 12.5
t29.5 -12.5t12.5 -30.5zM753 870q0 -17 -12.5 -29.5t-30.5 -12.5q-17 0 -29.5 12.5t-12.5 29.5q0 18 12.5 30.5t29.5 12.5q18 0 30.5 -12.5t12.5 -30.5z" />
    <glyph glyph-name="Eth" unicode="&#xd0;" horiz-adv-x="1081" 
d="M874 700q99 0 168.5 -67t69.5 -175q0 -98 -65 -197t-162.5 -170.5t-215 -116.5t-219.5 -45q-136 0 -179 81q-47 -15 -96 -15q-74 0 -119.5 39.5t-45.5 106.5q0 87 71.5 176t176.5 144q9 93 132 164q117 67 275 74q36 34 80 34h59q-2 -3 -7 -14t-9 -19h86zM138 16
q81 0 166 85q72 71 142 198q12 21 -2 36t-43 15q29 1 59 17.5t44 43.5q13 26 39 82t38.5 82t32.5 59t38 52q-52 -3 -112 -16q-79 -19 -144 -56q-84 -47 -113 -109q22 20 51 20q32 0 55 -22.5t23 -54.5t-23 -55t-55 -23t-54.5 22.5t-22.5 54.5q-81 -44 -142 -110
q-93 -99 -93 -196q0 -62 42 -98q32 -27 74 -27zM641 401q-11 -21 4 -36t44 -15q-30 -1 -62 -17.5t-49 -42.5q-62 -100 -126 -163q-80 -82 -170 -113q15 -27 44 -44q42 -26 99 -26q84 0 181 53t175 133t130 181.5t52 191.5q0 83 -36.5 133.5t-104.5 51.5h-40
q-11 -23 -89 -183q-16 -34 -52 -104z" />
    <glyph glyph-name="Ntilde" unicode="&#xd1;" horiz-adv-x="918" 
d="M1118 700v-12q-51 0 -94.5 -28.5t-68.5 -80.5l-243 -502q-11 -23 2.5 -44t38.5 -21h24v-12h-131q-26 0 -44 19.5t-15 45.5l50 464q-46 -157 -138 -291q-73 -109 -159 -172q-98 -71 -197 -71q-61 0 -98 34q-35 35 -35 90q0 46 24 97q43 89 138 153q82 54 162 62
q-8 33 10 76q26 69 103 121q106 72 218 72h45q26 0 44 -19.5t15 -45.5l-56 -529l231 479q21 41 5.5 72t-64.5 31h-8v12h241zM600 458q39 103 49 187l4 43q-105 -5 -199 -70q-75 -51 -100 -117q23 23 56 23q32 0 54.5 -22.5t22.5 -54.5t-22.5 -55t-54.5 -23q-24 0 -44.5 14
t-28.5 36q-84 -8 -168 -67.5t-124 -140.5q-23 -49 -23 -92q0 -50 31 -81q34 -31 90 -31q95 0 190 68q84 63 156 169q66 96 111 214zM1047 888l10 -6q-36 -66 -93 -66q-35 0 -88 32.5t-72 32.5q-26 0 -43 -29l-10 6q38 66 93 66q35 0 88 -32t72 -32q26 0 43 28z" />
    <glyph glyph-name="Ograve" unicode="&#xd2;" horiz-adv-x="719" 
d="M715 800l-188 118l6 9l90 14l102 -135zM443 370q-36 0 -59 27.5t-23 66.5q0 78 71 157q74 79 165 79q79 0 125.5 -52t46.5 -135q0 -88 -49.5 -182.5t-125 -167.5t-171.5 -120.5t-184 -47.5q-89 0 -139 52t-50 138q0 152 133.5 305.5t302.5 199.5l4 -8q-35 -19 -66 -53
q-30 -32 -51 -73q-86 -103 -141.5 -232.5t-55.5 -217.5q0 -47 17.5 -73t50.5 -26q78 0 172 100.5t158 234.5t68 232q1 51 -20.5 78t-57.5 27q-62 0 -123 -66q-56 -60 -66 -130q20 42 68 42q32 0 55 -22.5t23 -54.5t-23 -55t-55 -23z" />
    <glyph glyph-name="Oacute" unicode="&#xd3;" horiz-adv-x="719" 
d="M788 915l-246 -115l-6 10l163 131l84 -16zM443 370q-36 0 -59 27.5t-23 66.5q0 78 71 157q74 79 165 79q79 0 125.5 -52t46.5 -135q0 -88 -49.5 -182.5t-125 -167.5t-171.5 -120.5t-184 -47.5q-89 0 -139 52t-50 138q0 152 133.5 305.5t302.5 199.5l4 -8q-35 -19 -66 -53
q-30 -32 -51 -73q-86 -103 -141.5 -232.5t-55.5 -217.5q0 -47 17.5 -73t50.5 -26q78 0 172 100.5t158 234.5t68 232q1 51 -20.5 78t-57.5 27q-62 0 -123 -66q-56 -60 -66 -130q20 42 68 42q32 0 55 -22.5t23 -54.5t-23 -55t-55 -23z" />
    <glyph glyph-name="Ocircumflex" unicode="&#xd4;" horiz-adv-x="719" 
d="M501 800l-6 10l188 131h42l57 -131l-10 -5l-90 81zM443 370q-36 0 -59 27.5t-23 66.5q0 78 71 157q74 79 165 79q79 0 125.5 -52t46.5 -135q0 -88 -49.5 -182.5t-125 -167.5t-171.5 -120.5t-184 -47.5q-89 0 -139 52t-50 138q0 152 133.5 305.5t302.5 199.5l4 -8
q-35 -19 -66 -53q-30 -32 -51 -73q-86 -103 -141.5 -232.5t-55.5 -217.5q0 -47 17.5 -73t50.5 -26q78 0 172 100.5t158 234.5t68 232q1 51 -20.5 78t-57.5 27q-62 0 -123 -66q-56 -60 -66 -130q20 42 68 42q32 0 55 -22.5t23 -54.5t-23 -55t-55 -23z" />
    <glyph glyph-name="Otilde" unicode="&#xd5;" horiz-adv-x="719" 
d="M782 888l10 -6q-36 -66 -93 -66q-35 0 -88 32.5t-72 32.5q-26 0 -43 -29l-10 6q38 66 93 66q35 0 88 -32t72 -32q26 0 43 28zM443 370q-36 0 -59 27.5t-23 66.5q0 78 71 157q74 79 165 79q79 0 125.5 -52t46.5 -135q0 -88 -49.5 -182.5t-125 -167.5t-171.5 -120.5
t-184 -47.5q-89 0 -139 52t-50 138q0 152 133.5 305.5t302.5 199.5l4 -8q-35 -19 -66 -53q-30 -32 -51 -73q-86 -103 -141.5 -232.5t-55.5 -217.5q0 -47 17.5 -73t50.5 -26q78 0 172 100.5t158 234.5t68 232q1 51 -20.5 78t-57.5 27q-62 0 -123 -66q-56 -60 -66 -130
q20 42 68 42q32 0 55 -22.5t23 -54.5t-23 -55t-55 -23z" />
    <glyph glyph-name="Odieresis" unicode="&#xd6;" horiz-adv-x="719" 
d="M746 870q0 -17 -12.5 -29.5t-29.5 -12.5t-29.5 12.5t-12.5 29.5q0 18 12.5 30.5t29.5 12.5t29.5 -12.5t12.5 -30.5zM615 870q0 -17 -12.5 -29.5t-30.5 -12.5q-17 0 -29.5 12.5t-12.5 29.5q0 18 12.5 30.5t29.5 12.5q18 0 30.5 -12.5t12.5 -30.5zM443 370q-36 0 -59 27.5
t-23 66.5q0 78 71 157q74 79 165 79q79 0 125.5 -52t46.5 -135q0 -88 -49.5 -182.5t-125 -167.5t-171.5 -120.5t-184 -47.5q-89 0 -139 52t-50 138q0 152 133.5 305.5t302.5 199.5l4 -8q-35 -19 -66 -53q-30 -32 -51 -73q-86 -103 -141.5 -232.5t-55.5 -217.5
q0 -47 17.5 -73t50.5 -26q78 0 172 100.5t158 234.5t68 232q1 51 -20.5 78t-57.5 27q-62 0 -123 -66q-56 -60 -66 -130q20 42 68 42q32 0 55 -22.5t23 -54.5t-23 -55t-55 -23z" />
    <glyph glyph-name="multiply" unicode="&#xd7;" horiz-adv-x="479" 
d="M417 377l-193 -154l113 -153l-4 -4l-114 153l-193 -153l-4 4l193 154l-114 153l5 4l114 -153l193 154z" />
    <glyph glyph-name="Oslash" unicode="&#xd8;" horiz-adv-x="720" 
d="M770 696l-51 -51q47 -50 47 -134q0 -117 -81.5 -238.5t-205.5 -199.5t-241 -78q-82 0 -133 46l-51 -51l-8 9l51 51q-47 50 -47 134q0 117 81.5 238.5t205.5 199.5t241 78q83 0 132 -46l52 50zM242 347q-59 -126 -65 -219l463 456q2 104 -68 104q-73 0 -168 -98.5
t-162 -242.5zM574 347q59 128 65 220l-463 -457q-2 -103 68 -103q72 0 167.5 98.5t162.5 241.5z" />
    <glyph glyph-name="Ugrave" unicode="&#xd9;" horiz-adv-x="820" 
d="M80 447q0 45 28 93q25 43 74 81q48 36 108 57q62 22 131 22h178v-12h-75q38 -24 23 -85q-3 -13 -29 -71l-206 -426q-20 -40 -20 -65q0 -27 23 -27q33 0 86 39q67 50 118 138q1 3 2.5 6t4.5 8t11.5 23t20.5 44l166 343q27 56 -1 73h-46v12h223v-12h-74q37 -24 23 -85
q-3 -9 -30 -71l-206 -426q-19 -41 -19 -65q0 -27 22 -27q32 0 87 39q65 48 118 138l10 -6q-53 -91 -120 -140.5t-132 -49.5q-46 0 -71 24.5t-25 60.5q0 23 8 47q-101 -132 -214 -132q-46 0 -70.5 24t-24.5 61q0 10 2 21.5t3.5 19t7.5 21l8 18t10 22t10 20.5l200 413
q26 55 -2 73q-110 0 -200 -55.5t-119 -131.5q23 23 55 23t55 -22.5t23 -54.5t-23 -55t-55 -23t-54.5 23t-22.5 55zM788 800l-188 118l6 9l90 14l102 -135z" />
    <glyph glyph-name="Uacute" unicode="&#xda;" horiz-adv-x="820" 
d="M80 447q0 45 28 93q25 43 74 81q48 36 108 57q62 22 131 22h178v-12h-75q38 -24 23 -85q-3 -13 -29 -71l-206 -426q-20 -40 -20 -65q0 -27 23 -27q33 0 86 39q67 50 118 138q1 3 2.5 6t4.5 8t11.5 23t20.5 44l166 343q27 56 -1 73h-46v12h223v-12h-74q37 -24 23 -85
q-3 -9 -30 -71l-206 -426q-19 -41 -19 -65q0 -27 22 -27q32 0 87 39q65 48 118 138l10 -6q-53 -91 -120 -140.5t-132 -49.5q-46 0 -71 24.5t-25 60.5q0 23 8 47q-101 -132 -214 -132q-46 0 -70.5 24t-24.5 61q0 10 2 21.5t3.5 19t7.5 21l8 18t10 22t10 20.5l200 413
q26 55 -2 73q-110 0 -200 -55.5t-119 -131.5q23 23 55 23t55 -22.5t23 -54.5t-23 -55t-55 -23t-54.5 23t-22.5 55zM862 915l-246 -115l-6 10l163 131l84 -16z" />
    <glyph glyph-name="Ucircumflex" unicode="&#xdb;" horiz-adv-x="820" 
d="M80 447q0 45 28 93q25 43 74 81q48 36 108 57q62 22 131 22h178v-12h-75q38 -24 23 -85q-3 -13 -29 -71l-206 -426q-20 -40 -20 -65q0 -27 23 -27q33 0 86 39q67 50 118 138q1 3 2.5 6t4.5 8t11.5 23t20.5 44l166 343q27 56 -1 73h-46v12h223v-12h-74q37 -24 23 -85
q-3 -9 -30 -71l-206 -426q-19 -41 -19 -65q0 -27 22 -27q32 0 87 39q65 48 118 138l10 -6q-53 -91 -120 -140.5t-132 -49.5q-46 0 -71 24.5t-25 60.5q0 23 8 47q-101 -132 -214 -132q-46 0 -70.5 24t-24.5 61q0 10 2 21.5t3.5 19t7.5 21l8 18t10 22t10 20.5l200 413
q26 55 -2 73q-110 0 -200 -55.5t-119 -131.5q23 23 55 23t55 -22.5t23 -54.5t-23 -55t-55 -23t-54.5 23t-22.5 55zM590 800l-6 10l188 131h42l57 -131l-10 -5l-90 81z" />
    <glyph glyph-name="Udieresis" unicode="&#xdc;" horiz-adv-x="820" 
d="M80 447q0 45 28 93q25 43 74 81q48 36 108 57q62 22 131 22h178v-12h-75q38 -24 23 -85q-3 -13 -29 -71l-206 -426q-20 -40 -20 -65q0 -27 23 -27q33 0 86 39q67 50 118 138q1 3 2.5 6t4.5 8t11.5 23t20.5 44l166 343q27 56 -1 73h-46v12h223v-12h-74q37 -24 23 -85
q-3 -9 -30 -71l-206 -426q-19 -41 -19 -65q0 -27 22 -27q32 0 87 39q65 48 118 138l10 -6q-53 -91 -120 -140.5t-132 -49.5q-46 0 -71 24.5t-25 60.5q0 23 8 47q-101 -132 -214 -132q-46 0 -70.5 24t-24.5 61q0 10 2 21.5t3.5 19t7.5 21l8 18t10 22t10 20.5l200 413
q26 55 -2 73q-110 0 -200 -55.5t-119 -131.5q23 23 55 23t55 -22.5t23 -54.5t-23 -55t-55 -23t-54.5 23t-22.5 55zM809 870q0 -17 -12.5 -29.5t-29.5 -12.5t-29.5 12.5t-12.5 29.5q0 18 12.5 30.5t29.5 12.5t29.5 -12.5t12.5 -30.5zM678 870q0 -17 -12.5 -29.5t-30.5 -12.5
q-17 0 -29.5 12.5t-12.5 29.5q0 18 12.5 30.5t29.5 12.5q18 0 30.5 -12.5t12.5 -30.5z" />
    <glyph glyph-name="Yacute" unicode="&#xdd;" horiz-adv-x="657" 
d="M596 700h261v-12q-59 0 -98.5 -28t-86.5 -95l-156 -222l-160 -331h82v-12h-140h-82v12h74q-27 18 -27 53q0 31 34 103l85 176q5 31 -36 130.5t-41 134.5q0 70 59 79q-95 0 -182 -74q-61 -52 -81 -115q22 25 56 25q32 0 55 -22.5t23 -54.5t-23 -55t-55 -23t-54.5 23
t-22.5 55q0 97 94 177q92 76 190 76h139v-12h-73q-17 -10 -17 -37q0 -33 48 -149t40 -158l156 221q41 59 27 91t-75 32h-13v12zM744 915l-246 -115l-6 10l163 131l84 -16z" />
    <glyph glyph-name="Thorn" unicode="&#xde;" horiz-adv-x="503" 
d="M483 605q70 0 97.5 -44.5t-3.5 -106.5t-102.5 -106t-141.5 -44h-93l-40 -84h82v-12h-140h-82v12h74q-27 18 -27 53t34 103l121 251q9 19 11.5 33t-1 21t-11.5 7h-49v12h219v-12h-74q27 -18 27 -53q0 -10 -4 -30h103zM449 454q30 62 20 101.5t-54 39.5h-38q-7 -23 -27 -63
l-105 -218h25q45 0 97 40t82 100z" />
    <glyph glyph-name="germandbls" unicode="&#xdf;" horiz-adv-x="543" 
d="M523 632q0 -31 -18.5 -63t-41 -56t-41 -59t-18.5 -69q0 -24 18 -54t39.5 -54.5t39.5 -58.5t18 -64q0 -69 -62 -114t-142 -45q-51 0 -92 25t-41 63q0 25 17.5 42.5t42.5 17.5t42.5 -17.5t17.5 -42.5q0 -26 -19 -44t-45 -16q36 -18 77 -18q22 0 47 4.5t49.5 21t24.5 42.5
q0 29 -29 68t-58.5 82t-29.5 81q0 41 20 79.5t48 69t56 59t48 59.5t20 61q0 24 -14 39.5t-32 15.5q-42 0 -88 -95l-249 -516q-31 -61 -13 -81h-8q-47 0 -70 26.5t-13 70.5q7 25 30 71l181 374q27 65 90.5 114.5t125.5 49.5q36 0 54 -20.5t18 -48.5z" />
    <glyph glyph-name="agrave" unicode="&#xe0;" horiz-adv-x="552" 
d="M417 21q62 31 106 103l9 -5q-40 -64 -88.5 -94t-89.5 -30q-50 0 -65 36.5t10 86.5l111 232q17 35 3.5 63.5t-48.5 28.5q-61 0 -139 -108q-47 -66 -80 -147t-33 -132q0 -46 30 -50q45 5 84 47q23 26 36 55q-29 -25 -64 -8.5t-35 54.5q0 25 17.5 42.5t42.5 17.5t42.5 -17.5
t17.5 -42.5q0 -54 -50 -108q-47 -50 -100 -50q-43 0 -78.5 32t-35.5 92q0 73 53 151.5t134 130t158 51.5q29 0 46.5 -18t17.5 -46l26 54h116l-183 -379q-17 -35 -5.5 -45.5t34.5 3.5zM555 551l-188 118l6 9l90 14l102 -135z" />
    <glyph glyph-name="aacute" unicode="&#xe1;" horiz-adv-x="552" 
d="M417 21q62 31 106 103l9 -5q-40 -64 -88.5 -94t-89.5 -30q-50 0 -65 36.5t10 86.5l111 232q17 35 3.5 63.5t-48.5 28.5q-61 0 -139 -108q-47 -66 -80 -147t-33 -132q0 -46 30 -50q45 5 84 47q23 26 36 55q-29 -25 -64 -8.5t-35 54.5q0 25 17.5 42.5t42.5 17.5t42.5 -17.5
t17.5 -42.5q0 -54 -50 -108q-47 -50 -100 -50q-43 0 -78.5 32t-35.5 92q0 73 53 151.5t134 130t158 51.5q29 0 46.5 -18t17.5 -46l26 54h116l-183 -379q-17 -35 -5.5 -45.5t34.5 3.5zM617 666l-246 -115l-6 10l163 131l84 -16z" />
    <glyph glyph-name="acircumflex" unicode="&#xe2;" horiz-adv-x="561" 
d="M417 21q62 31 106 103l9 -5q-40 -64 -88.5 -94t-89.5 -30q-50 0 -65 36.5t10 86.5l111 232q17 35 3.5 63.5t-48.5 28.5q-61 0 -139 -108q-47 -66 -80 -147t-33 -132q0 -46 30 -50q45 5 84 47q23 26 36 55q-29 -25 -64 -8.5t-35 54.5q0 25 17.5 42.5t42.5 17.5t42.5 -17.5
t17.5 -42.5q0 -54 -50 -108q-47 -50 -100 -50q-43 0 -78.5 32t-35.5 92q0 73 53 151.5t134 130t158 51.5q29 0 46.5 -18t17.5 -46l26 54h116l-183 -379q-17 -35 -5.5 -45.5t34.5 3.5zM339 550l-6 10l188 131h42l57 -131l-10 -5l-90 81z" />
    <glyph glyph-name="atilde" unicode="&#xe3;" horiz-adv-x="552" 
d="M417 21q62 31 106 103l9 -5q-40 -64 -88.5 -94t-89.5 -30q-50 0 -65 36.5t10 86.5l111 232q17 35 3.5 63.5t-48.5 28.5q-61 0 -139 -108q-47 -66 -80 -147t-33 -132q0 -46 30 -50q45 5 84 47q23 26 36 55q-29 -25 -64 -8.5t-35 54.5q0 25 17.5 42.5t42.5 17.5t42.5 -17.5
t17.5 -42.5q0 -54 -50 -108q-47 -50 -100 -50q-43 0 -78.5 32t-35.5 92q0 73 53 151.5t134 130t158 51.5q29 0 46.5 -18t17.5 -46l26 54h116l-183 -379q-17 -35 -5.5 -45.5t34.5 3.5zM634 642l10 -6q-36 -66 -93 -66q-35 0 -88 32.5t-72 32.5q-26 0 -43 -29l-10 6
q38 66 93 66q35 0 88 -32t72 -32q26 0 43 28z" />
    <glyph glyph-name="adieresis" unicode="&#xe4;" horiz-adv-x="552" 
d="M417 21q62 31 106 103l9 -5q-40 -64 -88.5 -94t-89.5 -30q-50 0 -65 36.5t10 86.5l111 232q17 35 3.5 63.5t-48.5 28.5q-61 0 -139 -108q-47 -66 -80 -147t-33 -132q0 -46 30 -50q45 5 84 47q23 26 36 55q-29 -25 -64 -8.5t-35 54.5q0 25 17.5 42.5t42.5 17.5t42.5 -17.5
t17.5 -42.5q0 -54 -50 -108q-47 -50 -100 -50q-43 0 -78.5 32t-35.5 92q0 73 53 151.5t134 130t158 51.5q29 0 46.5 -18t17.5 -46l26 54h116l-183 -379q-17 -35 -5.5 -45.5t34.5 3.5zM599 622q0 -17 -12.5 -29.5t-29.5 -12.5t-29.5 12.5t-12.5 29.5q0 18 12.5 30.5
t29.5 12.5t29.5 -12.5t12.5 -30.5zM468 622q0 -17 -12.5 -29.5t-30.5 -12.5q-17 0 -29.5 12.5t-12.5 29.5q0 18 12.5 30.5t29.5 12.5q18 0 30.5 -12.5t12.5 -30.5z" />
    <glyph glyph-name="aring" unicode="&#xe5;" horiz-adv-x="552" 
d="M417 21q62 31 106 103l9 -5q-40 -64 -88.5 -94t-89.5 -30q-50 0 -65 36.5t10 86.5l111 232q17 35 3.5 63.5t-48.5 28.5q-61 0 -139 -108q-47 -66 -80 -147t-33 -132q0 -46 30 -50q45 5 84 47q23 26 36 55q-29 -25 -64 -8.5t-35 54.5q0 25 17.5 42.5t42.5 17.5t42.5 -17.5
t17.5 -42.5q0 -54 -50 -108q-47 -50 -100 -50q-43 0 -78.5 32t-35.5 92q0 73 53 151.5t134 130t158 51.5q29 0 46.5 -18t17.5 -46l26 54h116l-183 -379q-17 -35 -5.5 -45.5t34.5 3.5zM485 694q29 0 50 -20.5t21 -49.5t-21 -50t-50 -21t-49.5 21t-20.5 50t20.5 49.5
t49.5 20.5zM485 573q21 0 36 15t15 36t-15 35.5t-36 14.5t-35.5 -14.5t-14.5 -35.5t14.5 -36t35.5 -15z" />
    <glyph glyph-name="ae" unicode="&#xe6;" horiz-adv-x="0" 
 />
    <glyph glyph-name="ccedilla" unicode="&#xe7;" horiz-adv-x="451" 
d="M365 452q55 0 88 -29t33 -70q0 -25 -17.5 -42.5t-42.5 -17.5t-42.5 17.5t-17.5 42.5q0 35 31.5 52t60.5 -2q-31 39 -93 39q-67 0 -146 -118q-46 -68 -76 -144.5t-30 -124.5q0 -50 34 -50q56 1 118.5 33t114.5 86l7 -7q-53 -55 -118.5 -88.5t-125.5 -33.5q-29 0 -56 10
l-26 -53q29 18 59 18q28 0 45.5 -13t17.5 -33q0 -30 -31.5 -55t-69.5 -25q-26 0 -42.5 14t-16.5 35h7q0 -25 24 -35t48 12q29 27 29 61q0 25 -22.5 27.5t-54.5 -21.5l-5 6v0l31 66q-60 29 -60 109q0 74 53 152.5t134 130t158 51.5z" />
    <glyph glyph-name="egrave" unicode="&#xe8;" horiz-adv-x="471" 
d="M491 366q0 -42 -36.5 -78t-91.5 -57.5t-112.5 -33.5t-105.5 -12q-32 -78 -32 -129t34 -51q56 1 118.5 33t114.5 86l8 -7q-54 -55 -119.5 -88.5t-125.5 -33.5q-58 0 -90.5 33.5t-32.5 89.5q0 74 52.5 152.5t134 130t159.5 51.5q58 0 91.5 -24.5t33.5 -61.5zM360 442
q-48 0 -108.5 -75.5t-101.5 -171.5q94 2 170.5 64t76.5 134q0 49 -37 49zM504 551l-188 118l6 9l90 14l102 -135z" />
    <glyph glyph-name="eacute" unicode="&#xe9;" horiz-adv-x="471" 
d="M491 366q0 -42 -36.5 -78t-91.5 -57.5t-112.5 -33.5t-105.5 -12q-32 -78 -32 -129t34 -51q56 1 118.5 33t114.5 86l8 -7q-54 -55 -119.5 -88.5t-125.5 -33.5q-58 0 -90.5 33.5t-32.5 89.5q0 74 52.5 152.5t134 130t159.5 51.5q58 0 91.5 -24.5t33.5 -61.5zM360 442
q-48 0 -108.5 -75.5t-101.5 -171.5q94 2 170.5 64t76.5 134q0 49 -37 49zM552 666l-246 -115l-6 10l163 131l84 -16z" />
    <glyph glyph-name="ecircumflex" unicode="&#xea;" horiz-adv-x="471" 
d="M491 366q0 -42 -36.5 -78t-91.5 -57.5t-112.5 -33.5t-105.5 -12q-32 -78 -32 -129t34 -51q56 1 118.5 33t114.5 86l8 -7q-54 -55 -119.5 -88.5t-125.5 -33.5q-58 0 -90.5 33.5t-32.5 89.5q0 74 52.5 152.5t134 130t159.5 51.5q58 0 91.5 -24.5t33.5 -61.5zM360 442
q-48 0 -108.5 -75.5t-101.5 -171.5q94 2 170.5 64t76.5 134q0 49 -37 49zM252 550l-6 10l188 131h42l57 -131l-10 -5l-90 81z" />
    <glyph glyph-name="edieresis" unicode="&#xeb;" horiz-adv-x="471" 
d="M491 366q0 -42 -36.5 -78t-91.5 -57.5t-112.5 -33.5t-105.5 -12q-32 -78 -32 -129t34 -51q56 1 118.5 33t114.5 86l8 -7q-54 -55 -119.5 -88.5t-125.5 -33.5q-58 0 -90.5 33.5t-32.5 89.5q0 74 52.5 152.5t134 130t159.5 51.5q58 0 91.5 -24.5t33.5 -61.5zM360 442
q-48 0 -108.5 -75.5t-101.5 -171.5q94 2 170.5 64t76.5 134q0 49 -37 49zM532 622q0 -17 -12.5 -29.5t-29.5 -12.5t-29.5 12.5t-12.5 29.5q0 18 12.5 30.5t29.5 12.5t29.5 -12.5t12.5 -30.5zM401 622q0 -17 -12.5 -29.5t-30.5 -12.5q-17 0 -29.5 12.5t-12.5 29.5
q0 18 12.5 30.5t29.5 12.5q18 0 30.5 -12.5t12.5 -30.5z" />
    <glyph glyph-name="igrave" unicode="&#xec;" horiz-adv-x="292" 
d="M293 671q25 0 42.5 -17.5t17.5 -42.5t-17.5 -42.5t-42.5 -17.5t-42.5 17.5t-17.5 42.5t17.5 42.5t42.5 17.5zM254 329l-128 -266q-17 -35 -6 -45.5t35 3.5q59 29 106 103l8 -5q-39 -64 -87 -94t-90 -30q-51 0 -66 36.5t10 86.5l124 256q14 28 14 44q0 19 -15 19
q-18 0 -58 -31l-6 8q47 38 99 38q36 0 55 -18.5t19 -48.5q0 -28 -14 -56zM456 800l-188 118l6 9l90 14l102 -135z" />
    <glyph glyph-name="iacute" unicode="&#xed;" horiz-adv-x="292" 
d="M293 671q25 0 42.5 -17.5t17.5 -42.5t-17.5 -42.5t-42.5 -17.5t-42.5 17.5t-17.5 42.5t17.5 42.5t42.5 17.5zM254 329l-128 -266q-17 -35 -6 -45.5t35 3.5q59 29 106 103l8 -5q-39 -64 -87 -94t-90 -30q-51 0 -66 36.5t10 86.5l124 256q14 28 14 44q0 19 -15 19
q-18 0 -58 -31l-6 8q47 38 99 38q36 0 55 -18.5t19 -48.5q0 -28 -14 -56zM497 915l-246 -115l-6 10l163 131l84 -16z" />
    <glyph glyph-name="icircumflex" unicode="&#xee;" horiz-adv-x="292" 
d="M293 671q25 0 42.5 -17.5t17.5 -42.5t-17.5 -42.5t-42.5 -17.5t-42.5 17.5t-17.5 42.5t17.5 42.5t42.5 17.5zM254 329l-128 -266q-17 -35 -6 -45.5t35 3.5q59 29 106 103l8 -5q-39 -64 -87 -94t-90 -30q-51 0 -66 36.5t10 86.5l124 256q14 28 14 44q0 19 -15 19
q-18 0 -58 -31l-6 8q47 38 99 38q36 0 55 -18.5t19 -48.5q0 -28 -14 -56zM225 800l-6 10l188 131h42l57 -131l-10 -5l-90 81z" />
    <glyph glyph-name="idieresis" unicode="&#xef;" horiz-adv-x="292" 
d="M293 671q25 0 42.5 -17.5t17.5 -42.5t-17.5 -42.5t-42.5 -17.5t-42.5 17.5t-17.5 42.5t17.5 42.5t42.5 17.5zM254 329l-128 -266q-17 -35 -6 -45.5t35 3.5q59 29 106 103l8 -5q-39 -64 -87 -94t-90 -30q-51 0 -66 36.5t10 86.5l124 256q14 28 14 44q0 19 -15 19
q-18 0 -58 -31l-6 8q47 38 99 38q36 0 55 -18.5t19 -48.5q0 -28 -14 -56zM479 870q0 -17 -12.5 -29.5t-29.5 -12.5t-29.5 12.5t-12.5 29.5q0 18 12.5 30.5t29.5 12.5t29.5 -12.5t12.5 -30.5zM368 870q0 -17 -12.5 -29.5t-30.5 -12.5q-17 0 -29.5 12.5t-12.5 29.5
q0 18 12.5 30.5t29.5 12.5q18 0 30.5 -12.5t12.5 -30.5z" />
    <glyph glyph-name="eth" unicode="&#xf0;" horiz-adv-x="555" 
d="M609 520l-221 -457q-17 -35 -5.5 -45.5t34.5 3.5q62 31 106 103l9 -5q-40 -64 -88.5 -94t-89.5 -30q-50 0 -65 36.5t10 86.5l111 232q17 35 3.5 63.5t-48.5 28.5q-61 0 -139 -108q-47 -66 -80 -147t-33 -132q0 -46 30 -50q45 5 84 47q23 26 36 55q-29 -25 -64 -8.5
t-35 54.5q0 25 17.5 42.5t42.5 17.5t42.5 -17.5t17.5 -42.5q0 -54 -50 -108q-47 -50 -100 -50q-43 0 -78.5 32t-35.5 92q0 73 53 151.5t134 130t158 51.5q29 0 46.5 -18t17.5 -46l64 132h-78v20h87l40 82q14 28 14 44q0 18 -15 18q-20 0 -58 -30l-6 8q50 38 99 38
q36 0 55 -18.5t19 -49.5q0 -27 -14 -55l-18 -37h87v-20h-96z" />
    <glyph glyph-name="ntilde" unicode="&#xf1;" horiz-adv-x="526" 
d="M497 125l9 -6q-40 -64 -88.5 -94t-89.5 -30q-51 0 -66 36.5t10 86.5l124 256q13 27 13 45q0 19 -15 19q-12 0 -40 -14t-57 -43q-30 -29 -53 -69l-114 -236q-28 -59 -16 -78q-14 -3 -28 -3q-31 0 -48.5 18t-17.5 48q0 27 15 57l123 256q14 30 14 44q0 19 -14 19
q-20 0 -58 -31l-7 8q47 38 100 38q43 0 62 -26.5t8 -66.5q74 93 159 93q38 0 60 -18t22 -49q0 -25 -31 -92l-111 -230q-17 -35 -5.5 -45.5t34.5 3.5q62 31 106 104zM562 642l10 -6q-36 -66 -93 -66q-35 0 -88 32.5t-72 32.5q-26 0 -43 -29l-10 6q38 66 93 66q35 0 88 -32
t72 -32q26 0 43 28z" />
    <glyph glyph-name="ograve" unicode="&#xf2;" horiz-adv-x="509" 
d="M365 452q58 0 91 -33.5t33 -88.5q0 -74 -53 -153t-134.5 -130.5t-158.5 -51.5q-58 0 -90.5 33.5t-32.5 89.5q0 74 53 152.5t134 130t158 51.5zM147 5q42 0 102.5 74t103.5 167.5t43 147.5q0 48 -36 48q-46 0 -106 -72t-100.5 -164t-40.5 -151q0 -50 34 -50zM504 551
l-188 118l6 9l90 14l102 -135z" />
    <glyph glyph-name="oacute" unicode="&#xf3;" horiz-adv-x="509" 
d="M365 452q58 0 91 -33.5t33 -88.5q0 -74 -53 -153t-134.5 -130.5t-158.5 -51.5q-58 0 -90.5 33.5t-32.5 89.5q0 74 53 152.5t134 130t158 51.5zM147 5q42 0 102.5 74t103.5 167.5t43 147.5q0 48 -36 48q-46 0 -106 -72t-100.5 -164t-40.5 -151q0 -50 34 -50zM544 666
l-246 -115l-6 10l163 131l84 -16z" />
    <glyph glyph-name="ocircumflex" unicode="&#xf4;" horiz-adv-x="509" 
d="M365 452q58 0 91 -33.5t33 -88.5q0 -74 -53 -153t-134.5 -130.5t-158.5 -51.5q-58 0 -90.5 33.5t-32.5 89.5q0 74 53 152.5t134 130t158 51.5zM147 5q42 0 102.5 74t103.5 167.5t43 147.5q0 48 -36 48q-46 0 -106 -72t-100.5 -164t-40.5 -151q0 -50 34 -50zM252 550
l-6 10l188 131h42l57 -131l-10 -5l-90 81z" />
    <glyph glyph-name="otilde" unicode="&#xf5;" horiz-adv-x="509" 
d="M365 452q58 0 91 -33.5t33 -88.5q0 -74 -53 -153t-134.5 -130.5t-158.5 -51.5q-58 0 -90.5 33.5t-32.5 89.5q0 74 53 152.5t134 130t158 51.5zM147 5q42 0 102.5 74t103.5 167.5t43 147.5q0 48 -36 48q-46 0 -106 -72t-100.5 -164t-40.5 -151q0 -50 34 -50zM564 642
l10 -6q-36 -66 -93 -66q-35 0 -88 32.5t-72 32.5q-26 0 -43 -29l-10 6q38 66 93 66q35 0 88 -32t72 -32q26 0 43 28z" />
    <glyph glyph-name="odieresis" unicode="&#xf6;" horiz-adv-x="509" 
d="M365 452q58 0 91 -33.5t33 -88.5q0 -74 -53 -153t-134.5 -130.5t-158.5 -51.5q-58 0 -90.5 33.5t-32.5 89.5q0 74 53 152.5t134 130t158 51.5zM147 5q42 0 102.5 74t103.5 167.5t43 147.5q0 48 -36 48q-46 0 -106 -72t-100.5 -164t-40.5 -151q0 -50 34 -50zM532 622
q0 -17 -12.5 -29.5t-29.5 -12.5t-29.5 12.5t-12.5 29.5q0 18 12.5 30.5t29.5 12.5t29.5 -12.5t12.5 -30.5zM401 622q0 -17 -12.5 -29.5t-30.5 -12.5q-17 0 -29.5 12.5t-12.5 29.5q0 18 12.5 30.5t29.5 12.5q18 0 30.5 -12.5t12.5 -30.5z" />
    <glyph glyph-name="divide" unicode="&#xf7;" horiz-adv-x="520" 
d="M184 150q26 0 44.5 -18.5t18.5 -44.5t-18.5 -44t-44.5 -18t-44 18.5t-18 43.5q0 26 18 44.5t44 18.5zM296 423q26 0 44 -18.5t18 -44.5t-18 -44t-44 -18t-44.5 18t-18.5 44t18.5 44.5t44.5 18.5zM460 221v6h-440v-6h440z" />
    <glyph glyph-name="oslash" unicode="&#xf8;" horiz-adv-x="511" 
d="M491 448l-33 -32q31 -33 31 -86q0 -74 -53 -153t-134.5 -130.5t-158.5 -51.5q-51 0 -84 28l-33 -33l-8 9l32 32q-30 35 -30 87q0 74 53 152.5t134 130t158 51.5q52 0 85 -27l32 32zM360 442q-41 0 -94.5 -59t-94 -139.5t-53.5 -145.5l276 271q10 73 -34 73zM147 5
q38 0 90.5 59.5t94.5 139.5t57 144l-275 -270q-9 -73 33 -73z" />
    <glyph glyph-name="ugrave" unicode="&#xf9;" 
d="M496 124l9 -5q-40 -64 -88.5 -94t-89.5 -30q-43 0 -60 26t-7 67q-74 -93 -158 -93q-38 0 -60 18t-22 50q0 24 31 91l106 220q14 28 14 44q0 19 -14 19q-20 0 -58 -31l-6 8q47 38 99 38q35 0 54.5 -18.5t19.5 -48.5q0 -25 -14 -56l-124 -256q-13 -26 -13 -44q0 -25 22 -19
q44 12 82 48.5t61 76.5l114 236q28 60 16 78q13 3 28 3q32 0 49 -18t17 -48q0 -24 -14 -57l-129 -266q-17 -35 -5.5 -45.5t34.5 3.5q62 31 106 103zM491 551l-188 118l6 9l90 14l102 -135z" />
    <glyph glyph-name="uacute" unicode="&#xfa;" 
d="M496 124l9 -5q-40 -64 -88.5 -94t-89.5 -30q-43 0 -60 26t-7 67q-74 -93 -158 -93q-38 0 -60 18t-22 50q0 24 31 91l106 220q14 28 14 44q0 19 -14 19q-20 0 -58 -31l-6 8q47 38 99 38q35 0 54.5 -18.5t19.5 -48.5q0 -25 -14 -56l-124 -256q-13 -26 -13 -44q0 -25 22 -19
q44 12 82 48.5t61 76.5l114 236q28 60 16 78q13 3 28 3q32 0 49 -18t17 -48q0 -24 -14 -57l-129 -266q-17 -35 -5.5 -45.5t34.5 3.5q62 31 106 103zM531 666l-246 -115l-6 10l163 131l84 -16z" />
    <glyph glyph-name="ucircumflex" unicode="&#xfb;" 
d="M496 124l9 -5q-40 -64 -88.5 -94t-89.5 -30q-43 0 -60 26t-7 67q-74 -93 -158 -93q-38 0 -60 18t-22 50q0 24 31 91l106 220q14 28 14 44q0 19 -14 19q-20 0 -58 -31l-6 8q47 38 99 38q35 0 54.5 -18.5t19.5 -48.5q0 -25 -14 -56l-124 -256q-13 -26 -13 -44q0 -25 22 -19
q44 12 82 48.5t61 76.5l114 236q28 60 16 78q13 3 28 3q32 0 49 -18t17 -48q0 -24 -14 -57l-129 -266q-17 -35 -5.5 -45.5t34.5 3.5q62 31 106 103zM260 550l-6 10l188 131h42l57 -131l-10 -5l-90 81z" />
    <glyph glyph-name="udieresis" unicode="&#xfc;" 
d="M496 124l9 -5q-40 -64 -88.5 -94t-89.5 -30q-43 0 -60 26t-7 67q-74 -93 -158 -93q-38 0 -60 18t-22 50q0 24 31 91l106 220q14 28 14 44q0 19 -14 19q-20 0 -58 -31l-6 8q47 38 99 38q35 0 54.5 -18.5t19.5 -48.5q0 -25 -14 -56l-124 -256q-13 -26 -13 -44q0 -25 22 -19
q44 12 82 48.5t61 76.5l114 236q28 60 16 78q13 3 28 3q32 0 49 -18t17 -48q0 -24 -14 -57l-129 -266q-17 -35 -5.5 -45.5t34.5 3.5q62 31 106 103zM499 622q0 -17 -12.5 -29.5t-29.5 -12.5t-29.5 12.5t-12.5 29.5q0 18 12.5 30.5t29.5 12.5t29.5 -12.5t12.5 -30.5zM368 622
q0 -17 -12.5 -29.5t-30.5 -12.5q-17 0 -29.5 12.5t-12.5 29.5q0 18 12.5 30.5t29.5 12.5q18 0 30.5 -12.5t12.5 -30.5z" />
    <glyph glyph-name="yacute" unicode="&#xfd;" horiz-adv-x="423" 
d="M373 452q29 0 49.5 -23t20.5 -56q0 -26 -12.5 -53t-42.5 -59t-51.5 -52t-65.5 -58q-103 -88 -143 -136q-66 -81 -66 -153q0 -41 27 -70q27 -25 62 -25q29 0 58 17q-27 -2 -46.5 15.5t-19.5 43.5q0 25 17.5 42.5t42.5 17.5t42.5 -17.5t17.5 -42.5q0 -34 -37 -60t-75 -26
q-41 0 -69 28q-30 30 -30 77q0 83 81 173q13 92 10.5 180t-21 151.5t-44.5 63.5q-17 0 -44 -24l-6 8q49 38 99 38q44 0 72.5 -31t37.5 -77.5t12.5 -100.5t-2.5 -100q102 89 131 121q59 67 54 117q-4 -21 -20.5 -35t-38.5 -14q-25 0 -42.5 17.5t-17.5 42.5t17.5 42.5
t42.5 17.5zM459 666l-246 -115l-6 10l163 131l84 -16z" />
    <glyph glyph-name="thorn" unicode="&#xfe;" horiz-adv-x="604" 
d="M549 579q67 0 105 -35t39 -91q1 -79 -59 -159.5t-146 -128t-160 -44.5q-40 1 -66 20l-62 -129h82v-12h-140h-82v12h74q-27 18 -27 53q0 31 34 103l222 459q9 19 11.5 33t-1 21t-11.5 7h-49v12h219v-12h-74q27 -18 27 -53q0 -30 -20 -74q43 18 84 18zM329 131
q52 -2 114.5 77t102 172.5t39.5 142.5q0 46 -36 46q-43 0 -90 -21q-20 -40 -193 -398q25 -17 63 -19z" />
    <glyph glyph-name="ydieresis" unicode="&#xff;" horiz-adv-x="423" 
d="M373 452q29 0 49.5 -23t20.5 -56q0 -26 -12.5 -53t-42.5 -59t-51.5 -52t-65.5 -58q-103 -88 -143 -136q-66 -81 -66 -153q0 -41 27 -70q27 -25 62 -25q29 0 58 17q-27 -2 -46.5 15.5t-19.5 43.5q0 25 17.5 42.5t42.5 17.5t42.5 -17.5t17.5 -42.5q0 -34 -37 -60t-75 -26
q-41 0 -69 28q-30 30 -30 77q0 83 81 173q13 92 10.5 180t-21 151.5t-44.5 63.5q-17 0 -44 -24l-6 8q49 38 99 38q44 0 72.5 -31t37.5 -77.5t12.5 -100.5t-2.5 -100q102 89 131 121q59 67 54 117q-4 -21 -20.5 -35t-38.5 -14q-25 0 -42.5 17.5t-17.5 42.5t17.5 42.5
t42.5 17.5zM452 622q0 -17 -12.5 -29.5t-29.5 -12.5t-29.5 12.5t-12.5 29.5q0 18 12.5 30.5t29.5 12.5t29.5 -12.5t12.5 -30.5zM321 622q0 -17 -12.5 -29.5t-30.5 -12.5q-17 0 -29.5 12.5t-12.5 29.5q0 18 12.5 30.5t29.5 12.5q18 0 30.5 -12.5t12.5 -30.5z" />
    <glyph glyph-name="Amacron" unicode="&#x100;" horiz-adv-x="944" 
d="M860 61q52 51 89 135l11 -5q-38 -86 -94.5 -141t-120.5 -55q-61 0 -92 47.5t-31 127.5q0 36 9 79q-37 -16 -68 -35q-34 -20 -67.5 -47.5t-52 -46.5t-39.5 -41.5t-22 -23.5l-8 8q56 62 79 143q-79 -114 -172 -168q-73 -43 -144 -43q-59 0 -93 34t-34 90q0 57 30.5 112.5
t78.5 99.5q51 47 110 74t113 27q90 0 120 -74q19 -44 13 -99q5 8 32.5 48t37.5 54.5t35 49t41 54t39 46t44 47.5q135 133 279 142l1 -12q-59 -65 -121.5 -176.5t-96.5 -221.5q56 0 111 -18l-4 -11q-53 18 -111 16q-26 -89 -26 -156q0 -99 48 -99q35 0 76 39zM275 48
q93 54 185 189q12 67 -9 117q-29 66 -109 66q-110 0 -215 -97q-46 -42 -75.5 -96t-29.5 -108q0 -51 30.5 -81.5t84.5 -30.5q67 0 138 41zM557 224q37 24 77 39q23 101 80.5 209t124.5 173q-63 -32 -127 -96q-33 -32 -70.5 -79t-55 -71t-65 -93t-50.5 -74q-8 -50 -36 -104
q55 55 122 96zM1078 841v-20h-330v20h330z" />
    <glyph glyph-name="amacron" unicode="&#x101;" horiz-adv-x="552" 
d="M417 21q62 31 106 103l9 -5q-40 -64 -88.5 -94t-89.5 -30q-50 0 -65 36.5t10 86.5l111 232q17 35 3.5 63.5t-48.5 28.5q-61 0 -139 -108q-47 -66 -80 -147t-33 -132q0 -46 30 -50q45 5 84 47q23 26 36 55q-29 -25 -64 -8.5t-35 54.5q0 25 17.5 42.5t42.5 17.5t42.5 -17.5
t17.5 -42.5q0 -54 -50 -108q-47 -50 -100 -50q-43 0 -78.5 32t-35.5 92q0 73 53 151.5t134 130t158 51.5q29 0 46.5 -18t17.5 -46l26 54h116l-183 -379q-17 -35 -5.5 -45.5t34.5 3.5zM646 593v-20h-330v20h330z" />
    <glyph glyph-name="Abreve" unicode="&#x102;" horiz-adv-x="944" 
d="M860 61q52 51 89 135l11 -5q-38 -86 -94.5 -141t-120.5 -55q-61 0 -92 47.5t-31 127.5q0 36 9 79q-37 -16 -68 -35q-34 -20 -67.5 -47.5t-52 -46.5t-39.5 -41.5t-22 -23.5l-8 8q56 62 79 143q-79 -114 -172 -168q-73 -43 -144 -43q-59 0 -93 34t-34 90q0 57 30.5 112.5
t78.5 99.5q51 47 110 74t113 27q90 0 120 -74q19 -44 13 -99q5 8 32.5 48t37.5 54.5t35 49t41 54t39 46t44 47.5q135 133 279 142l1 -12q-59 -65 -121.5 -176.5t-96.5 -221.5q56 0 111 -18l-4 -11q-53 18 -111 16q-26 -89 -26 -156q0 -99 48 -99q35 0 76 39zM275 48
q93 54 185 189q12 67 -9 117q-29 66 -109 66q-110 0 -215 -97q-46 -42 -75.5 -96t-29.5 -108q0 -51 30.5 -81.5t84.5 -30.5q67 0 138 41zM557 224q37 24 77 39q23 101 80.5 209t124.5 173q-63 -32 -127 -96q-33 -32 -70.5 -79t-55 -71t-65 -93t-50.5 -74q-8 -50 -36 -104
q55 55 122 96zM941 856q42 0 86 23.5t70 58.5h11q-22 -53 -76.5 -92t-107.5 -39q-35 0 -54.5 19.5t-19.5 50.5t16 61h1h11q-13 -35 5 -58.5t58 -23.5z" />
    <glyph glyph-name="abreve" unicode="&#x103;" horiz-adv-x="552" 
d="M417 21q62 31 106 103l9 -5q-40 -64 -88.5 -94t-89.5 -30q-50 0 -65 36.5t10 86.5l111 232q17 35 3.5 63.5t-48.5 28.5q-61 0 -139 -108q-47 -66 -80 -147t-33 -132q0 -46 30 -50q45 5 84 47q23 26 36 55q-29 -25 -64 -8.5t-35 54.5q0 25 17.5 42.5t42.5 17.5t42.5 -17.5
t17.5 -42.5q0 -54 -50 -108q-47 -50 -100 -50q-43 0 -78.5 32t-35.5 92q0 73 53 151.5t134 130t158 51.5q29 0 46.5 -18t17.5 -46l26 54h116l-183 -379q-17 -35 -5.5 -45.5t34.5 3.5zM468 609q42 0 86 23.5t70 58.5h11q-22 -53 -76.5 -92t-107.5 -39q-35 0 -54.5 19.5
t-19.5 50.5t16 61h1h11q-13 -35 5 -58.5t58 -23.5z" />
    <glyph glyph-name="Aogonek" unicode="&#x104;" horiz-adv-x="944" 
d="M860 61q52 51 89 135l11 -5q-38 -86 -94.5 -141t-120.5 -55q-61 0 -92 47.5t-31 127.5q0 36 9 79q-37 -16 -68 -35q-34 -20 -67.5 -47.5t-52 -46.5t-39.5 -41.5t-22 -23.5l-8 8q56 62 79 143q-79 -114 -172 -168q-73 -43 -144 -43q-59 0 -93 34t-34 90q0 57 30.5 112.5
t78.5 99.5q51 47 110 74t113 27q90 0 120 -74q19 -44 13 -99q5 8 32.5 48t37.5 54.5t35 49t41 54t39 46t44 47.5q135 133 279 142l1 -12q-59 -65 -121.5 -176.5t-96.5 -221.5q56 0 111 -18l-4 -11q-53 18 -111 16q-26 -89 -26 -156q0 -99 48 -99q35 0 76 39zM275 48
q93 54 185 189q12 67 -9 117q-29 66 -109 66q-110 0 -215 -97q-46 -42 -75.5 -96t-29.5 -108q0 -51 30.5 -81.5t84.5 -30.5q67 0 138 41zM557 224q37 24 77 39q23 101 80.5 209t124.5 173q-63 -32 -127 -96q-33 -32 -70.5 -79t-55 -71t-65 -93t-50.5 -74q-8 -50 -36 -104
q55 55 122 96zM770 -91l6 -5q-38 -40 -80 -40q-19 0 -30 11t-11 29q0 28 24 56.5t55 42.5l17 -1q-21 -12 -37.5 -36.5t-16.5 -48.5q0 -32 30 -32q21 0 43 24z" />
    <glyph glyph-name="aogonek" unicode="&#x105;" horiz-adv-x="552" 
d="M417 21q62 31 106 103l9 -5q-40 -64 -88.5 -94t-89.5 -30q-50 0 -65 36.5t10 86.5l111 232q17 35 3.5 63.5t-48.5 28.5q-61 0 -139 -108q-47 -66 -80 -147t-33 -132q0 -46 30 -50q45 5 84 47q23 26 36 55q-29 -25 -64 -8.5t-35 54.5q0 25 17.5 42.5t42.5 17.5t42.5 -17.5
t17.5 -42.5q0 -54 -50 -108q-47 -50 -100 -50q-43 0 -78.5 32t-35.5 92q0 73 53 151.5t134 130t158 51.5q29 0 46.5 -18t17.5 -46l26 54h116l-183 -379q-17 -35 -5.5 -45.5t34.5 3.5zM368 -91l6 -5q-38 -40 -80 -40q-19 0 -30 11t-11 29q0 28 24 56.5t55 42.5l17 -1
q-21 -12 -37.5 -36.5t-16.5 -48.5q0 -32 30 -32q21 0 43 24z" />
    <glyph glyph-name="Cacute" unicode="&#x106;" horiz-adv-x="651" 
d="M568 367q-32 0 -55 22.5t-23 54.5t23 55t55 23t54.5 -23t22.5 -55q0 -36 -27 -58q52 15 86 50q55 53 55 121q0 56 -45 93q-46 38 -116 38q-62 0 -135 -63t-131 -152t-97 -191t-39 -176q0 -46 15.5 -72.5t46.5 -26.5q77 0 165 39.5t165 109.5l8 -8q-78 -71 -167.5 -112
t-170.5 -41q-88 0 -138 51.5t-50 137.5q0 117 81.5 238.5t205.5 199.5t241 78q74 0 123.5 -40.5t49.5 -102.5q0 -72 -59.5 -131t-143.5 -59zM788 915l-246 -115l-6 10l163 131l84 -16z" />
    <glyph glyph-name="cacute" unicode="&#x107;" horiz-adv-x="451" 
d="M365 452q55 0 88 -29t33 -70q0 -25 -17.5 -42.5t-42.5 -17.5t-42.5 17.5t-17.5 42.5q0 35 31.5 52t60.5 -2q-31 39 -93 39q-67 0 -146 -118q-46 -68 -76 -144.5t-30 -124.5q0 -50 34 -50q56 1 118.5 33t114.5 86l7 -7q-53 -55 -118.5 -88.5t-125.5 -33.5
q-58 0 -90.5 33.5t-32.5 89.5q0 74 53 152.5t134 130t158 51.5zM532 666l-246 -115l-6 10l163 131l84 -16z" />
    <glyph glyph-name="Ccircumflex" unicode="&#x108;" horiz-adv-x="651" 
d="M568 367q-32 0 -55 22.5t-23 54.5t23 55t55 23t54.5 -23t22.5 -55q0 -36 -27 -58q52 15 86 50q55 53 55 121q0 56 -45 93q-46 38 -116 38q-62 0 -135 -63t-131 -152t-97 -191t-39 -176q0 -46 15.5 -72.5t46.5 -26.5q77 0 165 39.5t165 109.5l8 -8q-78 -71 -167.5 -112
t-170.5 -41q-88 0 -138 51.5t-50 137.5q0 117 81.5 238.5t205.5 199.5t241 78q74 0 123.5 -40.5t49.5 -102.5q0 -72 -59.5 -131t-143.5 -59zM501 800l-6 10l188 131h42l57 -131l-10 -5l-90 81z" />
    <glyph glyph-name="ccircumflex" unicode="&#x109;" horiz-adv-x="451" 
d="M365 452q55 0 88 -29t33 -70q0 -25 -17.5 -42.5t-42.5 -17.5t-42.5 17.5t-17.5 42.5q0 35 31.5 52t60.5 -2q-31 39 -93 39q-67 0 -146 -118q-46 -68 -76 -144.5t-30 -124.5q0 -50 34 -50q56 1 118.5 33t114.5 86l7 -7q-53 -55 -118.5 -88.5t-125.5 -33.5
q-58 0 -90.5 33.5t-32.5 89.5q0 74 53 152.5t134 130t158 51.5zM260 550l-6 10l188 131h42l57 -131l-10 -5l-90 81z" />
    <glyph glyph-name="Cdotaccent" unicode="&#x10a;" horiz-adv-x="651" 
d="M568 367q-32 0 -55 22.5t-23 54.5t23 55t55 23t54.5 -23t22.5 -55q0 -36 -27 -58q52 15 86 50q55 53 55 121q0 56 -45 93q-46 38 -116 38q-62 0 -135 -63t-131 -152t-97 -191t-39 -176q0 -46 15.5 -72.5t46.5 -26.5q77 0 165 39.5t165 109.5l8 -8q-78 -71 -167.5 -112
t-170.5 -41q-88 0 -138 51.5t-50 137.5q0 117 81.5 238.5t205.5 199.5t241 78q74 0 123.5 -40.5t49.5 -102.5q0 -72 -59.5 -131t-143.5 -59zM724 875q0 -17 -12.5 -29.5t-30.5 -12.5q-17 0 -29.5 12.5t-12.5 29.5q0 18 12.5 30.5t29.5 12.5q18 0 30.5 -12.5t12.5 -30.5z" />
    <glyph glyph-name="cdotaccent" unicode="&#x10b;" horiz-adv-x="467" 
d="M365 452q55 0 88 -29t33 -70q0 -25 -17.5 -42.5t-42.5 -17.5t-42.5 17.5t-17.5 42.5q0 35 31.5 52t60.5 -2q-31 39 -93 39q-67 0 -146 -118q-46 -68 -76 -144.5t-30 -124.5q0 -50 34 -50q56 1 118.5 33t114.5 86l7 -7q-53 -55 -118.5 -88.5t-125.5 -33.5
q-58 0 -90.5 33.5t-32.5 89.5q0 74 53 152.5t134 130t158 51.5zM469 622q0 -17 -12.5 -29.5t-30.5 -12.5q-17 0 -29.5 12.5t-12.5 29.5q0 18 12.5 30.5t29.5 12.5q18 0 30.5 -12.5t12.5 -30.5z" />
    <glyph glyph-name="Ccaron" unicode="&#x10c;" horiz-adv-x="651" 
d="M568 367q-32 0 -55 22.5t-23 54.5t23 55t55 23t54.5 -23t22.5 -55q0 -36 -27 -58q52 15 86 50q55 53 55 121q0 56 -45 93q-46 38 -116 38q-62 0 -135 -63t-131 -152t-97 -191t-39 -176q0 -46 15.5 -72.5t46.5 -26.5q77 0 165 39.5t165 109.5l8 -8q-78 -71 -167.5 -112
t-170.5 -41q-88 0 -138 51.5t-50 137.5q0 117 81.5 238.5t205.5 199.5t241 78q74 0 123.5 -40.5t49.5 -102.5q0 -72 -59.5 -131t-143.5 -59zM836 941l6 -10l-188 -131h-42l-57 131l10 5l90 -81z" />
    <glyph glyph-name="ccaron" unicode="&#x10d;" horiz-adv-x="451" 
d="M365 452q55 0 88 -29t33 -70q0 -25 -17.5 -42.5t-42.5 -17.5t-42.5 17.5t-17.5 42.5q0 35 31.5 52t60.5 -2q-31 39 -93 39q-67 0 -146 -118q-46 -68 -76 -144.5t-30 -124.5q0 -50 34 -50q56 1 118.5 33t114.5 86l7 -7q-53 -55 -118.5 -88.5t-125.5 -33.5
q-58 0 -90.5 33.5t-32.5 89.5q0 74 53 152.5t134 130t158 51.5zM579 691l6 -10l-188 -131h-42l-57 131l10 5l90 -81z" />
    <glyph glyph-name="Dcaron" unicode="&#x10e;" horiz-adv-x="1081" 
d="M1068 941l6 -10l-188 -131h-42l-57 131l10 5l90 -81zM874 700q99 0 168.5 -67t69.5 -175q0 -98 -65 -197t-162.5 -170.5t-215 -116.5t-219.5 -45q-136 0 -179 81q-47 -15 -96 -15q-74 0 -119.5 39.5t-45.5 106.5q0 87 71.5 176t176.5 144q9 93 132 164q117 67 275 74
q36 34 80 34h59q-2 -3 -7 -14t-9 -19h86zM138 16q81 0 166 85q59 59 114.5 150t90 169t74 155.5t69.5 110.5q-52 -3 -112 -16q-79 -19 -144 -56q-84 -47 -113 -109q22 20 51 20q32 0 55 -22.5t23 -54.5t-23 -55t-55 -23t-54.5 22.5t-22.5 54.5q-81 -44 -142 -110
q-93 -99 -93 -196q0 -62 42 -98q32 -27 74 -27zM425 -56q84 0 181 53t175 133t130 181.5t52 191.5q0 83 -36.5 133.5t-104.5 51.5h-40q-11 -23 -89 -183q-60 -124 -116 -216.5t-125 -161.5q-80 -82 -170 -113q15 -27 44 -44q42 -26 99 -26z" />
    <glyph glyph-name="dcaron" unicode="&#x10f;" horiz-adv-x="555" 
d="M636 577l-248 -514q-17 -35 -5.5 -45.5t34.5 3.5q62 31 106 103l9 -5q-40 -64 -88.5 -94t-89.5 -30q-50 0 -65 36.5t10 86.5l111 232q17 35 3.5 63.5t-48.5 28.5q-61 0 -139 -108q-47 -66 -80 -147t-33 -132q0 -46 30 -50q45 5 84 47q23 26 36 55q-29 -25 -64 -8.5
t-35 54.5q0 25 17.5 42.5t42.5 17.5t42.5 -17.5t17.5 -42.5q0 -54 -50 -108q-47 -50 -100 -50q-43 0 -78.5 32t-35.5 92q0 73 53 151.5t134 130t158 51.5q29 0 46.5 -18t17.5 -46l113 234q14 28 14 44q0 18 -15 18q-20 0 -58 -30l-6 8q50 38 99 38q36 0 55 -18.5t19 -49.5
q0 -27 -14 -55zM781 675q16 -32 -11 -77t-73 -67l-5 11q54 26 75 77q-22 -17 -46.5 -4.5t-24.5 40.5q0 19 13 32t32 13q28 0 40 -25z" />
    <glyph glyph-name="a_1" unicode="&#x111;" horiz-adv-x="930" 
d="M823 183q39 0 63 -20t24 -55q0 -63 -58.5 -119t-143.5 -56q-65 0 -185 45q11 -5 15 -17.5t-11 -27.5q-87 -66 -134 -99.5t-126.5 -82.5t-148 -71.5t-131.5 -22.5q-83 0 -138 49q-51 46 -51 108q0 37 16.5 62t48.5 25q25 0 42.5 -17.5t17.5 -42.5t-17.5 -42.5t-42.5 -17.5
q-36 0 -53 32q0 -56 49 -100t128 -44q39 0 81.5 11.5t74.5 24t79 43.5t69.5 47t72 59t61.5 54t61 56q14 14 22 20q-93 34 -147 32q-62 -1 -121 -43h-12q53 110 182 377q17 35 3.5 63.5t-48.5 28.5q-61 0 -139 -108q-47 -66 -80 -147t-33 -132q0 -46 30 -50q45 5 84 47
q23 26 36 55q-29 -25 -64 -8.5t-35 54.5q0 25 17.5 42.5t42.5 17.5t42.5 -17.5t17.5 -42.5q0 -54 -50 -108q-47 -50 -100 -50q-43 0 -78.5 32t-35.5 92q0 73 53 151.5t134 130t158 51.5q29 0 46.5 -18t17.5 -46l26 54h116q-2 -3 -98.5 -203.5t-101.5 -209.5q56 -1 146 -35
q86 79 144 122q94 67 162 67zM867 24q22 26 8 52t-58 26q-40 0 -97.5 -33.5t-142.5 -97.5q71 -26 131 -26q101 0 159 79z" />
    <glyph glyph-name="Emacron" unicode="&#x112;" horiz-adv-x="769" 
d="M718 595q32 0 54.5 -23t22.5 -55q0 -17 -6 -31q38 38 38 84q0 47 -35.5 79.5t-88.5 32.5q-81 0 -159.5 -80t-78.5 -167q0 -45 31 -71.5t87 -26.5l-6 -12q-92 0 -185.5 -62.5t-152 -156.5t-58.5 -182q0 -66 39 -101.5t102 -35.5q54 0 133 40q93 47 161.5 119.5t88.5 147.5
q-25 -27 -59 -27q-32 0 -55 23t-23 55t23 54.5t55 22.5t54.5 -22.5t22.5 -54.5q0 -89 -74.5 -180.5t-189.5 -149.5t-226 -58q-102 0 -157.5 50.5t-55.5 130.5q0 88 64.5 174.5t166 145.5t210.5 73q-52 8 -84.5 41t-32.5 80q0 90 107 169t231 79q71 0 114 -38t43 -92
q0 -51 -41 -92q-38 -38 -80 -38q-32 0 -55 22.5t-23 54.5t23 55t55 23zM909 841v-20h-330v20h330z" />
    <glyph glyph-name="emacron" unicode="&#x113;" horiz-adv-x="471" 
d="M491 366q0 -42 -36.5 -78t-91.5 -57.5t-112.5 -33.5t-105.5 -12q-32 -78 -32 -129t34 -51q56 1 118.5 33t114.5 86l8 -7q-54 -55 -119.5 -88.5t-125.5 -33.5q-58 0 -90.5 33.5t-32.5 89.5q0 74 52.5 152.5t134 130t159.5 51.5q58 0 91.5 -24.5t33.5 -61.5zM360 442
q-48 0 -108.5 -75.5t-101.5 -171.5q94 2 170.5 64t76.5 134q0 49 -37 49zM584 593v-20h-330v20h330z" />
    <glyph glyph-name="Ebreve" unicode="&#x114;" horiz-adv-x="769" 
d="M718 595q32 0 54.5 -23t22.5 -55q0 -17 -6 -31q38 38 38 84q0 47 -35.5 79.5t-88.5 32.5q-81 0 -159.5 -80t-78.5 -167q0 -45 31 -71.5t87 -26.5l-6 -12q-92 0 -185.5 -62.5t-152 -156.5t-58.5 -182q0 -66 39 -101.5t102 -35.5q54 0 133 40q93 47 161.5 119.5t88.5 147.5
q-25 -27 -59 -27q-32 0 -55 23t-23 55t23 54.5t55 22.5t54.5 -22.5t22.5 -54.5q0 -89 -74.5 -180.5t-189.5 -149.5t-226 -58q-102 0 -157.5 50.5t-55.5 130.5q0 88 64.5 174.5t166 145.5t210.5 73q-52 8 -84.5 41t-32.5 80q0 90 107 169t231 79q71 0 114 -38t43 -92
q0 -51 -41 -92q-38 -38 -80 -38q-32 0 -55 22.5t-23 54.5t23 55t55 23zM761 856q42 0 86 23.5t70 58.5h11q-22 -53 -76.5 -92t-107.5 -39q-35 0 -54.5 19.5t-19.5 50.5t16 61h1h11q-13 -35 5 -58.5t58 -23.5z" />
    <glyph glyph-name="ebreve" unicode="&#x115;" horiz-adv-x="471" 
d="M491 366q0 -42 -36.5 -78t-91.5 -57.5t-112.5 -33.5t-105.5 -12q-32 -78 -32 -129t34 -51q56 1 118.5 33t114.5 86l8 -7q-54 -55 -119.5 -88.5t-125.5 -33.5q-58 0 -90.5 33.5t-32.5 89.5q0 74 52.5 152.5t134 130t159.5 51.5q58 0 91.5 -24.5t33.5 -61.5zM360 442
q-48 0 -108.5 -75.5t-101.5 -171.5q94 2 170.5 64t76.5 134q0 49 -37 49zM427 609q42 0 86 23.5t70 58.5h11q-22 -53 -76.5 -92t-107.5 -39q-35 0 -54.5 19.5t-19.5 50.5t16 61h1h11q-13 -35 5 -58.5t58 -23.5z" />
    <glyph glyph-name="Edotaccent" unicode="&#x116;" horiz-adv-x="769" 
d="M718 595q32 0 54.5 -23t22.5 -55q0 -17 -6 -31q38 38 38 84q0 47 -35.5 79.5t-88.5 32.5q-81 0 -159.5 -80t-78.5 -167q0 -45 31 -71.5t87 -26.5l-6 -12q-92 0 -185.5 -62.5t-152 -156.5t-58.5 -182q0 -66 39 -101.5t102 -35.5q54 0 133 40q93 47 161.5 119.5t88.5 147.5
q-25 -27 -59 -27q-32 0 -55 23t-23 55t23 54.5t55 22.5t54.5 -22.5t22.5 -54.5q0 -89 -74.5 -180.5t-189.5 -149.5t-226 -58q-102 0 -157.5 50.5t-55.5 130.5q0 88 64.5 174.5t166 145.5t210.5 73q-52 8 -84.5 41t-32.5 80q0 90 107 169t231 79q71 0 114 -38t43 -92
q0 -51 -41 -92q-38 -38 -80 -38q-32 0 -55 22.5t-23 54.5t23 55t55 23zM796 875q0 -17 -12.5 -29.5t-30.5 -12.5q-17 0 -29.5 12.5t-12.5 29.5q0 18 12.5 30.5t29.5 12.5q18 0 30.5 -12.5t12.5 -30.5z" />
    <glyph glyph-name="edotaccent" unicode="&#x117;" horiz-adv-x="471" 
d="M491 366q0 -42 -36.5 -78t-91.5 -57.5t-112.5 -33.5t-105.5 -12q-32 -78 -32 -129t34 -51q56 1 118.5 33t114.5 86l8 -7q-54 -55 -119.5 -88.5t-125.5 -33.5q-58 0 -90.5 33.5t-32.5 89.5q0 74 52.5 152.5t134 130t159.5 51.5q58 0 91.5 -24.5t33.5 -61.5zM360 442
q-48 0 -108.5 -75.5t-101.5 -171.5q94 2 170.5 64t76.5 134q0 49 -37 49zM469 622q0 -17 -12.5 -29.5t-30.5 -12.5q-17 0 -29.5 12.5t-12.5 29.5q0 18 12.5 30.5t29.5 12.5q18 0 30.5 -12.5t12.5 -30.5z" />
    <glyph glyph-name="eogonek" unicode="&#x119;" horiz-adv-x="471" 
d="M491 366q0 -42 -36.5 -78t-91.5 -57.5t-112.5 -33.5t-105.5 -12q-32 -78 -32 -129t34 -51q56 1 118.5 33t114.5 86l8 -7q-54 -55 -119.5 -88.5t-125.5 -33.5q-58 0 -90.5 33.5t-32.5 89.5q0 74 52.5 152.5t134 130t159.5 51.5q58 0 91.5 -24.5t33.5 -61.5zM360 442
q-48 0 -108.5 -75.5t-101.5 -171.5q94 2 170.5 64t76.5 134q0 49 -37 49zM168 -91l6 -5q-38 -40 -80 -40q-19 0 -30 11t-11 29q0 28 24 56.5t55 42.5l17 -1q-21 -12 -37.5 -36.5t-16.5 -48.5q0 -32 30 -32q21 0 43 24z" />
    <glyph glyph-name="Ecaron" unicode="&#x11a;" horiz-adv-x="769" 
d="M718 595q32 0 54.5 -23t22.5 -55q0 -17 -6 -31q38 38 38 84q0 47 -35.5 79.5t-88.5 32.5q-81 0 -159.5 -80t-78.5 -167q0 -45 31 -71.5t87 -26.5l-6 -12q-92 0 -185.5 -62.5t-152 -156.5t-58.5 -182q0 -66 39 -101.5t102 -35.5q54 0 133 40q93 47 161.5 119.5t88.5 147.5
q-25 -27 -59 -27q-32 0 -55 23t-23 55t23 54.5t55 22.5t54.5 -22.5t22.5 -54.5q0 -89 -74.5 -180.5t-189.5 -149.5t-226 -58q-102 0 -157.5 50.5t-55.5 130.5q0 88 64.5 174.5t166 145.5t210.5 73q-52 8 -84.5 41t-32.5 80q0 90 107 169t231 79q71 0 114 -38t43 -92
q0 -51 -41 -92q-38 -38 -80 -38q-32 0 -55 22.5t-23 54.5t23 55t55 23zM905 941l6 -10l-188 -131h-42l-57 131l10 5l90 -81z" />
    <glyph glyph-name="ecaron" unicode="&#x11b;" horiz-adv-x="471" 
d="M491 366q0 -42 -36.5 -78t-91.5 -57.5t-112.5 -33.5t-105.5 -12q-32 -78 -32 -129t34 -51q56 1 118.5 33t114.5 86l8 -7q-54 -55 -119.5 -88.5t-125.5 -33.5q-58 0 -90.5 33.5t-32.5 89.5q0 74 52.5 152.5t134 130t159.5 51.5q58 0 91.5 -24.5t33.5 -61.5zM360 442
q-48 0 -108.5 -75.5t-101.5 -171.5q94 2 170.5 64t76.5 134q0 49 -37 49zM599 691l6 -10l-188 -131h-42l-57 131l10 5l90 -81z" />
    <glyph glyph-name="Gcircumflex" unicode="&#x11c;" horiz-adv-x="677" 
d="M568 367q-32 0 -55 22.5t-23 54.5t23 55t55 23t54.5 -23t22.5 -55q0 -36 -27 -58q52 15 86 50q55 53 55 121q0 56 -45 93q-46 38 -116 38q-62 0 -135 -63t-131 -152t-97 -191t-39 -176q0 -46 15.5 -72.5t46.5 -26.5q70 0 152 34l124 257h-85v12h225v-12h-75
q27 -16 27 -52q0 -35 -30 -98q-78 -71 -167.5 -112t-170.5 -41q-88 0 -138 51.5t-50 137.5q0 117 81.5 238.5t205.5 199.5t241 78q74 0 123.5 -40.5t49.5 -102.5q0 -72 -59.5 -131t-143.5 -59zM501 800l-6 10l188 131h42l57 -131l-10 -5l-90 81z" />
    <glyph glyph-name="gcircumflex" unicode="&#x11d;" horiz-adv-x="523" 
d="M553 585q25 0 42.5 -17.5t17.5 -42.5q0 -65 -61 -99q-36 -21 -69 -15q25 -30 25 -73q0 -97 -102 -183t-213 -86q-72 0 -106 42q-36 -3 -64 -26.5t-28 -56.5q0 -25 19.5 -42t52.5 -17t104 25.5t112 25.5q47 0 78 -31t31 -78q0 -61 -46.5 -107.5t-107.5 -46.5q-20 0 -40 5
t-34.5 11t-36 19t-31 20t-33 25t-30.5 23q-45 7 -70 42q-29 12 -52 12q-22 0 -40 -9q28 4 48.5 -13.5t20.5 -45.5q0 -25 -17.5 -42.5t-42.5 -17.5t-42.5 17.5t-17.5 42.5q0 32 25.5 55t65.5 23q22 0 44 -8q-12 23 -12 52q0 56 40.5 100.5t96.5 51.5q-17 28 -17 63
q0 97 102 183t213 86q54 0 87 -25q35 -19 82 7q27 17 44 44q-29 -23 -63.5 -7t-34.5 54q0 25 17.5 42.5t42.5 17.5zM268 -90q-41 0 -109.5 -25.5t-107.5 -25.5q4 -3 17 -13t17.5 -13.5t17 -12t18.5 -12.5t17.5 -11t19 -10t19 -8t20.5 -7t19.5 -3.5t21.5 -1.5q39 0 70.5 24
t31.5 59q0 26 -19.5 43t-52.5 17zM197 79q39 0 90 54t86.5 128.5t35.5 129.5q0 51 -36 51q-39 0 -89.5 -54t-86 -128t-35.5 -129q0 -52 35 -52zM324 640l-6 10l188 131h42l57 -131l-10 -5l-90 81z" />
    <glyph glyph-name="Gbreve" unicode="&#x11e;" horiz-adv-x="677" 
d="M568 367q-32 0 -55 22.5t-23 54.5t23 55t55 23t54.5 -23t22.5 -55q0 -36 -27 -58q52 15 86 50q55 53 55 121q0 56 -45 93q-46 38 -116 38q-62 0 -135 -63t-131 -152t-97 -191t-39 -176q0 -46 15.5 -72.5t46.5 -26.5q70 0 152 34l124 257h-85v12h225v-12h-75
q27 -16 27 -52q0 -35 -30 -98q-78 -71 -167.5 -112t-170.5 -41q-88 0 -138 51.5t-50 137.5q0 117 81.5 238.5t205.5 199.5t241 78q74 0 123.5 -40.5t49.5 -102.5q0 -72 -59.5 -131t-143.5 -59zM662 856q42 0 86 23.5t70 58.5h11q-22 -53 -76.5 -92t-107.5 -39
q-35 0 -54.5 19.5t-19.5 50.5t16 61h1h11q-13 -35 5 -58.5t58 -23.5z" />
    <glyph glyph-name="gbreve" unicode="&#x11f;" horiz-adv-x="523" 
d="M553 585q25 0 42.5 -17.5t17.5 -42.5q0 -65 -61 -99q-36 -21 -69 -15q25 -30 25 -73q0 -97 -102 -183t-213 -86q-72 0 -106 42q-36 -3 -64 -26.5t-28 -56.5q0 -25 19.5 -42t52.5 -17t104 25.5t112 25.5q47 0 78 -31t31 -78q0 -61 -46.5 -107.5t-107.5 -46.5q-20 0 -40 5
t-34.5 11t-36 19t-31 20t-33 25t-30.5 23q-45 7 -70 42q-29 12 -52 12q-22 0 -40 -9q28 4 48.5 -13.5t20.5 -45.5q0 -25 -17.5 -42.5t-42.5 -17.5t-42.5 17.5t-17.5 42.5q0 32 25.5 55t65.5 23q22 0 44 -8q-12 23 -12 52q0 56 40.5 100.5t96.5 51.5q-17 28 -17 63
q0 97 102 183t213 86q54 0 87 -25q35 -19 82 7q27 17 44 44q-29 -23 -63.5 -7t-34.5 54q0 25 17.5 42.5t42.5 17.5zM268 -90q-41 0 -109.5 -25.5t-107.5 -25.5q4 -3 17 -13t17.5 -13.5t17 -12t18.5 -12.5t17.5 -11t19 -10t19 -8t20.5 -7t19.5 -3.5t21.5 -1.5q39 0 70.5 24
t31.5 59q0 26 -19.5 43t-52.5 17zM197 79q39 0 90 54t86.5 128.5t35.5 129.5q0 51 -36 51q-39 0 -89.5 -54t-86 -128t-35.5 -129q0 -52 35 -52zM450 699q42 0 86 23.5t70 58.5h11q-22 -53 -76.5 -92t-107.5 -39q-35 0 -54.5 19.5t-19.5 50.5t16 61h1h11q-13 -35 5 -58.5
t58 -23.5z" />
    <glyph glyph-name="Gdotaccent" unicode="&#x120;" horiz-adv-x="677" 
d="M568 367q-32 0 -55 22.5t-23 54.5t23 55t55 23t54.5 -23t22.5 -55q0 -36 -27 -58q52 15 86 50q55 53 55 121q0 56 -45 93q-46 38 -116 38q-62 0 -135 -63t-131 -152t-97 -191t-39 -176q0 -46 15.5 -72.5t46.5 -26.5q70 0 152 34l124 257h-85v12h225v-12h-75
q27 -16 27 -52q0 -35 -30 -98q-78 -71 -167.5 -112t-170.5 -41q-88 0 -138 51.5t-50 137.5q0 117 81.5 238.5t205.5 199.5t241 78q74 0 123.5 -40.5t49.5 -102.5q0 -72 -59.5 -131t-143.5 -59zM724 875q0 -17 -12.5 -29.5t-30.5 -12.5q-17 0 -29.5 12.5t-12.5 29.5
q0 18 12.5 30.5t29.5 12.5q18 0 30.5 -12.5t12.5 -30.5z" />
    <glyph glyph-name="gdotaccent" unicode="&#x121;" horiz-adv-x="523" 
d="M553 585q25 0 42.5 -17.5t17.5 -42.5q0 -65 -61 -99q-36 -21 -69 -15q25 -30 25 -73q0 -97 -102 -183t-213 -86q-72 0 -106 42q-36 -3 -64 -26.5t-28 -56.5q0 -25 19.5 -42t52.5 -17t104 25.5t112 25.5q47 0 78 -31t31 -78q0 -61 -46.5 -107.5t-107.5 -46.5q-20 0 -40 5
t-34.5 11t-36 19t-31 20t-33 25t-30.5 23q-45 7 -70 42q-29 12 -52 12q-22 0 -40 -9q28 4 48.5 -13.5t20.5 -45.5q0 -25 -17.5 -42.5t-42.5 -17.5t-42.5 17.5t-17.5 42.5q0 32 25.5 55t65.5 23q22 0 44 -8q-12 23 -12 52q0 56 40.5 100.5t96.5 51.5q-17 28 -17 63
q0 97 102 183t213 86q54 0 87 -25q35 -19 82 7q27 17 44 44q-29 -23 -63.5 -7t-34.5 54q0 25 17.5 42.5t42.5 17.5zM268 -90q-41 0 -109.5 -25.5t-107.5 -25.5q4 -3 17 -13t17.5 -13.5t17 -12t18.5 -12.5t17.5 -11t19 -10t19 -8t20.5 -7t19.5 -3.5t21.5 -1.5q39 0 70.5 24
t31.5 59q0 26 -19.5 43t-52.5 17zM197 79q39 0 90 54t86.5 128.5t35.5 129.5q0 51 -36 51q-39 0 -89.5 -54t-86 -128t-35.5 -129q0 -52 35 -52zM535 716q0 -17 -12.5 -29.5t-30.5 -12.5q-17 0 -29.5 12.5t-12.5 29.5q0 18 12.5 30.5t29.5 12.5q18 0 30.5 -12.5t12.5 -30.5z
" />
    <glyph glyph-name="Gcedilla" unicode="&#x122;" horiz-adv-x="677" 
d="M568 367q-32 0 -55 22.5t-23 54.5t23 55t55 23t54.5 -23t22.5 -55q0 -36 -27 -58q52 15 86 50q55 53 55 121q0 56 -45 93q-46 38 -116 38q-62 0 -135 -63t-131 -152t-97 -191t-39 -176q0 -46 15.5 -72.5t46.5 -26.5q70 0 152 34l124 257h-85v12h225v-12h-75
q27 -16 27 -52q0 -35 -30 -98q-78 -71 -167.5 -112t-170.5 -41q-88 0 -138 51.5t-50 137.5q0 117 81.5 238.5t205.5 199.5t241 78q74 0 123.5 -40.5t49.5 -102.5q0 -72 -59.5 -131t-143.5 -59zM257 -87q16 -32 -11 -77t-73 -67l-5 11q54 26 75 77q-22 -17 -46.5 -4.5
t-24.5 40.5q0 19 13 32t32 13q28 0 40 -25z" />
    <glyph glyph-name="gcedilla" unicode="&#x123;" horiz-adv-x="523" 
d="M459 661q-11 34 18 76.5t74 62.5l4 -9q-54 -24 -79 -76q13 11 31 11q20 0 35 -14.5t15 -35.5q0 -20 -15 -35t-35 -15q-36 0 -48 35zM553 585q25 0 42.5 -17.5t17.5 -42.5q0 -65 -61 -99q-36 -21 -69 -15q25 -30 25 -73q0 -97 -102 -183t-213 -86q-72 0 -106 42
q-36 -3 -64 -26.5t-28 -56.5q0 -25 19.5 -42t52.5 -17t104 25.5t112 25.5q47 0 78 -31t31 -78q0 -61 -46.5 -107.5t-107.5 -46.5q-20 0 -40 5t-34.5 11t-36 19t-31 20t-33 25t-30.5 23q-45 7 -70 42q-29 12 -52 12q-22 0 -40 -9q28 4 48.5 -13.5t20.5 -45.5
q0 -25 -17.5 -42.5t-42.5 -17.5t-42.5 17.5t-17.5 42.5q0 32 25.5 55t65.5 23q22 0 44 -8q-12 23 -12 52q0 56 40.5 100.5t96.5 51.5q-17 28 -17 63q0 97 102 183t213 86q54 0 87 -25q35 -19 82 7q27 17 44 44q-29 -23 -63.5 -7t-34.5 54q0 25 17.5 42.5t42.5 17.5zM268 -90
q-41 0 -109.5 -25.5t-107.5 -25.5q4 -3 17 -13t17.5 -13.5t17 -12t18.5 -12.5t17.5 -11t19 -10t19 -8t20.5 -7t19.5 -3.5t21.5 -1.5q39 0 70.5 24t31.5 59q0 26 -19.5 43t-52.5 17zM197 79q39 0 90 54t86.5 128.5t35.5 129.5q0 51 -36 51q-39 0 -89.5 -54t-86 -128
t-35.5 -129q0 -52 35 -52z" />
    <glyph glyph-name="Hcircumflex" unicode="&#x124;" horiz-adv-x="925" 
d="M1079 700q31 0 55 -14l-6 -11q-8 5 -16 5q-41 0 -107 -139q-1 -3 -2 -5l-2 -4l-252 -520h85v-12h-224v12h74q-38 23 -23 85q5 21 30 71q47 97 85 176h-148q-119 -244 -122 -249q-75 -146 -185 -242t-238 -96q-73 0 -118 39t-45 106q0 84 67 170.5t169.5 142.5t200.5 56
v-12q-95 0 -195 -54.5t-165 -138.5t-65 -164q0 -62 41 -97q32 -27 73 -27q33 0 66 13t64.5 40t58.5 55t56.5 73.5t50.5 78.5t48 87t41 82.5t38 80.5t31 67l37.5 80t34 72t28.5 57t28.5 49.5t27 34.5t31 27t33.5 13h-27q-170 0 -286 -74q-77 -48 -101 -113q23 23 55 23
t54.5 -22.5t22.5 -54.5t-22.5 -55t-54.5 -23t-55 23t-23 55q0 50 32 97q30 44 86 81q120 75 292 75h176v-12h-72q-6 -13 -35.5 -73t-63 -128t-64.5 -131h148q26 54 33 68q76 157 133 216.5t131 59.5zM814 800l-6 10l188 131h42l57 -131l-10 -5l-90 81z" />
    <glyph glyph-name="hcircumflex" unicode="&#x125;" 
d="M296 381q30 29 58 43t40 14q15 0 15 -19q0 -18 -13 -45l-124 -256q-25 -50 -10 -86.5t66 -36.5q42 0 90 30t87 94l-8 5q-47 -74 -106 -103q-24 -13 -34 -3.5t5 45.5l111 230q31 67 31 92q0 31 -22 49t-60 18q-80 0 -150 -83l100 208q14 28 14 55q0 31 -19 49.5t-55 18.5
q-49 0 -99 -38l6 -8q38 30 58 30q15 0 15 -18q0 -16 -14 -44l-243 -504q-15 -30 -15 -57q0 -30 17.5 -48t48.5 -18q14 0 28 3q-12 19 16 78l114 236q22 39 52 69zM225 798l-6 10l188 131h42l57 -131l-10 -5l-90 81z" />
    <glyph glyph-name="heth" unicode="&#x126;" 
d="M497 124l8 -5q-39 -64 -87 -94t-90 -30q-51 0 -66 36.5t10 86.5l124 256q13 27 13 45q0 19 -15 19q-12 0 -40 -14t-58 -43q-30 -30 -52 -69l-114 -236q-28 -59 -16 -78q-14 -3 -28 -3q-31 0 -48.5 18t-17.5 48q0 27 15 57l194 402h-78v20h87l40 82q14 28 14 44
q0 18 -15 18q-20 0 -58 -30l-6 8q50 38 99 38q36 0 55 -18.5t19 -49.5q0 -27 -14 -55l-18 -37h87v-20h-96l-73 -151q70 83 150 83q38 0 60 -18t22 -49q0 -25 -31 -92l-111 -230q-17 -35 -5.5 -45.5t34.5 3.5q59 29 106 103z" />
    <glyph glyph-name="Heth" unicode="&#x127;" horiz-adv-x="926" 
d="M1079 700q31 0 56 -14l-6 -11q-10 5 -17 5q-19 0 -43 -29.5t-41 -62.5t-37 -76q-5 -12 -8 -18h62v-20h-72l-223 -462h85v-12h-225v12h74q-37 23 -23 85q3 9 30 71q47 97 85 176h-148q-94 -197 -121 -249q-76 -147 -186 -242.5t-237 -95.5q-74 0 -119 39t-45 106
q0 84 67 170.5t170 142.5t200 56v-12q-94 0 -194.5 -54.5t-165.5 -138.5t-65 -164q0 -62 41 -97q32 -27 74 -27q37 0 75 18.5t69 44.5t66.5 73t59 82.5t56.5 97t48 93t44 92.5t36 76q14 30 55 119h-51v20h61q46 97 77.5 140.5t76.5 53.5h-27q-169 0 -285 -74
q-54 -33 -83 -77q-9 -13 -19 -36q23 23 55 23t55 -22.5t23 -54.5t-23 -55t-55 -23t-54.5 23t-22.5 55v0v0q0 51 31 97q30 44 86 81q120 75 292 75h177v-12h-73q-8 -17 -40.5 -83t-54.5 -111h148q61 115 112.5 160.5t116.5 45.5zM782 356q48 99 58 118h-148
q-9 -19 -28.5 -58.5t-29.5 -59.5h148z" />
    <glyph glyph-name="Imacron" unicode="&#x12a;" horiz-adv-x="636" 
d="M674 700h181v-12h-73q-36 -73 -91 -186q-126 -263 -239 -375q-130 -132 -277 -132q-74 0 -119.5 39.5t-45.5 106.5q0 88 74 179t182 145q5 42 30 79q30 44 86 81q120 75 292 75zM342 369q-32 0 -55 23t-22 59q-87 -45 -150 -114q-93 -99 -93 -196q0 -62 42 -98
q32 -27 74 -27q81 0 166 85q64 63 122 163q46 78 99.5 194.5t88.5 167.5t84 62h-24q-171 0 -285 -74q-76 -46 -102 -113q23 23 55 23t55 -22.5t23 -54.5t-23 -55t-55 -23zM930 841v-20h-330v20h330z" />
    <glyph glyph-name="imacron" unicode="&#x12b;" horiz-adv-x="292" 
d="M293 671q25 0 42.5 -17.5t17.5 -42.5t-17.5 -42.5t-42.5 -17.5t-42.5 17.5t-17.5 42.5t17.5 42.5t42.5 17.5zM254 329l-128 -266q-17 -35 -6 -45.5t35 3.5q59 29 106 103l8 -5q-39 -64 -87 -94t-90 -30q-51 0 -66 36.5t10 86.5l124 256q14 28 14 44q0 19 -15 19
q-18 0 -58 -31l-6 8q47 38 99 38q36 0 55 -18.5t19 -48.5q0 -28 -14 -56zM516 841v-20h-330v20h330z" />
    <glyph glyph-name="Ibreve" unicode="&#x12c;" horiz-adv-x="636" 
d="M674 700h181v-12h-73q-36 -73 -91 -186q-126 -263 -239 -375q-130 -132 -277 -132q-74 0 -119.5 39.5t-45.5 106.5q0 88 74 179t182 145q5 42 30 79q30 44 86 81q120 75 292 75zM342 369q-32 0 -55 23t-22 59q-87 -45 -150 -114q-93 -99 -93 -196q0 -62 42 -98
q32 -27 74 -27q81 0 166 85q64 63 122 163q46 78 99.5 194.5t88.5 167.5t84 62h-24q-171 0 -285 -74q-76 -46 -102 -113q23 23 55 23t55 -22.5t23 -54.5t-23 -55t-55 -23zM783 856q42 0 86 23.5t70 58.5h11q-22 -53 -76.5 -92t-107.5 -39q-35 0 -54.5 19.5t-19.5 50.5t16 61
h1h11q-13 -35 5 -58.5t58 -23.5z" />
    <glyph glyph-name="ibreve" unicode="&#x12d;" horiz-adv-x="292" 
d="M293 671q25 0 42.5 -17.5t17.5 -42.5t-17.5 -42.5t-42.5 -17.5t-42.5 17.5t-17.5 42.5t17.5 42.5t42.5 17.5zM254 329l-128 -266q-17 -35 -6 -45.5t35 3.5q59 29 106 103l8 -5q-39 -64 -87 -94t-90 -30q-51 0 -66 36.5t10 86.5l124 256q14 28 14 44q0 19 -15 19
q-18 0 -58 -31l-6 8q47 38 99 38q36 0 55 -18.5t19 -48.5q0 -28 -14 -56zM369 853q42 0 86 23.5t70 58.5h11q-22 -53 -76.5 -92t-107.5 -39q-35 0 -54.5 19.5t-19.5 50.5t16 61h1h11q-13 -35 5 -58.5t58 -23.5z" />
    <glyph glyph-name="Iogonek" unicode="&#x12e;" horiz-adv-x="636" 
d="M674 700h181v-12h-73q-36 -73 -91 -186q-126 -263 -239 -375q-130 -132 -277 -132q-74 0 -119.5 39.5t-45.5 106.5q0 88 74 179t182 145q5 42 30 79q30 44 86 81q120 75 292 75zM342 369q-32 0 -55 23t-22 59q-87 -45 -150 -114q-93 -99 -93 -196q0 -62 42 -98
q32 -27 74 -27q81 0 166 85q64 63 122 163q46 78 99.5 194.5t88.5 167.5t84 62h-24q-171 0 -285 -74q-76 -46 -102 -113q23 23 55 23t55 -22.5t23 -54.5t-23 -55t-55 -23zM222 -91l6 -5q-38 -40 -80 -40q-19 0 -30 11t-11 29q0 28 24 56.5t55 42.5l17 -1
q-21 -12 -37.5 -36.5t-16.5 -48.5q0 -32 30 -32q21 0 43 24z" />
    <glyph glyph-name="iogonek" unicode="&#x12f;" horiz-adv-x="292" 
d="M293 671q25 0 42.5 -17.5t17.5 -42.5t-17.5 -42.5t-42.5 -17.5t-42.5 17.5t-17.5 42.5t17.5 42.5t42.5 17.5zM254 329l-128 -266q-17 -35 -6 -45.5t35 3.5q59 29 106 103l8 -5q-39 -64 -87 -94t-90 -30q-51 0 -66 36.5t10 86.5l124 256q14 28 14 44q0 19 -15 19
q-18 0 -58 -31l-6 8q47 38 99 38q36 0 55 -18.5t19 -48.5q0 -28 -14 -56zM95 -91l6 -5q-38 -40 -80 -40q-19 0 -30 11t-11 29q0 28 24 56.5t55 42.5l17 -1q-21 -12 -37.5 -36.5t-16.5 -48.5q0 -32 30 -32q21 0 43 24z" />
    <glyph glyph-name="dotlessi" unicode="&#x131;" horiz-adv-x="289" 
d="M254 329l-128 -266q-17 -35 -6 -45.5t35 3.5q59 29 106 103l8 -5q-39 -64 -87 -94t-90 -30q-51 0 -66 36.5t10 86.5l124 256q14 28 14 44q0 19 -15 19q-18 0 -58 -31l-6 8q47 38 99 38q36 0 55 -18.5t19 -48.5q0 -28 -14 -56z" />
    <glyph glyph-name="Jcircumflex" unicode="&#x134;" horiz-adv-x="672" 
d="M693 700h178v-12h-73q-11 -23 -67.5 -138.5t-94.5 -193.5h65v-12h-170q23 0 40 -15t17 -42q0 -31 -34 -101q-17 -35 -46 -91q-49 -94 -110 -167t-144 -122t-170 -49q-73 0 -118.5 39t-45.5 106q0 84 67 170.5t170 142.5t200 56v-12q-94 0 -194 -54.5t-165.5 -138.5
t-65.5 -164q0 -61 42 -97q30 -27 73 -27q82 0 174 92q23 24 45.5 52.5t46 67t39.5 65t41.5 77.5l35 70t36.5 76t31 66h-67v12h72q15 31 37.5 80t33.5 71.5t28.5 56.5t28.5 50t27 34t31.5 27t33.5 13h-28q-169 0 -285 -74q-77 -48 -101 -113q23 23 55 23t54.5 -22.5
t22.5 -54.5t-22.5 -55t-54.5 -23t-55 23t-23 55v0v0q0 50 32 97q30 44 86 81q119 75 291 75zM628 800l-6 10l188 131h42l57 -131l-10 -5l-90 81z" />
    <glyph glyph-name="jcircumflex" unicode="&#x135;" horiz-adv-x="269" 
d="M289 671q25 0 42.5 -17.5t17.5 -42.5t-17.5 -42.5t-42.5 -17.5t-42.5 17.5t-17.5 42.5t17.5 42.5t42.5 17.5zM59 -36q46 64 125.5 218t79.5 203q0 31 -19.5 49.5t-54.5 18.5q-49 0 -99 -38l6 -8q41 30 58 30q14 0 14 -18t-11 -44q-4 -10 -24.5 -57t-28.5 -65t-28.5 -62.5
t-32.5 -68t-32 -61.5t-35.5 -63t-35 -53.5t-37.5 -49.5q-101 -118 -190 -118q-46 0 -75 26q-43 37 -43 99q0 64 46 136q40 63 102 112q59 49 132 79q76 33 147 33v10q-72 0 -147 -31.5t-138 -82.5q-64 -52 -107.5 -119.5t-44.5 -136.5q0 -67 45 -106t117 -39q165 0 311 207z
M225 798l-6 10l188 131h42l57 -131l-10 -5l-90 81z" />
    <glyph glyph-name="Kcedilla" unicode="&#x136;" horiz-adv-x="954" 
d="M952 594l-241 -181q-7 -229 68 -397q-32 -71 -23 -135.5t53 -93.5q31 -18 64 -18q43 0 75 27h1l1 1q-18 -8 -35 -8q-32 0 -54.5 22.5t-22.5 54.5t22.5 55t54.5 23t55 -23t23 -55q0 -48 -36 -78.5t-84 -30.5q-59 0 -110 51q-74 75 -117 230t-47 287q-73 -126 -147 -198
q-130 -132 -277 -132q-74 0 -119.5 39.5t-45.5 106.5q0 88 74 179t182 145q5 42 30 79q30 44 86 81q120 75 292 75h181v-12h-73q-36 -73 -91 -186q-32 -68 -74 -145l262 197q60 46 69 90q1 41 -47 44v12h253v-12q-78 0 -202 -94zM342 369q-32 0 -55 23t-22 59
q-87 -45 -150 -114q-93 -99 -93 -196q0 -62 42 -98q32 -27 74 -27q43 0 86.5 23t81 62.5t66 78.5t54.5 84q46 78 99.5 194.5t88.5 167.5t84 62h-24q-171 0 -285 -74q-76 -46 -102 -113q23 23 55 23t55 -22.5t23 -54.5t-23 -55t-55 -23zM508 -87q16 -32 -11 -77t-73 -67
l-5 11q54 26 75 77q-22 -17 -46.5 -4.5t-24.5 40.5q0 19 13 32t32 13q28 0 40 -25z" />
    <glyph glyph-name="kcedilla" unicode="&#x137;" horiz-adv-x="513" 
d="M443 383q0 21 13 37.5t33 21.5q-49 4 -110 -37q-34 -22 -68 -56q-10 -183 49 -354q-25 -50 -20 -116.5t43 -94.5q22 -17 49 -17q34 0 56 24q-30 -16 -59.5 1t-29.5 51q0 25 17.5 42.5t42.5 17.5t42.5 -17.5t17.5 -42.5q0 -35 -25.5 -60.5t-61.5 -25.5q-49 0 -90 49
t-66 125t-40 154.5t-19 151.5q-28 -41 -42 -68l-45 -93q-28 -59 -16 -78q-14 -3 -28 -3q-31 0 -48.5 18t-17.5 48q0 27 15 57l243 504q14 28 14 44q0 18 -14 18q-21 0 -59 -30l-6 8q50 38 99 38q36 0 55 -18.5t19 -49.5q0 -27 -14 -55l-157 -325q79 108 158 161
q58 39 104 39q41 0 63.5 -20t22.5 -49q0 -25 -17.5 -42.5t-42.5 -17.5t-42.5 17.5t-17.5 42.5zM183 -87q16 -32 -11 -77t-73 -67l-5 11q54 26 75 77q-22 -17 -46.5 -4.5t-24.5 40.5q0 19 13 32t32 13q28 0 40 -25z" />
    <glyph glyph-name="Lacute" unicode="&#x139;" horiz-adv-x="504" 
d="M738 915l-246 -115l-6 10l163 131l84 -16zM401 263q-60 -90 -122 -142.5t-163 -89.5q62 20 100 20q46 0 94.5 -20t89 -48.5t78 -57.5t74.5 -49t66 -20q35 0 59 23l9 -7q-29 -44 -68 -67t-78 -23q-40 0 -89 30.5t-91 69.5t-99 75.5t-113 48.5t-134 -11l-4 11
q136 51 262 258q40 68 81.5 154.5t63.5 134.5t54.5 87t71.5 48h-28q-169 0 -285 -74q-76 -48 -102 -113q23 23 55 23t55 -22.5t23 -54.5t-23 -55t-55 -23t-54.5 23t-22.5 55q0 51 31 97q32 46 86 81q120 75 292 75h179v-12h-72q-40 -81 -91 -186q-73 -153 -130 -239z" />
    <glyph glyph-name="lacute" unicode="&#x13a;" horiz-adv-x="292" 
d="M36 118l243 504q14 28 14 44q0 18 -14 18q-21 0 -58 -30l-6 8q50 38 99 38q35 0 54.5 -18.5t19.5 -49.5q0 -24 -14 -55l-248 -514q-17 -35 -6 -45.5t35 3.5q59 29 106 103l8 -5q-39 -64 -87 -94t-90 -30q-51 0 -66 36.5t10 86.5zM543 915l-246 -115l-6 10l163 131l84 -16
z" />
    <glyph glyph-name="Lcedilla" unicode="&#x13b;" horiz-adv-x="504" 
d="M122 -87q16 -32 -11 -77t-73 -67l-5 11q54 26 75 77q-22 -17 -46.5 -4.5t-24.5 40.5q0 19 13 32t32 13q28 0 40 -25zM401 263q-60 -90 -122 -142.5t-163 -89.5q62 20 100 20q46 0 94.5 -20t89 -48.5t78 -57.5t74.5 -49t66 -20q35 0 59 23l9 -7q-29 -44 -68 -67t-78 -23
q-40 0 -89 30.5t-91 69.5t-99 75.5t-113 48.5t-134 -11l-4 11q136 51 262 258q40 68 81.5 154.5t63.5 134.5t54.5 87t71.5 48h-28q-169 0 -285 -74q-76 -48 -102 -113q23 23 55 23t55 -22.5t23 -54.5t-23 -55t-55 -23t-54.5 23t-22.5 55q0 51 31 97q32 46 86 81
q120 75 292 75h179v-12h-72q-40 -81 -91 -186q-73 -153 -130 -239z" />
    <glyph glyph-name="lcedilla" unicode="&#x13c;" horiz-adv-x="292" 
d="M36 118l243 504q14 28 14 44q0 18 -14 18q-21 0 -58 -30l-6 8q50 38 99 38q35 0 54.5 -18.5t19.5 -49.5q0 -24 -14 -55l-248 -514q-17 -35 -6 -45.5t35 3.5q59 29 106 103l8 -5q-39 -64 -87 -94t-90 -30q-51 0 -66 36.5t10 86.5zM44 -87q16 -32 -11 -77t-73 -67l-5 11
q54 26 75 77q-22 -17 -46.5 -4.5t-24.5 40.5q0 19 13 32t32 13q28 0 40 -25z" />
    <glyph glyph-name="Lcaron" unicode="&#x13d;" horiz-adv-x="504" 
d="M809 675q16 -32 -11 -77t-73 -67l-5 11q54 26 75 77q-22 -17 -46.5 -4.5t-24.5 40.5q0 19 13 32t32 13q28 0 40 -25zM401 263q-60 -90 -122 -142.5t-163 -89.5q62 20 100 20q46 0 94.5 -20t89 -48.5t78 -57.5t74.5 -49t66 -20q35 0 59 23l9 -7q-29 -44 -68 -67t-78 -23
q-40 0 -89 30.5t-91 69.5t-99 75.5t-113 48.5t-134 -11l-4 11q136 51 262 258q40 68 81.5 154.5t63.5 134.5t54.5 87t71.5 48h-28q-169 0 -285 -74q-76 -48 -102 -113q23 23 55 23t55 -22.5t23 -54.5t-23 -55t-55 -23t-54.5 23t-22.5 55q0 51 31 97q32 46 86 81
q120 75 292 75h179v-12h-72q-40 -81 -91 -186q-73 -153 -130 -239z" />
    <glyph glyph-name="lcaron" unicode="&#x13e;" horiz-adv-x="292" 
d="M36 118l243 504q14 28 14 44q0 18 -14 18q-21 0 -58 -30l-6 8q50 38 99 38q35 0 54.5 -18.5t19.5 -49.5q0 -24 -14 -55l-248 -514q-17 -35 -6 -45.5t35 3.5q59 29 106 103l8 -5q-39 -64 -87 -94t-90 -30q-51 0 -66 36.5t10 86.5zM519 675q16 -32 -11 -77t-73 -67l-5 11
q54 26 75 77q-22 -17 -46.5 -4.5t-24.5 40.5q0 19 13 32t32 13q28 0 40 -25z" />
    <glyph glyph-name="Lslash" unicode="&#x141;" horiz-adv-x="534" 
d="M694 700v-12h-151h-28q-169 0 -285 -74q-52 -32 -83 -77q-9 -13 -19 -36q23 23 55 23t55 -22.5t23 -54.5t-23 -55t-55 -23t-54.5 23t-22.5 55v0v0q0 51 31 97q32 46 86 81q120 75 292 75h179zM339 389q15 30 36.5 76t33 70t29 55.5t31.5 48t33.5 30.5t40.5 19h79
q-36 -73 -91 -186q-10 -21 -32 -65l168 50l3 -12l-178 -53q-97 -192 -190 -286q-66 -65 -167 -101q88 27 160 2q50 -18 114.5 -64t117 -80t90.5 -34q33 0 60 20l9 -7q-29 -44 -68 -67t-78 -23q-40 0 -89 30.5t-91 69.5t-99 75.5t-113 48.5t-134 -11l-4 11q136 51 262 258
q31 53 60 110l-101 -30l-3 12z" />
    <glyph glyph-name="lslash" unicode="&#x142;" horiz-adv-x="314" 
d="M185 21q61 33 103 101l5 -3q-34 -55 -83 -89.5t-105 -34.5q-40 0 -63 19t-23 52q0 31 33 97l108 224l-142 -43l-3 12l152 45l105 218q13 26 12 44t-16 18q-16 0 -49 -22l-4 5q54 36 108 36q40 0 63 -19t23 -52q0 -29 -33 -97l-38 -79l144 43l3 -12l-154 -46l-175 -362
q-12 -26 -12 -43q0 -33 41 -12z" />
    <glyph glyph-name="Nacute" unicode="&#x143;" horiz-adv-x="918" 
d="M1118 700v-12q-51 0 -94.5 -28.5t-68.5 -80.5l-243 -502q-11 -23 2.5 -44t38.5 -21h24v-12h-131q-26 0 -44 19.5t-15 45.5l50 464q-46 -157 -138 -291q-73 -109 -159 -172q-98 -71 -197 -71q-61 0 -98 34q-35 35 -35 90q0 46 24 97q43 89 138 153q82 54 162 62
q-8 33 10 76q26 69 103 121q106 72 218 72h45q26 0 44 -19.5t15 -45.5l-56 -529l231 479q21 41 5.5 72t-64.5 31h-8v12h241zM600 458q39 103 49 187l4 43q-105 -5 -199 -70q-75 -51 -100 -117q23 23 56 23q32 0 54.5 -22.5t22.5 -54.5t-22.5 -55t-54.5 -23q-24 0 -44.5 14
t-28.5 36q-84 -8 -168 -67.5t-124 -140.5q-23 -49 -23 -92q0 -50 31 -81q34 -31 90 -31q95 0 190 68q84 63 156 169q66 96 111 214zM1027 915l-246 -115l-6 10l163 131l84 -16z" />
    <glyph glyph-name="nacute" unicode="&#x144;" horiz-adv-x="526" 
d="M497 125l9 -6q-40 -64 -88.5 -94t-89.5 -30q-51 0 -66 36.5t10 86.5l124 256q13 27 13 45q0 19 -15 19q-12 0 -40 -14t-57 -43q-30 -29 -53 -69l-114 -236q-28 -59 -16 -78q-14 -3 -28 -3q-31 0 -48.5 18t-17.5 48q0 27 15 57l123 256q14 30 14 44q0 19 -14 19
q-20 0 -58 -31l-7 8q47 38 100 38q43 0 62 -26.5t8 -66.5q74 93 159 93q38 0 60 -18t22 -49q0 -25 -31 -92l-111 -230q-17 -35 -5.5 -45.5t34.5 3.5q62 31 106 104zM555 666l-246 -115l-6 10l163 131l84 -16z" />
    <glyph glyph-name="Ncedilla" unicode="&#x145;" horiz-adv-x="918" 
d="M1118 700v-12q-51 0 -94.5 -28.5t-68.5 -80.5l-243 -502q-11 -23 2.5 -44t38.5 -21h24v-12h-131q-26 0 -44 19.5t-15 45.5l50 464q-46 -157 -138 -291q-73 -109 -159 -172q-98 -71 -197 -71q-61 0 -98 34q-35 35 -35 90q0 46 24 97q43 89 138 153q82 54 162 62
q-8 33 10 76q26 69 103 121q106 72 218 72h45q26 0 44 -19.5t15 -45.5l-56 -529l231 479q21 41 5.5 72t-64.5 31h-8v12h241zM600 458q39 103 49 187l4 43q-105 -5 -199 -70q-75 -51 -100 -117q23 23 56 23q32 0 54.5 -22.5t22.5 -54.5t-22.5 -55t-54.5 -23q-24 0 -44.5 14
t-28.5 36q-84 -8 -168 -67.5t-124 -140.5q-23 -49 -23 -92q0 -50 31 -81q34 -31 90 -31q95 0 190 68q84 63 156 169q66 96 111 214zM513 -87q16 -32 -11 -77t-73 -67l-5 11q54 26 75 77q-22 -17 -46.5 -4.5t-24.5 40.5q0 19 13 32t32 13q28 0 40 -25z" />
    <glyph glyph-name="ncedilla" unicode="&#x146;" horiz-adv-x="526" 
d="M497 125l9 -6q-40 -64 -88.5 -94t-89.5 -30q-51 0 -66 36.5t10 86.5l124 256q13 27 13 45q0 19 -15 19q-12 0 -40 -14t-57 -43q-30 -29 -53 -69l-114 -236q-28 -59 -16 -78q-14 -3 -28 -3q-31 0 -48.5 18t-17.5 48q0 27 15 57l123 256q14 30 14 44q0 19 -14 19
q-20 0 -58 -31l-7 8q47 38 100 38q43 0 62 -26.5t8 -66.5q74 93 159 93q38 0 60 -18t22 -49q0 -25 -31 -92l-111 -230q-17 -35 -5.5 -45.5t34.5 3.5q62 31 106 104zM208 -87q16 -32 -11 -77t-73 -67l-5 11q54 26 75 77q-22 -17 -46.5 -4.5t-24.5 40.5q0 19 13 32t32 13
q28 0 40 -25z" />
    <glyph glyph-name="Ncaron" unicode="&#x147;" horiz-adv-x="918" 
d="M1118 700v-12q-51 0 -94.5 -28.5t-68.5 -80.5l-243 -502q-11 -23 2.5 -44t38.5 -21h24v-12h-131q-26 0 -44 19.5t-15 45.5l50 464q-46 -157 -138 -291q-73 -109 -159 -172q-98 -71 -197 -71q-61 0 -98 34q-35 35 -35 90q0 46 24 97q43 89 138 153q82 54 162 62
q-8 33 10 76q26 69 103 121q106 72 218 72h45q26 0 44 -19.5t15 -45.5l-56 -529l231 479q21 41 5.5 72t-64.5 31h-8v12h241zM600 458q39 103 49 187l4 43q-105 -5 -199 -70q-75 -51 -100 -117q23 23 56 23q32 0 54.5 -22.5t22.5 -54.5t-22.5 -55t-54.5 -23q-24 0 -44.5 14
t-28.5 36q-84 -8 -168 -67.5t-124 -140.5q-23 -49 -23 -92q0 -50 31 -81q34 -31 90 -31q95 0 190 68q84 63 156 169q66 96 111 214zM1035 941l6 -10l-188 -131h-42l-57 131l10 5l90 -81z" />
    <glyph glyph-name="ncaron" unicode="&#x148;" horiz-adv-x="568" 
d="M497 125l9 -6q-40 -64 -88.5 -94t-89.5 -30q-51 0 -66 36.5t10 86.5l124 256q13 27 13 45q0 19 -15 19q-12 0 -40 -14t-57 -43q-30 -29 -53 -69l-114 -236q-28 -59 -16 -78q-14 -3 -28 -3q-31 0 -48.5 18t-17.5 48q0 27 15 57l123 256q14 30 14 44q0 19 -14 19
q-20 0 -58 -31l-7 8q47 38 100 38q43 0 62 -26.5t8 -66.5q74 93 159 93q38 0 60 -18t22 -49q0 -25 -31 -92l-111 -230q-17 -35 -5.5 -45.5t34.5 3.5q62 31 106 104zM558 691l6 -10l-188 -131h-42l-57 131l10 5l90 -81z" />
    <glyph glyph-name="Omacron" unicode="&#x14c;" horiz-adv-x="719" 
d="M808 841v-20h-330v20h330zM443 370q-36 0 -59 27.5t-23 66.5q0 78 71 157q74 79 165 79q79 0 125.5 -52t46.5 -135q0 -88 -49.5 -182.5t-125 -167.5t-171.5 -120.5t-184 -47.5q-89 0 -139 52t-50 138q0 152 133.5 305.5t302.5 199.5l4 -8q-35 -19 -66 -53
q-30 -32 -51 -73q-86 -103 -141.5 -232.5t-55.5 -217.5q0 -47 17.5 -73t50.5 -26q78 0 172 100.5t158 234.5t68 232q1 51 -20.5 78t-57.5 27q-62 0 -123 -66q-56 -60 -66 -130q20 42 68 42q32 0 55 -22.5t23 -54.5t-23 -55t-55 -23z" />
    <glyph glyph-name="omacron" unicode="&#x14d;" horiz-adv-x="509" 
d="M365 452q58 0 91 -33.5t33 -88.5q0 -74 -53 -153t-134.5 -130.5t-158.5 -51.5q-58 0 -90.5 33.5t-32.5 89.5q0 74 53 152.5t134 130t158 51.5zM147 5q42 0 102.5 74t103.5 167.5t43 147.5q0 48 -36 48q-46 0 -106 -72t-100.5 -164t-40.5 -151q0 -50 34 -50zM584 593v-20
h-330v20h330z" />
    <glyph glyph-name="Obreve" unicode="&#x14e;" horiz-adv-x="719" 
d="M662 856q42 0 86 23.5t70 58.5h11q-22 -53 -76.5 -92t-107.5 -39q-35 0 -54.5 19.5t-19.5 50.5t16 61h1h11q-13 -35 5 -58.5t58 -23.5zM443 370q-36 0 -59 27.5t-23 66.5q0 78 71 157q74 79 165 79q79 0 125.5 -52t46.5 -135q0 -88 -49.5 -182.5t-125 -167.5
t-171.5 -120.5t-184 -47.5q-89 0 -139 52t-50 138q0 152 133.5 305.5t302.5 199.5l4 -8q-35 -19 -66 -53q-30 -32 -51 -73q-86 -103 -141.5 -232.5t-55.5 -217.5q0 -47 17.5 -73t50.5 -26q78 0 172 100.5t158 234.5t68 232q1 51 -20.5 78t-57.5 27q-62 0 -123 -66
q-56 -60 -66 -130q20 42 68 42q32 0 55 -22.5t23 -54.5t-23 -55t-55 -23z" />
    <glyph glyph-name="obreve" unicode="&#x14f;" horiz-adv-x="509" 
d="M365 452q58 0 91 -33.5t33 -88.5q0 -74 -53 -153t-134.5 -130.5t-158.5 -51.5q-58 0 -90.5 33.5t-32.5 89.5q0 74 53 152.5t134 130t158 51.5zM147 5q42 0 102.5 74t103.5 167.5t43 147.5q0 48 -36 48q-46 0 -106 -72t-100.5 -164t-40.5 -151q0 -50 34 -50zM427 609
q42 0 86 23.5t70 58.5h11q-22 -53 -76.5 -92t-107.5 -39q-35 0 -54.5 19.5t-19.5 50.5t16 61h1h11q-13 -35 5 -58.5t58 -23.5z" />
    <glyph glyph-name="Ohungarumlaut" unicode="&#x150;" horiz-adv-x="719" 
d="M734 915l-245 -115l-7 10l164 131l83 -16zM924 915l-246 -115l-6 10l163 131l84 -16zM443 370q-36 0 -59 27.5t-23 66.5q0 78 71 157q74 79 165 79q79 0 125.5 -52t46.5 -135q0 -88 -49.5 -182.5t-125 -167.5t-171.5 -120.5t-184 -47.5q-89 0 -139 52t-50 138
q0 152 133.5 305.5t302.5 199.5l4 -8q-35 -19 -66 -53q-30 -32 -51 -73q-86 -103 -141.5 -232.5t-55.5 -217.5q0 -47 17.5 -73t50.5 -26q78 0 172 100.5t158 234.5t68 232q1 51 -20.5 78t-57.5 27q-62 0 -123 -66q-56 -60 -66 -130q20 42 68 42q32 0 55 -22.5t23 -54.5
t-23 -55t-55 -23z" />
    <glyph glyph-name="ohungarumlaut" unicode="&#x151;" horiz-adv-x="509" 
d="M365 452q58 0 91 -33.5t33 -88.5q0 -74 -53 -153t-134.5 -130.5t-158.5 -51.5q-58 0 -90.5 33.5t-32.5 89.5q0 74 53 152.5t134 130t158 51.5zM147 5q42 0 102.5 74t103.5 167.5t43 147.5q0 48 -36 48q-46 0 -106 -72t-100.5 -164t-40.5 -151q0 -50 34 -50zM489 665
l-245 -115l-7 10l164 131l83 -16zM679 665l-246 -115l-6 10l163 131l84 -16z" />
    <glyph glyph-name="OE" unicode="&#x152;" horiz-adv-x="0" 
 />
    <glyph glyph-name="oe" unicode="&#x153;" horiz-adv-x="0" 
 />
    <glyph glyph-name="Racute" unicode="&#x154;" horiz-adv-x="991" 
d="M1081 -134q0 -48 -35.5 -78.5t-83.5 -30.5q-59 0 -110 51q-82 84 -126.5 263t-38.5 294q81 11 148 87t67 156q0 35 -18 57.5t-48 22.5h-54q-11 -23 -89 -183q-60 -124 -116 -216.5t-125 -161.5q-130 -132 -277 -132q-74 0 -119.5 39.5t-45.5 106.5q0 87 71.5 176
t176.5 144q9 93 132 164q117 67 275 74q36 34 80 34h59q-2 -3 -7 -14t-9 -19h103q56 0 92 -35t36 -87q0 -70 -71.5 -137.5t-186.5 -82.5q12 0 25 -4t13 -8q6 -189 69 -330q-32 -71 -23 -135.5t53 -93.5q30 -18 64 -18q47 0 76 28q-38 -20 -75 3t-37 66q0 32 23 55t55 23
t54.5 -23t22.5 -55zM426 264q44 75 115.5 227t110.5 195q-52 -3 -112 -16q-79 -19 -144 -56q-53 -29 -89 -71q-13 -17 -25 -39q22 20 52 20q32 0 55 -22.5t23 -54.5t-23 -55t-55 -23t-54.5 23t-22.5 55q-81 -44 -142 -110q-93 -99 -93 -196q0 -62 42 -98q32 -27 74 -27
q43 0 86.5 23t81 62.5t66 78.5t54.5 84zM1034 915l-246 -115l-6 10l163 131l84 -16z" />
    <glyph glyph-name="racute" unicode="&#x155;" horiz-adv-x="403" 
d="M463 392q0 -25 -17.5 -42.5t-42.5 -17.5t-42.5 17.5t-17.5 42.5q0 43 39 57q-37 -4 -80 -55q-34 -41 -64 -96l-108 -222q-28 -59 -16 -78q-14 -3 -28 -3q-31 0 -48.5 18t-17.5 48q0 27 15 57l123 256q14 28 14 44q0 19 -14 19q-20 0 -58 -31l-7 8q47 38 100 38
q42 0 61 -26t10 -66q67 99 126 99q29 0 50.5 -19t22.5 -47v-1zM505 666l-246 -115l-6 10l163 131l84 -16z" />
    <glyph glyph-name="Rcedilla" unicode="&#x156;" horiz-adv-x="991" 
d="M1081 -134q0 -48 -35.5 -78.5t-83.5 -30.5q-59 0 -110 51q-82 84 -126.5 263t-38.5 294q81 11 148 87t67 156q0 35 -18 57.5t-48 22.5h-54q-11 -23 -89 -183q-60 -124 -116 -216.5t-125 -161.5q-130 -132 -277 -132q-74 0 -119.5 39.5t-45.5 106.5q0 87 71.5 176
t176.5 144q9 93 132 164q117 67 275 74q36 34 80 34h59q-2 -3 -7 -14t-9 -19h103q56 0 92 -35t36 -87q0 -70 -71.5 -137.5t-186.5 -82.5q12 0 25 -4t13 -8q6 -189 69 -330q-32 -71 -23 -135.5t53 -93.5q30 -18 64 -18q47 0 76 28q-38 -20 -75 3t-37 66q0 32 23 55t55 23
t54.5 -23t22.5 -55zM426 264q44 75 115.5 227t110.5 195q-52 -3 -112 -16q-79 -19 -144 -56q-53 -29 -89 -71q-13 -17 -25 -39q22 20 52 20q32 0 55 -22.5t23 -54.5t-23 -55t-55 -23t-54.5 23t-22.5 55q-81 -44 -142 -110q-93 -99 -93 -196q0 -62 42 -98q32 -27 74 -27
q43 0 86.5 23t81 62.5t66 78.5t54.5 84zM567 -87q16 -32 -11 -77t-73 -67l-5 11q54 26 75 77q-22 -17 -46.5 -4.5t-24.5 40.5q0 19 13 32t32 13q28 0 40 -25z" />
    <glyph glyph-name="rcedilla" unicode="&#x157;" horiz-adv-x="403" 
d="M463 392q0 -25 -17.5 -42.5t-42.5 -17.5t-42.5 17.5t-17.5 42.5q0 43 39 57q-37 -4 -80 -55q-34 -41 -64 -96l-108 -222q-28 -59 -16 -78q-14 -3 -28 -3q-31 0 -48.5 18t-17.5 48q0 27 15 57l123 256q14 28 14 44q0 19 -14 19q-20 0 -58 -31l-7 8q47 38 100 38
q42 0 61 -26t10 -66q67 99 126 99q29 0 50.5 -19t22.5 -47v-1zM32 -87q16 -32 -11 -77t-73 -67l-5 11q54 26 75 77q-22 -17 -46.5 -4.5t-24.5 40.5q0 19 13 32t32 13q28 0 40 -25z" />
    <glyph glyph-name="Rcaron" unicode="&#x158;" horiz-adv-x="991" 
d="M1081 -134q0 -48 -35.5 -78.5t-83.5 -30.5q-59 0 -110 51q-82 84 -126.5 263t-38.5 294q81 11 148 87t67 156q0 35 -18 57.5t-48 22.5h-54q-11 -23 -89 -183q-60 -124 -116 -216.5t-125 -161.5q-130 -132 -277 -132q-74 0 -119.5 39.5t-45.5 106.5q0 87 71.5 176
t176.5 144q9 93 132 164q117 67 275 74q36 34 80 34h59q-2 -3 -7 -14t-9 -19h103q56 0 92 -35t36 -87q0 -70 -71.5 -137.5t-186.5 -82.5q12 0 25 -4t13 -8q6 -189 69 -330q-32 -71 -23 -135.5t53 -93.5q30 -18 64 -18q47 0 76 28q-38 -20 -75 3t-37 66q0 32 23 55t55 23
t54.5 -23t22.5 -55zM426 264q44 75 115.5 227t110.5 195q-52 -3 -112 -16q-79 -19 -144 -56q-53 -29 -89 -71q-13 -17 -25 -39q22 20 52 20q32 0 55 -22.5t23 -54.5t-23 -55t-55 -23t-54.5 23t-22.5 55q-81 -44 -142 -110q-93 -99 -93 -196q0 -62 42 -98q32 -27 74 -27
q43 0 86.5 23t81 62.5t66 78.5t54.5 84zM1039 941l6 -10l-188 -131h-42l-57 131l10 5l90 -81z" />
    <glyph glyph-name="rcaron" unicode="&#x159;" horiz-adv-x="403" 
d="M463 392q0 -25 -17.5 -42.5t-42.5 -17.5t-42.5 17.5t-17.5 42.5q0 43 39 57q-37 -4 -80 -55q-34 -41 -64 -96l-108 -222q-28 -59 -16 -78q-14 -3 -28 -3q-31 0 -48.5 18t-17.5 48q0 27 15 57l123 256q14 28 14 44q0 19 -14 19q-20 0 -58 -31l-7 8q47 38 100 38
q42 0 61 -26t10 -66q67 99 126 99q29 0 50.5 -19t22.5 -47v-1zM509 691l6 -10l-188 -131h-42l-57 131l10 5l90 -81z" />
    <glyph glyph-name="Sacute" unicode="&#x15a;" horiz-adv-x="597" 
d="M631 639q36 -38 36 -79q0 -32 -22.5 -55t-54.5 -23t-55 23t-23 55q0 43 36.5 65.5t74.5 3.5q-56 59 -144 59q-58 0 -106.5 -27t-48.5 -76q0 -34 23 -72.5t55.5 -76.5t64.5 -80t55 -96.5t23 -110.5q0 -98 -65 -190t-162.5 -147t-192.5 -55q-81 0 -125 44t-39 112
q4 66 45 129.5t99 112.5q118 100 247 112q-67 83 -86 120q-26 51 -26 103q0 89 74 149.5t165 60.5q93 0 152 -61zM284 -191q76 36 125 98t48 138q0 58 -24.5 106t-70.5 105q-126 -7 -249 -110q-57 -48 -96.5 -109.5t-43.5 -124.5t36 -103t116 -40q77 0 159 40zM695 915
l-246 -115l-6 10l163 131l84 -16z" />
    <glyph glyph-name="sacute" unicode="&#x15b;" horiz-adv-x="391" 
d="M381 394q0 -47 -73 -125q38 -67 38 -115q0 -68 -63.5 -113.5t-139.5 -45.5q-51 0 -93 24.5t-42 63.5q0 25 17.5 42.5t42.5 17.5q27 0 46 -22q48 33 98 74q-36 63 -36 109q0 61 43.5 104.5t99.5 43.5q28 0 45 -16t17 -42zM143 5q44 0 81 18t37 53q0 34 -38 100q-5 8 -6 10
q-43 -35 -97 -74q17 -30 -1 -60q-19 -32 -55 -29q38 -18 79 -18zM371 394q0 22 -14 35t-38 13t-41 -15.5t-17 -41.5q0 -33 42 -107q68 74 68 116zM485 666l-246 -115l-6 10l163 131l84 -16z" />
    <glyph glyph-name="Scircumflex" unicode="&#x15c;" horiz-adv-x="597" 
d="M631 639q36 -38 36 -79q0 -32 -22.5 -55t-54.5 -23t-55 23t-23 55q0 43 36.5 65.5t74.5 3.5q-56 59 -144 59q-58 0 -106.5 -27t-48.5 -76q0 -34 23 -72.5t55.5 -76.5t64.5 -80t55 -96.5t23 -110.5q0 -98 -65 -190t-162.5 -147t-192.5 -55q-81 0 -125 44t-39 112
q4 66 45 129.5t99 112.5q118 100 247 112q-67 83 -86 120q-26 51 -26 103q0 89 74 149.5t165 60.5q93 0 152 -61zM284 -191q76 36 125 98t48 138q0 58 -24.5 106t-70.5 105q-126 -7 -249 -110q-57 -48 -96.5 -109.5t-43.5 -124.5t36 -103t116 -40q77 0 159 40zM393 800
l-6 10l188 131h42l57 -131l-10 -5l-90 81z" />
    <glyph glyph-name="scircumflex" unicode="&#x15d;" horiz-adv-x="391" 
d="M381 394q0 -47 -73 -125q38 -67 38 -115q0 -68 -63.5 -113.5t-139.5 -45.5q-51 0 -93 24.5t-42 63.5q0 25 17.5 42.5t42.5 17.5q27 0 46 -22q48 33 98 74q-36 63 -36 109q0 61 43.5 104.5t99.5 43.5q28 0 45 -16t17 -42zM143 5q44 0 81 18t37 53q0 34 -38 100q-5 8 -6 10
q-43 -35 -97 -74q17 -30 -1 -60q-19 -32 -55 -29q38 -18 79 -18zM371 394q0 22 -14 35t-38 13t-41 -15.5t-17 -41.5q0 -33 42 -107q68 74 68 116zM169 550l-6 10l188 131h42l57 -131l-10 -5l-90 81z" />
    <glyph glyph-name="scedilla" unicode="&#x15f;" horiz-adv-x="391" 
d="M381 394q0 -47 -73 -125q38 -67 38 -115q0 -68 -63.5 -113.5t-139.5 -45.5q-27 0 -51 7l-23 -50q29 18 58 18t46 -12.5t17 -33.5q0 -30 -31 -55t-69 -25q-26 0 -43 14t-17 35h8q0 -25 23.5 -35.5t48.5 11.5q28 28 28 62q0 25 -22.5 27.5t-54.5 -21.5l-5 6l30 61
q-78 24 -78 79q0 25 17.5 42.5t42.5 17.5q27 0 46 -22q48 33 98 74q-36 63 -36 109q0 61 43.5 104.5t99.5 43.5q28 0 45 -16t17 -42zM143 5q44 0 81 18t37 53q0 34 -38 100q-5 8 -6 10q-43 -35 -97 -74q17 -30 -1 -60q-19 -32 -55 -29q38 -18 79 -18zM303 278q68 74 68 116
q0 22 -14 35t-38 13t-41 -15.5t-17 -41.5q0 -33 42 -107z" />
    <glyph glyph-name="Scaron" unicode="&#x160;" horiz-adv-x="597" 
d="M631 639q36 -38 36 -79q0 -32 -22.5 -55t-54.5 -23t-55 23t-23 55q0 43 36.5 65.5t74.5 3.5q-56 59 -144 59q-58 0 -106.5 -27t-48.5 -76q0 -34 23 -72.5t55.5 -76.5t64.5 -80t55 -96.5t23 -110.5q0 -98 -65 -190t-162.5 -147t-192.5 -55q-81 0 -125 44t-39 112
q4 66 45 129.5t99 112.5q118 100 247 112q-67 83 -86 120q-26 51 -26 103q0 89 74 149.5t165 60.5q93 0 152 -61zM284 -191q76 36 125 98t48 138q0 58 -24.5 106t-70.5 105q-126 -7 -249 -110q-57 -48 -96.5 -109.5t-43.5 -124.5t36 -103t116 -40q77 0 159 40zM738 941
l6 -10l-188 -131h-42l-57 131l10 5l90 -81z" />
    <glyph glyph-name="scaron" unicode="&#x161;" horiz-adv-x="391" 
d="M381 394q0 -47 -73 -125q38 -67 38 -115q0 -68 -63.5 -113.5t-139.5 -45.5q-51 0 -93 24.5t-42 63.5q0 25 17.5 42.5t42.5 17.5q27 0 46 -22q48 33 98 74q-36 63 -36 109q0 61 43.5 104.5t99.5 43.5q28 0 45 -16t17 -42zM143 5q44 0 81 18t37 53q0 34 -38 100q-5 8 -6 10
q-43 -35 -97 -74q17 -30 -1 -60q-19 -32 -55 -29q38 -18 79 -18zM371 394q0 22 -14 35t-38 13t-41 -15.5t-17 -41.5q0 -33 42 -107q68 74 68 116zM527 691l6 -10l-188 -131h-42l-57 131l10 5l90 -81z" />
    <glyph glyph-name="tcedilla" unicode="&#x163;" horiz-adv-x="299" 
d="M370 452v-10h-159q36 0 51.5 -27t-5.5 -77l-132 -275q-17 -35 -6 -45.5t35 3.5q59 29 106 103l8 -5q-39 -64 -87 -94t-90 -30q-37 0 -55 20l-30 -63q29 18 58 18t46 -12.5t17 -33.5q0 -30 -31.5 -55t-68.5 -25q-26 0 -43 14t-17 35h8q0 -25 23.5 -35.5t48.5 11.5
q28 28 28 62q0 25 -22.5 27.5t-54.5 -21.5l-5 6l38 77q-26 37 4 98l122 252q14 32 4.5 52t-34.5 20h-13v10q74 0 133.5 32.5t84.5 69.5h10l-49 -102h77z" />
    <glyph glyph-name="Tcaron" unicode="&#x164;" horiz-adv-x="907" 
d="M284 447q0 51 31 97q30 44 86 81q120 75 292 75h402l12 -12q0 -45 -40 -78.5t-109 -33.5q-21 0 -40.5 2.5t-41.5 10t-32.5 11.5t-38 16t-34.5 15q-7 -15 -30.5 -62.5t-51 -103t-55.5 -113.5q-116 -239 -125 -257q-77 -147 -187.5 -242.5t-238.5 -95.5q-73 0 -118 39
t-45 106q0 84 67 171t169.5 143t200.5 56v-12q-95 0 -195 -55t-165 -139t-65 -164q0 -61 41 -97q31 -26 74 -26q164 -1 350 362q26 50 102 214q120 258 255 283q-74 30 -151 30q-111 0 -196 -54q-77 -48 -101 -113q23 23 55 23t55 -22.5t23 -54.5t-23 -55t-55 -23t-54.5 23
t-22.5 55zM1007 941l6 -10l-188 -131h-42l-57 131l10 5l90 -81z" />
    <glyph glyph-name="tcaron" unicode="&#x165;" horiz-adv-x="300" 
d="M126 63l132 275q21 50 5.5 77t-51.5 27h159v10h-77l49 102h-10q-25 -37 -84.5 -69.5t-133.5 -32.5v-10h13q25 0 34.5 -20t-4.5 -52l-122 -252q-25 -50 -10 -86.5t66 -36.5q42 0 90 30t87 94l-8 5q-47 -74 -106 -103q-24 -13 -34 -3.5t5 45.5zM499 675q16 -32 -11 -77
t-73 -67l-5 11q54 26 75 77q-22 -17 -46.5 -4.5t-24.5 40.5q0 19 13 32t32 13q28 0 40 -25z" />
    <glyph glyph-name="Umacron" unicode="&#x16a;" horiz-adv-x="820" 
d="M80 447q0 45 28 93q25 43 74 81q48 36 108 57q62 22 131 22h178v-12h-75q38 -24 23 -85q-3 -13 -29 -71l-206 -426q-20 -40 -20 -65q0 -27 23 -27q33 0 86 39q67 50 118 138q1 3 2.5 6t4.5 8t11.5 23t20.5 44l166 343q27 56 -1 73h-46v12h223v-12h-74q37 -24 23 -85
q-3 -9 -30 -71l-206 -426q-19 -41 -19 -65q0 -27 22 -27q32 0 87 39q65 48 118 138l10 -6q-53 -91 -120 -140.5t-132 -49.5q-46 0 -71 24.5t-25 60.5q0 23 8 47q-101 -132 -214 -132q-46 0 -70.5 24t-24.5 61q0 10 2 21.5t3.5 19t7.5 21l8 18t10 22t10 20.5l200 413
q26 55 -2 73q-110 0 -200 -55.5t-119 -131.5q23 23 55 23t55 -22.5t23 -54.5t-23 -55t-55 -23t-54.5 23t-22.5 55zM891 841v-20h-330v20h330z" />
    <glyph glyph-name="umacron" unicode="&#x16b;" 
d="M496 124l9 -5q-40 -64 -88.5 -94t-89.5 -30q-43 0 -60 26t-7 67q-74 -93 -158 -93q-38 0 -60 18t-22 50q0 24 31 91l106 220q14 28 14 44q0 19 -14 19q-20 0 -58 -31l-6 8q47 38 99 38q35 0 54.5 -18.5t19.5 -48.5q0 -25 -14 -56l-124 -256q-13 -26 -13 -44q0 -25 22 -19
q44 12 82 48.5t61 76.5l114 236q28 60 16 78q13 3 28 3q32 0 49 -18t17 -48q0 -24 -14 -57l-129 -266q-17 -35 -5.5 -45.5t34.5 3.5q62 31 106 103zM571 593v-20h-330v20h330z" />
    <glyph glyph-name="Ubreve" unicode="&#x16c;" horiz-adv-x="820" 
d="M80 447q0 45 28 93q25 43 74 81q48 36 108 57q62 22 131 22h178v-12h-75q38 -24 23 -85q-3 -13 -29 -71l-206 -426q-20 -40 -20 -65q0 -27 23 -27q33 0 86 39q67 50 118 138q1 3 2.5 6t4.5 8t11.5 23t20.5 44l166 343q27 56 -1 73h-46v12h223v-12h-74q37 -24 23 -85
q-3 -9 -30 -71l-206 -426q-19 -41 -19 -65q0 -27 22 -27q32 0 87 39q65 48 118 138l10 -6q-53 -91 -120 -140.5t-132 -49.5q-46 0 -71 24.5t-25 60.5q0 23 8 47q-101 -132 -214 -132q-46 0 -70.5 24t-24.5 61q0 10 2 21.5t3.5 19t7.5 21l8 18t10 22t10 20.5l200 413
q26 55 -2 73q-110 0 -200 -55.5t-119 -131.5q23 23 55 23t55 -22.5t23 -54.5t-23 -55t-55 -23t-54.5 23t-22.5 55zM709 856q42 0 86 23.5t70 58.5h11q-22 -53 -76.5 -92t-107.5 -39q-35 0 -54.5 19.5t-19.5 50.5t16 61h1h11q-13 -35 5 -58.5t58 -23.5z" />
    <glyph glyph-name="ubreve" unicode="&#x16d;" 
d="M496 124l9 -5q-40 -64 -88.5 -94t-89.5 -30q-43 0 -60 26t-7 67q-74 -93 -158 -93q-38 0 -60 18t-22 50q0 24 31 91l106 220q14 28 14 44q0 19 -14 19q-20 0 -58 -31l-6 8q47 38 99 38q35 0 54.5 -18.5t19.5 -48.5q0 -25 -14 -56l-124 -256q-13 -26 -13 -44q0 -25 22 -19
q44 12 82 48.5t61 76.5l114 236q28 60 16 78q13 3 28 3q32 0 49 -18t17 -48q0 -24 -14 -57l-129 -266q-17 -35 -5.5 -45.5t34.5 3.5q62 31 106 103zM394 609q42 0 86 23.5t70 58.5h11q-22 -53 -76.5 -92t-107.5 -39q-35 0 -54.5 19.5t-19.5 50.5t16 61h1h11q-13 -35 5 -58.5
t58 -23.5z" />
    <glyph glyph-name="Uring" unicode="&#x16e;" horiz-adv-x="820" 
d="M80 447q0 45 28 93q25 43 74 81q48 36 108 57q62 22 131 22h178v-12h-75q38 -24 23 -85q-3 -13 -29 -71l-206 -426q-20 -40 -20 -65q0 -27 23 -27q33 0 86 39q67 50 118 138q1 3 2.5 6t4.5 8t11.5 23t20.5 44l166 343q27 56 -1 73h-46v12h223v-12h-74q37 -24 23 -85
q-3 -9 -30 -71l-206 -426q-19 -41 -19 -65q0 -27 22 -27q32 0 87 39q65 48 118 138l10 -6q-53 -91 -120 -140.5t-132 -49.5q-46 0 -71 24.5t-25 60.5q0 23 8 47q-101 -132 -214 -132q-46 0 -70.5 24t-24.5 61q0 10 2 21.5t3.5 19t7.5 21l8 18t10 22t10 20.5l200 413
q26 55 -2 73q-110 0 -200 -55.5t-119 -131.5q23 23 55 23t55 -22.5t23 -54.5t-23 -55t-55 -23t-54.5 23t-22.5 55zM696 941q29 0 50 -20.5t21 -49.5t-21 -50t-50 -21t-49.5 21t-20.5 50t20.5 49.5t49.5 20.5zM696 820q21 0 36 15t15 36t-15 35.5t-36 14.5t-35.5 -14.5
t-14.5 -35.5t14.5 -36t35.5 -15z" />
    <glyph glyph-name="uring" unicode="&#x16f;" 
d="M496 124l9 -5q-40 -64 -88.5 -94t-89.5 -30q-43 0 -60 26t-7 67q-74 -93 -158 -93q-38 0 -60 18t-22 50q0 24 31 91l106 220q14 28 14 44q0 19 -14 19q-20 0 -58 -31l-6 8q47 38 99 38q35 0 54.5 -18.5t19.5 -48.5q0 -25 -14 -56l-124 -256q-13 -26 -13 -44q0 -25 22 -19
q44 12 82 48.5t61 76.5l114 236q28 60 16 78q13 3 28 3q32 0 49 -18t17 -48q0 -24 -14 -57l-129 -266q-17 -35 -5.5 -45.5t34.5 3.5q62 31 106 103zM401 694q29 0 50 -20.5t21 -49.5t-21 -50t-50 -21t-49.5 21t-20.5 50t20.5 49.5t49.5 20.5zM401 573q21 0 36 15t15 36
t-15 35.5t-36 14.5t-35.5 -14.5t-14.5 -35.5t14.5 -36t35.5 -15z" />
    <glyph glyph-name="Uhungarumlaut" unicode="&#x170;" horiz-adv-x="820" 
d="M80 447q0 45 28 93q25 43 74 81q48 36 108 57q62 22 131 22h178v-12h-75q38 -24 23 -85q-3 -13 -29 -71l-206 -426q-20 -40 -20 -65q0 -27 23 -27q33 0 86 39q67 50 118 138q1 3 2.5 6t4.5 8t11.5 23t20.5 44l166 343q27 56 -1 73h-46v12h223v-12h-74q37 -24 23 -85
q-3 -9 -30 -71l-206 -426q-19 -41 -19 -65q0 -27 22 -27q32 0 87 39q65 48 118 138l10 -6q-53 -91 -120 -140.5t-132 -49.5q-46 0 -71 24.5t-25 60.5q0 23 8 47q-101 -132 -214 -132q-46 0 -70.5 24t-24.5 61q0 10 2 21.5t3.5 19t7.5 21l8 18t10 22t10 20.5l200 413
q26 55 -2 73q-110 0 -200 -55.5t-119 -131.5q23 23 55 23t55 -22.5t23 -54.5t-23 -55t-55 -23t-54.5 23t-22.5 55zM796 915l-245 -115l-7 10l164 131l83 -16zM986 915l-246 -115l-6 10l163 131l84 -16z" />
    <glyph glyph-name="uhungarumlaut" unicode="&#x171;" 
d="M496 124l9 -5q-40 -64 -88.5 -94t-89.5 -30q-43 0 -60 26t-7 67q-74 -93 -158 -93q-38 0 -60 18t-22 50q0 24 31 91l106 220q14 28 14 44q0 19 -14 19q-20 0 -58 -31l-6 8q47 38 99 38q35 0 54.5 -18.5t19.5 -48.5q0 -25 -14 -56l-124 -256q-13 -26 -13 -44q0 -25 22 -19
q44 12 82 48.5t61 76.5l114 236q28 60 16 78q13 3 28 3q32 0 49 -18t17 -48q0 -24 -14 -57l-129 -266q-17 -35 -5.5 -45.5t34.5 3.5q62 31 106 103zM459 665l-245 -115l-7 10l164 131l83 -16zM649 665l-246 -115l-6 10l163 131l84 -16z" />
    <glyph glyph-name="Uogonek" unicode="&#x172;" horiz-adv-x="820" 
d="M329 -91l6 -5q-38 -40 -80 -40q-19 0 -30 11t-11 29q0 28 24 56.5t55 42.5l17 -1q-21 -12 -37.5 -36.5t-16.5 -48.5q0 -32 30 -32q21 0 43 24zM80 447q0 45 28 93q25 43 74 81q48 36 108 57q62 22 131 22h178v-12h-75q38 -24 23 -85q-3 -13 -29 -71l-206 -426
q-20 -40 -20 -65q0 -27 23 -27q33 0 86 39q67 50 118 138q1 3 2.5 6t4.5 8t11.5 23t20.5 44l166 343q27 56 -1 73h-46v12h223v-12h-74q37 -24 23 -85q-3 -9 -30 -71l-206 -426q-19 -41 -19 -65q0 -27 22 -27q32 0 87 39q65 48 118 138l10 -6q-53 -91 -120 -140.5t-132 -49.5
q-46 0 -71 24.5t-25 60.5q0 23 8 47q-101 -132 -214 -132q-46 0 -70.5 24t-24.5 61q0 10 2 21.5t3.5 19t7.5 21l8 18t10 22t10 20.5l200 413q26 55 -2 73q-110 0 -200 -55.5t-119 -131.5q23 23 55 23t55 -22.5t23 -54.5t-23 -55t-55 -23t-54.5 23t-22.5 55z" />
    <glyph glyph-name="uogonek" unicode="&#x173;" 
d="M496 124l9 -5q-40 -64 -88.5 -94t-89.5 -30q-43 0 -60 26t-7 67q-74 -93 -158 -93q-38 0 -60 18t-22 50q0 24 31 91l106 220q14 28 14 44q0 19 -14 19q-20 0 -58 -31l-6 8q47 38 99 38q35 0 54.5 -18.5t19.5 -48.5q0 -25 -14 -56l-124 -256q-13 -26 -13 -44q0 -25 22 -19
q44 12 82 48.5t61 76.5l114 236q28 60 16 78q13 3 28 3q32 0 49 -18t17 -48q0 -24 -14 -57l-129 -266q-17 -35 -5.5 -45.5t34.5 3.5q62 31 106 103zM362 -91l6 -5q-38 -40 -80 -40q-19 0 -30 11t-11 29q0 28 24 56.5t55 42.5l17 -1q-21 -12 -37.5 -36.5t-16.5 -48.5
q0 -32 30 -32q21 0 43 24z" />
    <glyph glyph-name="Ydieresis" unicode="&#x178;" horiz-adv-x="657" 
d="M596 700h261v-12q-59 0 -98.5 -28t-86.5 -95l-156 -222l-160 -331h82v-12h-140h-82v12h74q-27 18 -27 53q0 31 34 103l85 176q5 31 -36 130.5t-41 134.5q0 70 59 79q-95 0 -182 -74q-61 -52 -81 -115q22 25 56 25q32 0 55 -22.5t23 -54.5t-23 -55t-55 -23t-54.5 23
t-22.5 55q0 97 94 177q92 76 190 76h139v-12h-73q-17 -10 -17 -37q0 -33 48 -149t40 -158l156 221q41 59 27 91t-75 32h-13v12zM711 870q0 -17 -12.5 -29.5t-29.5 -12.5t-29.5 12.5t-12.5 29.5q0 18 12.5 30.5t29.5 12.5t29.5 -12.5t12.5 -30.5zM580 870q0 -17 -12.5 -29.5
t-30.5 -12.5q-17 0 -29.5 12.5t-12.5 29.5q0 18 12.5 30.5t29.5 12.5q18 0 30.5 -12.5t12.5 -30.5z" />
    <glyph glyph-name="Zacute" unicode="&#x179;" horiz-adv-x="662" 
d="M136 181q-76 -70 -112 -130q76 81 178 87q48 2 95.5 -19.5t79.5 -49t68 -51t63 -23.5q26 0 48 22q28 29 42 61q-23 -21 -54 -21q-32 0 -54.5 22.5t-22.5 54.5t22.5 55t54.5 23t55 -23t23 -55q0 -71 -62 -131t-142 -60q-44 0 -90 19t-79 42t-74.5 42t-77.5 19
q-68 0 -97 -66l-12 4q30 87 140 186q55 51 228 180q186 136 260 209h-356q-32 0 -54 -20l-11 5l58 122q7 15 25 15h433l11 -6q-42 -78 -147 -171q-60 -52 -212 -164q-162 -119 -227 -178zM692 915l-246 -115l-6 10l163 131l84 -16z" />
    <glyph glyph-name="zacute" unicode="&#x17a;" horiz-adv-x="469" 
d="M521 666l-246 -115l-6 10l163 131l84 -16zM242 231q-56 -41 -87.5 -64.5t-71 -60t-60.5 -66.5q59 72 124 72q31 0 59 -15t45.5 -33t41 -33t45.5 -15q13 0 21 8q18 21 24 46q-15 -24 -42 -27t-47.5 14t-20.5 46q0 25 17.5 42.5t42.5 17.5q27 0 45 -20.5t18 -51.5
q0 -47 -41.5 -87.5t-94.5 -40.5q-44 0 -103.5 40.5t-93.5 40.5q-44 0 -61 -43l-3 -6l-9 3q10 31 33 61t66 66.5t66.5 54.5t80.5 59q93 65 144 109h-220q-22 0 -36 -14l-9 4l50 105q4 9 16 9h289l9 -4q-18 -35 -60.5 -77t-77 -68t-99.5 -72z" />
    <glyph glyph-name="Zdotaccent" unicode="&#x17b;" horiz-adv-x="662" 
d="M136 181q-76 -70 -112 -130q76 81 178 87q48 2 95.5 -19.5t79.5 -49t68 -51t63 -23.5q26 0 48 22q28 29 42 61q-23 -21 -54 -21q-32 0 -54.5 22.5t-22.5 54.5t22.5 55t54.5 23t55 -23t23 -55q0 -71 -62 -131t-142 -60q-44 0 -90 19t-79 42t-74.5 42t-77.5 19
q-68 0 -97 -66l-12 4q30 87 140 186q55 51 228 180q186 136 260 209h-356q-32 0 -54 -20l-11 5l58 122q7 15 25 15h433l11 -6q-42 -78 -147 -171q-60 -52 -212 -164q-162 -119 -227 -178zM610 875q0 -17 -12.5 -29.5t-30.5 -12.5q-17 0 -29.5 12.5t-12.5 29.5
q0 18 12.5 30.5t29.5 12.5q18 0 30.5 -12.5t12.5 -30.5z" />
    <glyph glyph-name="zdotaccent" unicode="&#x17c;" horiz-adv-x="469" 
d="M439 628q0 -19 -13 -32t-32 -13t-32 13t-13 32t13 32t32 13t32 -13t13 -32zM242 231q-56 -41 -87.5 -64.5t-71 -60t-60.5 -66.5q59 72 124 72q31 0 59 -15t45.5 -33t41 -33t45.5 -15q13 0 21 8q18 21 24 46q-15 -24 -42 -27t-47.5 14t-20.5 46q0 25 17.5 42.5t42.5 17.5
q27 0 45 -20.5t18 -51.5q0 -47 -41.5 -87.5t-94.5 -40.5q-44 0 -103.5 40.5t-93.5 40.5q-44 0 -61 -43l-3 -6l-9 3q10 31 33 61t66 66.5t66.5 54.5t80.5 59q93 65 144 109h-220q-22 0 -36 -14l-9 4l50 105q4 9 16 9h289l9 -4q-18 -35 -60.5 -77t-77 -68t-99.5 -72z" />
    <glyph glyph-name="Zcaron" unicode="&#x17d;" horiz-adv-x="662" 
d="M136 181q-76 -70 -112 -130q76 81 178 87q48 2 95.5 -19.5t79.5 -49t68 -51t63 -23.5q26 0 48 22q28 29 42 61q-23 -21 -54 -21q-32 0 -54.5 22.5t-22.5 54.5t22.5 55t54.5 23t55 -23t23 -55q0 -71 -62 -131t-142 -60q-44 0 -90 19t-79 42t-74.5 42t-77.5 19
q-68 0 -97 -66l-12 4q30 87 140 186q55 51 228 180q186 136 260 209h-356q-32 0 -54 -20l-11 5l58 122q7 15 25 15h433l11 -6q-42 -78 -147 -171q-60 -52 -212 -164q-162 -119 -227 -178zM699 941l6 -10l-188 -131h-42l-57 131l10 5l90 -81z" />
    <glyph glyph-name="zcaron" unicode="&#x17e;" horiz-adv-x="469" 
d="M558 691l6 -10l-188 -131h-42l-57 131l10 5l90 -81zM242 231q-56 -41 -87.5 -64.5t-71 -60t-60.5 -66.5q59 72 124 72q31 0 59 -15t45.5 -33t41 -33t45.5 -15q13 0 21 8q18 21 24 46q-15 -24 -42 -27t-47.5 14t-20.5 46q0 25 17.5 42.5t42.5 17.5q27 0 45 -20.5t18 -51.5
q0 -47 -41.5 -87.5t-94.5 -40.5q-44 0 -103.5 40.5t-93.5 40.5q-44 0 -61 -43l-3 -6l-9 3q10 31 33 61t66 66.5t66.5 54.5t80.5 59q93 65 144 109h-220q-22 0 -36 -14l-9 4l50 105q4 9 16 9h289l9 -4q-18 -35 -60.5 -77t-77 -68t-99.5 -72z" />
    <glyph glyph-name="florin" unicode="&#x192;" horiz-adv-x="482" 
d="M480 700q46 0 74 -25t27 -64q0 -25 -17.5 -42.5t-42.5 -17.5t-42.5 17.5t-17.5 42.5q0 35 31 52.5t61 -1.5q-25 28 -73 28q-33 0 -61 -34.5t-69 -110.5q-25 -48 -82 -166.5t-73 -150.5q-154 -313 -248 -404q-67 -67 -151 -67q-46 0 -73.5 25t-27.5 64q0 25 17.5 42.5
t42.5 17.5t42.5 -17.5t17.5 -42.5t-17.5 -42.5t-42.5 -17.5q-17 0 -31 9q25 -28 72 -28q34 0 62 34.5t68 110.5q11 21 155 316q156 314 248 405q69 67 151 67z" />
    <glyph glyph-name="gacute" unicode="&#x1f5;" horiz-adv-x="523" 
d="M553 585q25 0 42.5 -17.5t17.5 -42.5q0 -65 -61 -99q-36 -21 -69 -15q25 -30 25 -73q0 -97 -102 -183t-213 -86q-72 0 -106 42q-36 -3 -64 -26.5t-28 -56.5q0 -25 19.5 -42t52.5 -17t104 25.5t112 25.5q47 0 78 -31t31 -78q0 -61 -46.5 -107.5t-107.5 -46.5q-20 0 -40 5
t-34.5 11t-36 19t-31 20t-33 25t-30.5 23q-45 7 -70 42q-29 12 -52 12q-22 0 -40 -9q28 4 48.5 -13.5t20.5 -45.5q0 -25 -17.5 -42.5t-42.5 -17.5t-42.5 17.5t-17.5 42.5q0 32 25.5 55t65.5 23q22 0 44 -8q-12 23 -12 52q0 56 40.5 100.5t96.5 51.5q-17 28 -17 63
q0 97 102 183t213 86q54 0 87 -25q35 -19 82 7q27 17 44 44q-29 -23 -63.5 -7t-34.5 54q0 25 17.5 42.5t42.5 17.5zM268 -90q-41 0 -109.5 -25.5t-107.5 -25.5q4 -3 17 -13t17.5 -13.5t17 -12t18.5 -12.5t17.5 -11t19 -10t19 -8t20.5 -7t19.5 -3.5t21.5 -1.5q39 0 70.5 24
t31.5 59q0 26 -19.5 43t-52.5 17zM197 79q39 0 90 54t86.5 128.5t35.5 129.5q0 51 -36 51q-39 0 -89.5 -54t-86 -128t-35.5 -129q0 -52 35 -52zM599 757l-246 -115l-6 10l163 131l84 -16z" />
    <glyph glyph-name="zero_alt" unicode="&#x212;" horiz-adv-x="609" 
d="M455 580q72 0 113 -42.5t41 -113.5q0 -96 -67 -195.5t-169 -164t-199 -64.5q-72 0 -113 42.5t-41 113.5q0 96 67 195.5t169 164t199 64.5zM426 292q35 75 50 139.5t7.5 100.5t-34.5 36q-51 0 -119 -80t-127 -201q-35 -75 -50 -139t-7.5 -100t34.5 -36q51 0 119 79.5
t127 200.5z" />
    <glyph glyph-name="h_alt" unicode="&#x234;" 
d="M640 906q72 0 117 -39t45 -106q0 -68 -43.5 -136t-107.5 -120q-75 -60 -154 -88q7 -14 7 -32q0 -25 -31 -92l-111 -230q-17 -35 -5.5 -45.5t34.5 3.5q59 29 106 103l8 -5q-39 -64 -87 -94t-90 -30q-51 0 -66 36.5t10 86.5l99 205q31 65 33 70q-26 -2 -39 -2v10q21 0 42 3
q9 34 -13 34q-12 0 -40 -14t-58 -43q-30 -30 -52 -69l-114 -236q-28 -59 -16 -78q-14 -3 -28 -3q-31 0 -48.5 18t-17.5 48q0 27 15 57l234 485q41 85 90 147t98.5 94.5t94 47t88.5 14.5zM644 513q62 49 102 112q46 72 46 136q0 62 -42 99q-30 26 -76 26q-68 0 -153 -85
q-38 -38 -76 -97.5t-58 -98t-55 -111.5l-60 -125q70 83 150 83q48 0 69 -27q81 29 153 88z" />
    <glyph glyph-name="j_alt" unicode="&#x235;" horiz-adv-x="271" 
d="M281 671q25 0 42.5 -17.5t17.5 -42.5t-17.5 -42.5t-42.5 -17.5t-42.5 17.5t-17.5 42.5t17.5 42.5t42.5 17.5zM186 453q35 0 54.5 -18.5t19.5 -49.5q0 -34 -47 -136q-99 -217 -195 -347q-108 -145 -222 -145q-46 0 -73.5 25t-27.5 64q0 25 17.5 42.5t42.5 17.5t42.5 -17.5
t17.5 -42.5t-17.5 -42.5t-42.5 -17.5q-17 0 -32 10l3 -3q24 -26 70 -26q32 0 59.5 32.5t66.5 104.5q33 64 116.5 236t112.5 235q14 28 14 44q0 18 -14 18q-19 0 -58 -30l-6 8q50 38 99 38z" />
    <glyph glyph-name="o_alt" unicode="&#x236;" horiz-adv-x="509" 
d="M143 -5q-58 0 -90.5 33.5t-32.5 89.5q0 101 92.5 203t203.5 126q-25 -13 -48 -38q-38 -42 -50 -87q-45 -67 -75 -142.5t-30 -124.5q0 -50 34 -50q42 0 102.5 74t103.5 167.5t43 147.5q0 45 -30 48q-45 -5 -84 -47q-22 -25 -36 -54q18 14 38 14q25 0 42.5 -17.5
t17.5 -42.5t-17.5 -42.5t-42.5 -17.5t-42.5 17.5t-17.5 42.5q0 52 51 107q45 50 100 50q43 0 78.5 -32t35.5 -92q0 -73 -53 -151.5t-134.5 -130t-158.5 -51.5z" />
    <glyph glyph-name="s_alt" unicode="&#x237;" horiz-adv-x="430" 
d="M212 331q0 -58 40 -175t40 -170q1 -95 -72.5 -162t-165.5 -67q-72 0 -118 45t-46 112q0 65 41 120.5t88 55.5q25 0 42.5 -17.5t17.5 -42.5t-17.5 -42.5t-42.5 -17.5q-34 0 -51.5 28.5t-2.5 57.5q-28 -24 -46.5 -63t-18.5 -79q0 -64 43.5 -105.5t110.5 -41.5
q59 0 101.5 43.5t42.5 117.5q0 61 -41.5 182.5t-41.5 166.5t20 80.5t52 55t66 29.5t67 10q65 0 107.5 -30t42.5 -69q0 -25 -17.5 -42.5t-42.5 -17.5t-42.5 17.5t-17.5 42.5q0 30 24 48t52 9q-40 32 -106 32q-46 0 -77 -27t-31 -84z" />
    <glyph glyph-name="y_alt" unicode="&#x238;" horiz-adv-x="451" 
d="M608 619q33 0 56.5 -20t23.5 -51q0 -25 -17.5 -42.5t-42.5 -17.5t-42.5 17.5t-17.5 42.5q0 23 15 40t37 20q-76 10 -167 -126q-51 -77 -154.5 -290t-159.5 -296q-94 -139 -180 -139q-38 0 -62 22t-24 55q0 31 18 50t44 19q25 0 42.5 -17.5t17.5 -42.5q0 -40 -37 -55.5
t-65 12.5q20 -33 66 -33q95 0 213 201q14 99 4 201.5t-35.5 181t-50.5 78.5q-10 0 -45 -23l-6 8q53 38 101 38q36 0 63.5 -26.5t43 -69.5t22.5 -91t7 -97q113 235 169 320q88 130 163 131z" />
    <glyph glyph-name="r_alt" unicode="&#x241;" horiz-adv-x="284" 
d="M552 619q35 0 58.5 -20.5t23.5 -49.5q0 -25 -17.5 -42.5t-42.5 -17.5t-42.5 17.5t-17.5 42.5q0 22 14.5 39t36.5 20q-77 12 -188 -109q-77 -85 -132 -185l-115 -238q-28 -59 -16 -78q-14 -3 -28 -3q-31 0 -48.5 18t-17.5 48q0 27 15 57l123 256q14 28 14 44q0 19 -14 19
q-20 0 -58 -31l-7 8q47 38 100 38q40 0 59.5 -23.5t12.5 -61.5q55 84 105 138q46 53 90 81q49 33 92 33z" />
    <glyph glyph-name="E_alt" unicode="&#x265;" horiz-adv-x="584" 
d="M307 700q34 -32 80 -36.5t90.5 7t88.5 22.5t86.5 4.5t71.5 -40.5l-65 -132l-11 4q-25 25 -57.5 32t-62 -0.5t-63 -15.5t-60 -13t-53.5 7q18 -38 58 -104t56 -97l-11 -5q-9 20 -18 34q-10 9 -28 9q-55 0 -125 -84.5t-116 -195t-42 -182.5q2 -28 13 -49t33 -21
q109 2 232 81q59 40 90 79q-16 -8 -34 -8q-32 0 -55 22.5t-23 54.5t23 55t55 23t54.5 -23t22.5 -55q0 -33 -30 -72q-50 -65 -150.5 -117t-185.5 -52q-75 0 -118 44.5t-43 118.5q0 89 57.5 181.5t140.5 160.5q46 39 105 69.5t91 15.5q-35 58 -50 84.5t-35 82t-24 109.5l12 2
v0z" />
    <glyph glyph-name="circumflex" unicode="&#x2c6;" horiz-adv-x="387" 
d="M106 550l-6 10l188 131h42l57 -131l-10 -5l-90 81z" />
    <glyph glyph-name="caron" unicode="&#x2c7;" horiz-adv-x="387" 
d="M381 691l6 -10l-188 -131h-42l-57 131l10 5l90 -81z" />
    <glyph glyph-name="breve" unicode="&#x2d8;" horiz-adv-x="358" 
d="M191 609q42 0 86 23.5t70 58.5h11q-22 -53 -76.5 -92t-107.5 -39q-35 0 -54.5 19.5t-19.5 50.5t16 61h1h11q-13 -35 5 -58.5t58 -23.5z" />
    <glyph glyph-name="dotaccent" unicode="&#x2d9;" horiz-adv-x="185" 
d="M185 622q0 -17 -12.5 -29.5t-30.5 -12.5q-17 0 -29.5 12.5t-12.5 29.5q0 18 12.5 30.5t29.5 12.5q18 0 30.5 -12.5t12.5 -30.5z" />
    <glyph glyph-name="ring" unicode="&#x2da;" horiz-adv-x="241" 
d="M170 694q29 0 50 -20.5t21 -49.5t-21 -50t-50 -21t-49.5 21t-20.5 50t20.5 49.5t49.5 20.5zM170 573q21 0 36 15t15 36t-15 35.5t-36 14.5t-35.5 -14.5t-14.5 -35.5t14.5 -36t35.5 -15z" />
    <glyph glyph-name="ogonek" unicode="&#x2db;" horiz-adv-x="121" 
d="M115 -91l6 -5q-38 -40 -80 -40q-19 0 -30 11t-11 29q0 28 24 56.5t55 42.5l17 -1q-21 -12 -37.5 -36.5t-16.5 -48.5q0 -32 30 -32q21 0 43 24z" />
    <glyph glyph-name="tilde" unicode="&#x2dc;" horiz-adv-x="406" 
d="M396 240l10 -6q-36 -66 -93 -66q-35 0 -88 32.5t-72 32.5q-26 0 -43 -29l-10 6q38 66 93 66q35 0 88 -32t72 -32q26 0 43 28z" />
    <glyph glyph-name="hungarumlaut" unicode="&#x2dd;" horiz-adv-x="542" 
d="M352 665l-245 -115l-7 10l164 131l83 -16zM542 665l-246 -115l-6 10l163 131l84 -16z" />
    <glyph glyph-name="V_alt" unicode="&#x345;" horiz-adv-x="733" 
d="M749 910q61 0 88 -80q16 -48 16 -114q0 -102 -36 -218q-37 -117 -102 -216q-71 -108 -161 -178q-101 -78 -214 -105l-7 10q36 57 39 139.5t-14 152t-35.5 149.5t-18.5 119q0 89 69 118q-50 -3 -93 -19q-57 -22 -99 -57q-60 -50 -80 -111q22 24 56 24q32 0 55 -22.5
t23 -54.5t-23 -55t-55 -23t-54.5 23t-22.5 55q0 50 28 97q24 42 66 76q43 37 102 59q57 21 119 21h109v-12h-72q-16 -10 -17.5 -33t3.5 -40q5 -28 25 -99.5t34 -141t14 -126.5q0 -144 -80 -214q68 27 135 79q89 70 159 176q65 101 101 213q35 111 35 214q0 64 -15 109
q-3 -29 -25 -49.5t-52 -20.5q-32 0 -55 22.5t-23 54.5t23 55t55 23z" />
    <glyph glyph-name="q_alt" unicode="&#x346;" horiz-adv-x="528" 
d="M302 -217q62 31 106 104l9 -6q-39 -64 -87.5 -94t-90.5 -30q-50 0 -65 36.5t10 86.5l226 470q17 35 3.5 63.5t-48.5 28.5q-61 0 -139 -108q-47 -66 -80 -147t-33 -132q0 -46 30 -50q45 5 84 47q23 26 36 55q-29 -25 -64 -8.5t-35 54.5q0 25 17.5 42.5t42.5 17.5
t42.5 -17.5t17.5 -42.5q0 -54 -50 -108q-47 -50 -100 -50q-43 0 -78.5 32t-35.5 92q0 73 53 151.5t134 130t158 51.5q29 0 46.5 -18t17.5 -46l26 54h116l-298 -617q-17 -35 -5.5 -45.5t34.5 3.5z" />
    <glyph glyph-name="W_alt" unicode="&#x347;" horiz-adv-x="1022" 
d="M1038 910q60 0 88 -79q16 -48 16 -115q0 -107 -36 -218q-34 -112 -102 -216q-70 -108 -161 -178q-98 -78 -213 -105l-8 10q48 76 38 199q-47 -58 -106 -104q-100 -78 -214 -105v0l-7 10q36 57 39 139.5t-14 152t-35.5 149.5t-18.5 119q0 89 69 118q-50 -3 -93 -19
q-57 -22 -99 -57q-60 -50 -80 -111q22 24 56 24q32 0 55 -22.5t23 -54.5t-23 -55t-55 -23t-54.5 23t-22.5 55q0 50 28 97q24 42 66 76q43 37 102 59q57 21 119 21h109v-12h-72q-16 -10 -17.5 -33t3.5 -40q5 -28 25 -99.5t34 -141t14 -126.5q0 -144 -80 -214q68 27 135 79
q56 44 113 112q-7 62 -36.5 181.5t-29.5 162.5q0 89 71 119h-84v12h214v-12h-73q-25 -15 -13 -73q5 -28 25 -99.5t34 -141t14 -126.5q0 -144 -80 -214q68 27 135 79q92 73 158 176q67 101 101 213q35 111 35 214q0 64 -15 109q-3 -29 -25 -49.5t-52 -20.5q-32 0 -54.5 22.5
t-22.5 54.5t22.5 55t54.5 23z" />
    <glyph glyph-name="Y_alt" unicode="&#x348;" horiz-adv-x="629" 
d="M1067 917q38 0 66.5 -23t28.5 -61q0 -32 -23 -54.5t-55 -22.5t-54.5 22.5t-22.5 54.5q0 51 48 72q-123 -11 -293 -212q-104 -122 -247 -352l-159 -329h82v-12h-140h-82v12h74q-27 18 -27 53q0 31 34 103l85 176q5 31 -36 130.5t-41 134.5q0 70 58 79q-94 0 -181 -74
q-61 -52 -81 -115q22 25 56 25q32 0 55 -22.5t23 -54.5t-23 -55t-55 -23t-54.5 23t-22.5 55q0 97 94 177q92 76 190 76h139v-12h-73q-17 -10 -17 -37q0 -33 48 -149.5t40 -158.5q4 6 37.5 58.5t59.5 91.5t70 99.5t85 108.5q83 98 155 152q86 64 159 64z" />
    <glyph glyph-name="N_alt" unicode="&#x456;" horiz-adv-x="938" 
d="M967 -56q32 0 55 -23t23 -55q0 -48 -36 -78.5t-84 -30.5q-108 0 -185 167q-108 238 -95 635q-44 -172 -145 -321q-75 -110 -160 -172q-98 -71 -197 -71q-61 0 -98 34q-35 35 -35 90q0 46 24 97q43 89 138 153q82 54 162 62q-12 52 31 117q31 45 82 80q106 72 218 72h45
q28 0 42.5 -16.5t12.5 -42.5q-17 -233 9 -408l170 352q21 41 5.5 72t-64.5 31h-8v12h241v-12q-51 0 -94.5 -28.5t-68.5 -80.5l-178 -367q19 -113 54 -196q-32 -71 -23 -135.5t53 -93.5q31 -18 64 -18q44 0 77 28q-38 -20 -75 3t-37 66q0 32 22.5 55t54.5 23zM600 458
q41 107 51 199q2 22 2 31q-105 -5 -199 -70q-49 -33 -79 -77q-13 -18 -21 -40q23 23 56 23q32 0 54.5 -22.5t22.5 -54.5t-22.5 -55t-54.5 -23q-24 0 -44.5 14t-28.5 36q-84 -8 -168 -67.5t-124 -140.5q-23 -49 -23 -92q0 -50 31 -81q34 -31 90 -31q95 0 190 68
q83 62 157 169q66 98 110 214z" />
    <glyph glyph-name="S_alt" unicode="&#x457;" horiz-adv-x="649" 
d="M545 700q86 0 143 -42.5t57 -97.5q0 -32 -23 -55t-55 -23t-54.5 23t-22.5 55q0 43 37.5 65.5t75.5 2.5q-54 60 -158 60q-61 0 -104.5 -37t-43.5 -114q0 -80 54.5 -239.5t54.5 -231.5q0 -127 -98 -218t-219 -91q-96 0 -157.5 61t-61.5 151q0 56 25.5 111t64.5 89
q43 37 83 37q32 0 54.5 -23t22.5 -55t-22.5 -54.5t-54.5 -22.5q-45 0 -67.5 38t-0.5 77q-23 -18 -40 -42q-53 -72 -53 -155q0 -87 57 -142q60 -58 150 -58q82 0 144 59.5t62 158.5q0 67 -28.5 157t-56.5 176t-28 143q0 61 25.5 108.5t65.5 74.5t84.5 40.5t87.5 13.5z" />
    <glyph glyph-name="a_2" unicode="&#x1112;" horiz-adv-x="930" 
d="M-386 -343q-128 0 -201.5 48.5t-73.5 114.5q0 33 17 56.5t47 23.5q25 0 42.5 -17.5t17.5 -42.5q0 -46 -44.5 -58t-66.5 27q6 -53 63 -90q74 -50 199 -50q211 0 457 114q139 64 384 219q-53 15 -93 13q-62 -1 -122 -42h-11l182 377q16 35 3 63.5t-48 28.5q-63 0 -139 -108
q-47 -66 -80.5 -147.5t-33.5 -131.5q0 -45 30 -50q45 5 84 47q25 26 36 55q-29 -25 -63.5 -8.5t-34.5 54.5q0 25 17.5 42.5t42.5 17.5t42.5 -17.5t17.5 -42.5q0 -53 -51 -108q-47 -50 -100 -50q-42 0 -78 32t-36 92q0 73 53 151.5t134.5 130t158.5 51.5q29 0 46 -18t18 -46
l26 54h116l-201 -414q43 0 97 -17q96 62 144 90.5t109 55t102 26.5q38 0 62.5 -19.5t24.5 -55.5q0 -64 -55 -117q-61 -58 -147 -58q-40 0 -78.5 9.5t-91 30t-69.5 25.5q9 -6 10 -15.5t-13 -20.5q-10 -5 -73 -39t-80 -43t-77.5 -40t-86 -42t-82.5 -36t-90.5 -35.5
t-86.5 -27.5t-93.5 -23.5t-89 -12.5t-93.5 -6zM846 0q38 38 25 67t-59 29q-94 -1 -291 -104q4 -1 19.5 -7t20.5 -8t19 -7t21 -7t20 -5.5t22 -5t20.5 -4t22.5 -3t22 -0.5q81 0 138 55z" />
    <glyph glyph-name="d_1" unicode="&#x1113;" horiz-adv-x="930" 
d="M823 183q39 0 63 -20t24 -55q0 -63 -58.5 -119t-143.5 -56q-66 0 -184 45q10 -5 13.5 -17.5t-10.5 -27.5q-87 -66 -134 -99.5t-126.5 -82.5t-148 -71.5t-131.5 -22.5q-83 0 -138 49q-51 48 -51 108q0 37 16.5 62t48.5 25q25 0 42.5 -17.5t17.5 -42.5q0 -30 -22 -47
t-49.5 -12t-41.5 31q0 -56 49 -100t128 -44q39 0 81.5 11.5t74.5 24t79 43.5t69.5 47t72 59t61.5 54t61 56q14 14 22 20q-93 34 -147 32q-62 -2 -121 -43h-12l183 377q16 35 3 63.5t-48 28.5q-62 0 -140 -108q-47 -66 -80 -147t-33 -132q0 -45 30 -50q45 5 84 47
q23 26 36 55q-29 -25 -64 -8.5t-35 54.5q0 25 17.5 42.5t42.5 17.5t42.5 -17.5t17.5 -42.5q0 -54 -50 -108q-47 -50 -100 -50q-43 0 -78.5 32t-35.5 92q0 73 53 151.5t134.5 130t158.5 51.5q29 0 46 -18t17 -46l113 234q14 28 14 44q0 18 -14 18q-21 0 -59 -30l-6 8
q50 38 99 38q36 0 55 -18.5t19 -49.5q0 -27 -14 -55l-265 -548q55 -1 147 -35q82 77 143 122q95 67 162 67zM867 24q22 26 8 52t-58 26q-40 0 -97.5 -33.5t-142.5 -97.5q71 -26 131 -26q100 0 159 79z" />
    <glyph glyph-name="d_2" unicode="&#x1114;" horiz-adv-x="930" 
d="M-387 -343q-128 0 -201.5 48.5t-73.5 114.5q0 33 17 56.5t48 23.5q25 0 42.5 -17.5t17.5 -42.5q0 -46 -44.5 -58t-67.5 27q6 -53 63 -90q74 -50 199 -50q213 0 457 114q139 64 384 219q-52 16 -93 13q-61 -1 -121 -42h-12l182 377q16 35 3 63.5t-48 28.5q-63 0 -139 -108
q-47 -66 -80 -147t-33 -132q0 -46 30 -50q45 5 83 47q24 25 37 55q-29 -25 -64 -8.5t-35 54.5q0 25 17.5 42.5t42.5 17.5t42.5 -17.5t17.5 -42.5q0 -54 -50 -108q-48 -50 -101 -50q-42 0 -77.5 32t-35.5 92q0 73 53 151.5t134 130t158 51.5q29 0 46 -18t18 -46l113 234
q13 26 13 44t-14 18q-20 0 -58 -30l-6 8q50 38 99 38q35 0 54.5 -18.5t19.5 -49.5q0 -24 -14 -55l-265 -549q43 0 96 -17q98 62 145.5 90.5t108.5 55t101 26.5q42 0 64 -21q24 -19 24 -54q0 -63 -56 -117q-61 -58 -147 -58q-40 0 -78.5 9.5t-90 29.5t-70.5 26
q10 -6 11 -15.5t-14 -20.5q-12 -6 -73 -39t-80 -43t-77.5 -40t-85.5 -42t-83 -36.5t-90 -35t-86.5 -27t-93.5 -23.5t-89.5 -13t-93.5 -6zM846 0q37 38 24 67t-59 29q-93 -1 -290 -104q4 -1 19.5 -7t20.5 -8t19 -7t21 -7t20 -5.5t21.5 -5t20.5 -3.5t22.5 -3t21.5 -1
q82 0 139 55z" />
    <glyph glyph-name="h_1" unicode="&#x1115;" horiz-adv-x="904" 
d="M796 183q39 0 63.5 -20t24.5 -55q0 -63 -58.5 -119t-144.5 -56q-64 0 -184 45q11 -5 14.5 -17.5t-11.5 -27.5q-67 -51 -104.5 -78.5t-104 -71.5t-114 -67t-106.5 -41t-110 -18q-82 0 -139 49q-51 48 -51 108q0 37 16.5 62t49.5 25q25 0 42.5 -17.5t17.5 -42.5
q0 -30 -22.5 -47t-50 -12t-40.5 31q0 -56 49 -100t128 -44q65 0 133 26t134 73.5t116.5 91t111.5 100.5q17 16 25 24q-93 34 -146 32q-62 -1 -122 -43h-11l194 401q13 27 13 45q0 11 -6 16.5t-17 1.5q-44 -12 -82.5 -48.5t-59.5 -76.5l-114 -236q-28 -59 -16 -78
q-14 -3 -28 -3q-32 0 -49 18t-17 48q0 26 14 57l244 504q14 28 14 44q0 18 -15 18q-20 0 -58 -30l-6 8q50 38 99 38q36 0 55 -18.5t19 -49.5q0 -27 -14 -55l-100 -208q70 83 150 83q38 0 60 -18t22 -49q0 -25 -31 -92l-128 -264q56 -1 146 -35q86 79 144 122q94 67 161 67z
M840 24q22 26 8.5 52t-57.5 26q-40 0 -97.5 -33.5t-142.5 -97.5q71 -26 130 -26q101 0 159 79z" />
    <glyph glyph-name="h_2" unicode="&#x1116;" horiz-adv-x="904" 
d="M-413 -343q-117 0 -196 45.5t-79 117.5q0 33 17.5 56.5t47.5 23.5q25 0 42.5 -17.5t17.5 -42.5q0 -46 -44.5 -58t-67.5 27q6 -52 63 -90q74 -50 199 -50q210 0 457 114q139 64 384 219q-52 16 -93 13q-61 -1 -121 -42h-12l194 401q13 27 13 45q0 25 -22 18
q-44 -12 -82 -48t-61 -77l-113 -236q-16 -32 -19.5 -47t3.5 -31q-15 -3 -29 -3q-31 0 -48.5 18t-17.5 48q0 27 15 57l243 504q14 28 14 44q0 18 -14 18q-21 0 -59 -30l-6 8q50 38 100 38q35 0 54.5 -18.5t19.5 -49.5q0 -25 -15 -55l-100 -208q70 83 151 83q38 0 59.5 -18
t21.5 -49q0 -30 -31 -92l-127 -265q42 0 95 -17q98 62 145.5 90.5t108.5 55t101 26.5q39 0 63.5 -19.5t24.5 -55.5q0 -63 -56 -117q-61 -58 -147 -58q-40 0 -78.5 9.5t-90 29.5t-70.5 26q10 -6 11 -15.5t-14 -20.5q-12 -6 -73 -39t-80 -43t-77.5 -40t-85.5 -42t-83 -36.5
t-90 -35t-86.5 -27t-93.5 -23.5t-89.5 -13t-93.5 -6zM820 0q37 38 24 67t-59 29q-93 -1 -290 -104q4 -1 19.5 -7t20.5 -8t19 -7t21 -7t20 -5.5t21.5 -5t20.5 -3.5t22.5 -3t21.5 -1q82 0 139 55z" />
    <glyph glyph-name="i_1" unicode="&#x1117;" horiz-adv-x="667" 
d="M292 551q-25 0 -42.5 17.5t-17.5 42.5t17.5 42.5t42.5 17.5t42.5 -17.5t17.5 -42.5t-17.5 -42.5t-42.5 -17.5zM560 183q39 0 63 -20t24 -55q0 -63 -58 -119t-144 -56q-66 0 -184 45q10 -5 13.5 -17.5t-10.5 -27.5q-67 -51 -104.5 -78.5t-104 -71.5t-114 -67t-107 -41
t-110.5 -18q-83 0 -138 49q-51 48 -51 108q0 37 16.5 62t48.5 25q25 0 42.5 -17.5t17.5 -42.5q0 -30 -22 -47t-49.5 -12t-41.5 31q1 -56 50 -100t127 -44q29 0 59.5 6.5t55 13t58.5 25t53.5 28.5t55.5 37.5t50 37t52.5 43.5t46.5 41t48 44t42 39q-93 34 -147 32
q-62 -2 -121 -43h-11l193 401q14 28 14 44q0 19 -14 19q-20 0 -58 -31l-6 8q47 38 99 38q35 0 54.5 -18.5t19.5 -48.5q0 -25 -14 -56l-145 -300q56 -1 146 -35q91 83 144 122q94 67 161 67zM604 24q22 26 8 52t-57 26q-41 0 -98.5 -33.5t-142.5 -97.5q73 -26 131 -26
q100 0 159 79z" />
    <glyph glyph-name="i_2" unicode="&#x1118;" horiz-adv-x="667" 
d="M-649 -343q-128 0 -201.5 48.5t-73.5 114.5q0 33 17 56.5t47 23.5q25 0 42.5 -17.5t17.5 -42.5q0 -30 -21.5 -47t-48.5 -13t-41 29q6 -53 63 -90q74 -50 199 -50q210 0 457 114q139 64 384 219q-53 15 -93 13q-62 -1 -122 -42h-11l108 225l86 176q13 26 13 44
q0 19 -14 19q-18 0 -58 -31l-6 8q47 38 99 38q35 0 54.5 -18.5t19.5 -48.5q0 -28 -14 -56l-146 -301q43 0 97 -17q96 62 144 90.5t109 55t102 26.5q38 0 62.5 -19.5t24.5 -55.5q0 -64 -55 -117q-61 -58 -147 -58q-40 0 -78.5 9.5t-91 30t-69.5 25.5q9 -6 10 -15.5t-13 -20.5
q-10 -5 -73 -39t-80 -43t-77.5 -40t-86 -42t-82.5 -36t-90.5 -35.5t-86.5 -27.5t-93.5 -23.5t-89 -12.5t-93.5 -6zM583 0q38 38 25 67t-59 29q-94 -1 -291 -104q4 -1 19.5 -7t20.5 -8t19 -7t21 -7t20 -5.5t22 -5t20.5 -4t22.5 -3t22 -0.5q81 0 138 55zM292 551
q-25 0 -42.5 17.5t-17.5 42.5t17.5 42.5t42.5 17.5t42.5 -17.5t17.5 -42.5t-17.5 -42.5t-42.5 -17.5z" />
    <glyph glyph-name="l_1" unicode="&#x1119;" horiz-adv-x="668" 
d="M560 183q39 0 63.5 -20t24.5 -55q0 -63 -58.5 -119t-144.5 -56q-64 0 -184 45q11 -5 14.5 -17.5t-11.5 -27.5q-67 -51 -104.5 -78.5t-104 -71.5t-114 -67t-106.5 -41t-110 -18q-82 0 -139 49q-50 47 -50 108q0 37 16.5 62t48.5 25q25 0 42.5 -17.5t17.5 -42.5
q0 -30 -22 -47t-49.5 -12t-41.5 31q0 -56 49 -100t128 -44q65 0 133 26t134 73.5t116.5 91t111.5 100.5q17 16 25 24q-92 34 -146 32q-62 -1 -122 -43h-11l313 649q14 28 14 44q0 18 -14 18q-21 0 -58 -30l-6 8q50 38 99 38q35 0 54.5 -18.5t19.5 -49.5q0 -24 -14 -55
l-265 -548q56 -1 146 -35q86 79 144 122q94 67 161 67zM605 24q22 26 8 52t-58 26q-40 0 -97.5 -33.5t-142.5 -97.5q71 -26 130 -26q101 0 160 79z" />
    <glyph glyph-name="l_2" unicode="&#x1120;" horiz-adv-x="668" 
d="M-649 -343q-128 0 -201.5 48.5t-73.5 114.5q0 33 17 56.5t48 23.5q25 0 42.5 -17.5t17.5 -42.5q0 -46 -44.5 -58t-67.5 27q6 -53 63 -90q74 -50 199 -50q210 0 457 114q139 64 384 219q-53 15 -93 13q-61 -1 -121 -42v0h-12l313 649q14 28 14 44q0 18 -14 18
q-21 0 -58 -30l-6 8q50 38 99 38q35 0 54.5 -18.5t19.5 -49.5q0 -24 -14 -55l-265 -549q43 0 96 -17q98 62 145.5 90.5t108.5 55t101 26.5q39 0 63.5 -19.5t24.5 -55.5q0 -63 -56 -117q-61 -58 -147 -58q-40 0 -78.5 9.5t-90 29.5t-70.5 26q10 -6 11 -15.5t-14 -20.5
q-12 -6 -73 -39t-80 -43t-77.5 -40t-85.5 -42t-83 -36.5t-90 -35t-86.5 -27t-93.5 -23.5t-89.5 -13t-93.5 -6zM584 0q37 38 24 67t-59 29q-93 -1 -290 -104q3 -1 17.5 -6.5t18 -7t17 -6.5t19 -6.5t17.5 -5t19 -5t18.5 -4t20 -3.5t19 -2t20.5 -1q82 0 139 55z" />
    <glyph glyph-name="m_1" unicode="&#x1121;" horiz-adv-x="1141" 
d="M1034 183q39 0 63 -20t24 -55q0 -63 -58.5 -119t-143.5 -56q-66 0 -184 45q10 -5 13.5 -17.5t-10.5 -27.5q-87 -66 -134 -99.5t-126.5 -82.5t-148 -71.5t-131.5 -22.5q-83 0 -138 49q-51 46 -51 108q0 37 16.5 62t48.5 25q25 0 42.5 -17.5t17.5 -42.5q0 -30 -22 -47
t-49.5 -12t-41.5 31q0 -56 49 -100t128 -44q52 0 109 19.5t102 44.5t103 70t91.5 75t87.5 80q19 18 28 26q-93 34 -147 32q-62 -2 -121 -43h-12l38 78l96 199l60 124q13 27 13 45q0 25 -22 18q-80 -21 -138 -117l-13 -27l-105 -217q-28 -59 -16 -78q-14 -3 -28 -3
q-32 0 -49 18t-17 48q0 26 14 57l13 26l111 230q13 27 13 45q0 25 -22 18q-44 -12 -82.5 -48.5t-60.5 -76.5l-113 -236q-16 -32 -19.5 -47t3.5 -31q-15 -3 -29 -3q-31 0 -48.5 18t-17.5 48q0 27 15 57l123 256q14 28 14 44q0 19 -14 19q-20 0 -58 -31l-6 8q47 38 99 38
q43 0 62 -26t9 -67q72 93 159 93q45 0 67 -25t11 -68q74 93 159 93q38 0 59.5 -18t21.5 -49q0 -30 -31 -92l-127 -264q54 -1 146 -35q82 77 143 122q95 67 162 67zM1078 24q22 26 8 52t-58 26q-40 0 -97.5 -33.5t-142.5 -97.5q71 -26 131 -26q81 0 138 55q9 8 21 24z" />
    <glyph glyph-name="m_2" unicode="&#x1122;" horiz-adv-x="1141" 
d="M-176 -343q-128 0 -201 48.5t-73 114.5q0 33 17 56.5t47 23.5q25 0 42.5 -17.5t17.5 -42.5q0 -46 -44.5 -58t-67.5 27q6 -53 64 -90q72 -50 198 -50q210 0 457 114q147 67 384 219q-52 16 -93 13q-61 -1 -121 -42h-11l193 401q13 27 13 45q0 25 -22 18q-41 -11 -78 -44.5
t-60 -72.5q-2 -5 -6.5 -14l-6.5 -13l-105 -217q-28 -59 -16 -78q-14 -3 -28 -3q-31 0 -48.5 18t-17.5 48q0 27 15 57l12 26l111 230q13 27 13 45q0 25 -22 18q-44 -12 -82.5 -48.5t-60.5 -76.5l-113 -236q-16 -32 -19.5 -47t3.5 -31q-15 -3 -29 -3q-31 0 -48.5 18t-17.5 48
q0 27 15 57l123 256q14 28 14 44q0 19 -14 19q-20 0 -58 -31l-6 8q47 38 99 38q43 0 62 -26t9 -67q74 93 159 93q45 0 67 -25t11 -68q74 93 159 93q38 0 60 -18t22 -49q0 -28 -32 -92l-128 -265q43 0 97 -17q96 62 144 90.5t109 55t102 26.5q38 0 62.5 -19.5t24.5 -55.5
q0 -63 -56 -117q-61 -58 -146 -58q-41 0 -79.5 9.5t-90.5 29.5t-69 26q9 -6 10 -15.5t-14 -20.5q-5 -3 -72 -39t-80.5 -43t-77 -39.5t-86.5 -42.5t-82 -36t-91 -35.5t-86 -27t-94 -24t-89 -12.5t-94 -6zM1057 0q37 38 24 67t-59 29q-93 -1 -290 -104q4 -1 19.5 -7t20.5 -8
t19 -7t21 -7t20 -5.5t22 -5t20.5 -4t22.5 -3t22 -0.5q81 0 138 55z" />
    <glyph glyph-name="n_1" unicode="&#x1123;" horiz-adv-x="904" 
d="M797 183q39 0 63 -20t24 -55q0 -63 -58 -119t-144 -56q-66 0 -184 45q10 -5 13.5 -17.5t-10.5 -27.5q-87 -66 -134 -99.5t-126.5 -82.5t-148 -71.5t-131.5 -22.5q-83 0 -138 49q-51 48 -51 108q0 37 16.5 62t48.5 25q25 0 42.5 -17.5t17.5 -42.5q0 -30 -22 -47t-49.5 -12
t-41.5 31q1 -56 50 -100t127 -44q52 0 109 19.5t102 44.5t103 70t91.5 75t87.5 80q6 6 9.5 9t9 8t9.5 9q-93 34 -147 32q-62 -2 -121 -43h-11l37 78l96 199l60 124q13 27 13 45q0 25 -22 18q-44 -12 -82 -48t-61 -77h1l-114 -236q-16 -32 -19.5 -47t3.5 -31q-15 -3 -29 -3
q-31 0 -48.5 18t-17.5 48q0 27 15 57l124 256q13 26 13 44q0 19 -14 19q-18 0 -58 -31l-6 8q47 38 99 38q43 0 62 -26t9 -67q74 93 159 93q38 0 60 -18t22 -49q0 -28 -32 -92l-127 -264q54 -1 146 -35q90 83 143 122q95 67 162 67zM841 24q22 26 8 52t-58 26
q-40 0 -97.5 -33.5t-142.5 -97.5q71 -26 131 -26q100 0 159 79z" />
    <glyph glyph-name="n_2" unicode="&#x1124;" horiz-adv-x="903" 
d="M681 -67q-40 0 -78.5 9.5t-91 30t-69.5 25.5q9 -6 10 -15.5t-13 -20.5q-10 -5 -73 -39t-80 -43t-77.5 -40t-86 -42t-82.5 -36t-90.5 -35.5t-86.5 -27.5t-93.5 -23.5t-89 -12.5t-93.5 -6v0q-128 0 -201.5 48.5t-73.5 114.5q0 33 17 56.5t47 23.5q25 0 42.5 -17.5
t17.5 -42.5q0 -46 -44.5 -58t-67.5 27q6 -53 64 -90q72 -50 199 -50q210 0 457 114q143 66 383 219q-52 16 -92 13q-62 -1 -122 -42h-11l193 401q13 25 13 45q0 25 -22 18q-44 -12 -82 -48.5t-60 -76.5l-114 -236q-29 -58 -16 -78q-15 -3 -28 -3q-32 0 -49 18t-17 48
q0 29 14 57l124 256q14 28 14 44q0 19 -14 19q-19 0 -59 -31l-6 8q47 38 99 38q43 0 62 -26t9 -67q74 93 159 93q38 0 60 -18t22 -49q0 -25 -31 -92l-129 -265q43 0 97 -17q96 62 144 90.5t109 55t102 26.5q38 0 62.5 -19.5t24.5 -55.5q0 -62 -55 -117q-63 -58 -147 -58z
M819 0q37 38 24.5 67t-58.5 29q-94 -1 -291 -104q4 -1 19.5 -7t20.5 -8t19 -7t21 -7t20 -5.5t22 -5t20.5 -4t22.5 -3t22 -0.5q81 0 138 55z" />
    <glyph glyph-name="r_1" unicode="&#x1125;" horiz-adv-x="666" 
d="M559 182q39 0 63 -19.5t24 -54.5q0 -63 -58 -119.5t-144 -56.5q-10 0 -21 1t-19 1.5t-20 3.5t-18.5 4t-19.5 5t-17 5.5t-18.5 6.5t-16.5 6t-17.5 7t-16.5 6q10 -6 13.5 -18.5t-10.5 -27.5q-86 -65 -133.5 -99t-127 -82.5t-148 -71t-131.5 -22.5q-84 0 -138 49
q-51 46 -51 107q0 37 16.5 62t48.5 25q25 0 42.5 -17t17.5 -43q0 -30 -22 -47t-49.5 -12t-41.5 32q1 -56 50 -100.5t127 -43.5q85 0 186 53.5t157 100.5t154 139q16 15 24 22q-90 33 -147 32q-61 -1 -121 -44h-11l193 402q14 28 14 44q0 18 -14 18q-21 0 -58 -30l-6 8
q50 38 99 38q41 0 60.5 -24.5t11.5 -62.5q15 21 33 43q46 51 92 51q30 0 51.5 -19.5t21.5 -47.5q0 -25 -17.5 -42.5t-42.5 -17.5q-32 0 -49 24.5t-9 53t38 39.5q-66 -8 -137 -135l-138 -286q56 -1 146 -35q96 88 144 122q92 67 161 67zM603 23q22 25 8 52t-57 27
q-41 -1 -98 -34t-143 -97q76 -27 131 -27q100 0 159 79z" />
    <glyph glyph-name="r_2" unicode="&#x1126;" horiz-adv-x="666" 
d="M-651 -343q-128 0 -201.5 48.5t-73.5 114.5q0 32 17 55.5t48 23.5q25 0 42.5 -17.5t17.5 -42.5q0 -29 -21.5 -46.5t-48.5 -13t-42 29.5q6 -51 63 -91q76 -49 199 -49q212 0 457 113q139 65 384 220q-48 14 -93 13q-62 -3 -121 -43h-12l194 402q14 28 14 44q0 18 -14 18
q-21 0 -59 -30l-6 8q50 38 100 38q40 0 59.5 -24.5t12.5 -62.5q15 21 33 43q46 51 92 51q29 0 50.5 -19.5t21.5 -47.5q0 -25 -17.5 -42.5t-42.5 -17.5q-32 0 -49 24.5t-9 53t38 39.5q-66 -8 -137 -135l-138 -287q43 0 96 -17q94 60 144.5 90t110.5 56t100 26
q39 0 63.5 -19.5t24.5 -54.5q0 -63 -56 -117q-61 -59 -147 -59q-40 0 -78 9.5t-91.5 30.5t-69.5 26q10 -6 11 -16t-14 -20q-12 -6 -73 -39t-80 -43t-77.5 -40t-85.5 -42t-83 -36.5t-90 -35t-86.5 -27t-93.5 -23.5t-89.5 -13t-93.5 -6zM582 0q37 38 24 66.5t-59 28.5
q-91 0 -290 -104q4 -1 19.5 -7t20.5 -8t19 -7t21 -7t20 -5.5t21.5 -5t20.5 -3.5t22.5 -3t21.5 -1q81 0 139 56z" />
    <glyph glyph-name="t_1" unicode="&#x1127;" horiz-adv-x="668" 
d="M560 183q39 0 63.5 -20t24.5 -55q0 -63 -58.5 -119t-144.5 -56q-64 0 -184 45q11 -5 15 -17.5t-11 -27.5q-57 -43 -87 -65.5t-85.5 -61t-95 -60t-89 -45t-95 -34t-88.5 -10.5q-83 0 -138 49q-51 46 -51 108q0 37 16.5 62t48.5 25q25 0 42.5 -17.5t17.5 -42.5
q0 -30 -22 -47t-49.5 -12t-41.5 31q0 -56 49 -100t128 -44q65 0 133 26t134 73.5t116.5 91t111.5 100.5q17 16 25 24q-92 34 -146 32q-62 -1 -121 -43h-12l192 397q15 32 5 52t-35 20h-13v10q75 0 134.5 32.5t83.5 69.5h10l-49 -102h77v-10h-159q36 0 51.5 -27t-4.5 -77
l-150 -309q56 -1 146 -35q86 79 144 122q94 67 161 67zM605 24q22 26 8 52t-58 26q-40 0 -97.5 -33.5t-142.5 -97.5q71 -26 130 -26q101 0 160 79z" />
    <glyph glyph-name="t_2" unicode="&#x1128;" horiz-adv-x="668" 
d="M-649 -343q-117 0 -196 45.5t-79 117.5q0 33 17 56.5t48 23.5q25 0 42.5 -17.5t17.5 -42.5q0 -46 -44.5 -58t-67.5 27q6 -53 63 -90q74 -50 199 -50q213 0 457 114q139 64 384 219q-52 16 -93 13q-61 -1 -121 -42h-12l192 397q15 32 5 52t-35 20h-13v10q75 0 134.5 32.5
t83.5 69.5h10l-49 -102h77v-10h-159q36 0 51.5 -27t-4.5 -77l-150 -310q43 0 96 -17q98 62 145.5 90.5t108.5 55t101 26.5q39 0 63.5 -19.5t24.5 -55.5q0 -63 -56 -117q-61 -58 -147 -58q-18 0 -37.5 2.5t-32.5 5t-36 10t-30 10t-34 12.5t-30 11q-26 10 -39 14
q10 -6 11 -15.5t-14 -20.5q-9 -5 -81.5 -44t-91 -48t-86 -43.5t-97.5 -46t-92 -38t-102 -36.5t-95.5 -24.5t-106 -19.5t-100.5 -5zM584 0q37 38 24 67t-59 29q-93 -1 -290 -104q4 -1 19.5 -7t20.5 -8t19 -7t21 -7t20 -5.5t21.5 -5t20.5 -3.5t22.5 -3t21.5 -1q82 0 139 55z
" />
    <glyph glyph-name="u_1" unicode="&#x1129;" horiz-adv-x="903" 
d="M201 -27l51 105q-70 -83 -151 -83q-38 0 -59.5 18t-21.5 50q0 29 31 91l106 220q14 28 14 44q0 19 -14 19q-20 0 -58 -31l-7 8q48 38 100 38q35 0 54.5 -18.5t19.5 -48.5q0 -26 -15 -56l-123 -256q-13 -26 -13 -44q0 -25 22 -19q44 12 82 48.5t61 76.5l114 236
q15 33 18.5 47t-3.5 31q15 3 29 3q31 0 48.5 -18t17.5 -48q0 -26 -15 -57l-145 -300q56 -1 146 -35q86 79 144 122q94 67 161 67q39 0 63.5 -20t24.5 -55q0 -63 -58.5 -119t-144.5 -56q-64 0 -184 45q11 -5 14.5 -17.5t-11.5 -27.5q-67 -51 -104.5 -78.5t-104 -71.5
t-114 -67t-106.5 -41t-110 -18q-83 0 -138 49q-51 46 -51 108q0 37 16.5 62t48.5 25q25 0 42.5 -17.5t17.5 -42.5q0 -30 -22 -47t-49.5 -12t-41.5 31q0 -56 49 -100t128 -44q65 0 133 26t134 73.5t116.5 91t111.5 100.5q17 16 25 24q-92 34 -146 32q-62 -1 -121 -43h-12z
M840 24q22 26 8 52t-58 26q-40 0 -97.5 -33.5t-142.5 -97.5q71 -26 130 -26q101 0 160 79z" />
    <glyph glyph-name="u_2" unicode="&#x1130;" horiz-adv-x="903" 
d="M-414 -343q-117 0 -196 45.5t-79 117.5q0 33 17 56.5t48 23.5q25 0 42.5 -17.5t17.5 -42.5q0 -46 -44.5 -58t-67.5 27q6 -53 63 -90q74 -50 199 -50q211 0 457 114q139 64 384 219q-53 15 -93 13q-61 -1 -121 -42v0h-12l51 105q-70 -83 -151 -83q-38 0 -59.5 18t-21.5 50
q0 29 31 91l106 220q14 28 14 44q0 19 -14 19q-20 0 -58 -31l-7 8q48 38 100 38q35 0 54.5 -18.5t19.5 -48.5q0 -26 -15 -56l-123 -256q-13 -26 -13 -44q0 -25 22 -19q44 12 83 49t60 77l113 235q16 33 19.5 47.5t-3.5 30.5q15 3 29 3q31 0 48.5 -18t17.5 -48q0 -26 -15 -57
l-145 -301q43 0 96 -17q98 62 145.5 90.5t108.5 55t101 26.5q39 0 63.5 -19.5t24.5 -55.5q0 -63 -56 -117q-61 -58 -147 -58q-40 0 -78.5 9.5t-90 29.5t-70.5 26q10 -6 11 -15.5t-14 -20.5q-9 -5 -81.5 -44t-91 -48t-86 -43.5t-97.5 -46t-92 -38t-102 -36.5t-95.5 -24.5
t-106 -19.5t-100.5 -5zM819 0q37 38 24 67t-59 29q-93 -1 -290 -104q4 -1 11 -4q116 -41 175 -43q82 0 139 55z" />
    <glyph glyph-name="g_alt" unicode="&#x1234;" horiz-adv-x="523" 
d="M553 585q25 0 42.5 -17.5t17.5 -42.5q0 -65 -61 -99q-36 -21 -69 -15q25 -30 25 -73q0 -97 -102 -183t-213 -86q-72 0 -106 42q-36 -3 -64 -26.5t-28 -56.5q0 -25 19.5 -42t52.5 -17t104 25.5t112 25.5q47 0 78 -31t31 -78q0 -61 -46.5 -107.5t-107.5 -46.5q-47 0 -85 30
t-53 78q-22 -6 -48 -6q-47 0 -78 31t-31 78q0 56 40.5 100.5t96.5 51.5q-17 28 -17 63q0 97 102 183t213 86q54 0 88 -25q34 -19 81 7q30 18 44 44q-29 -23 -63.5 -7t-34.5 54q0 25 17.5 42.5t42.5 17.5zM340 -150q0 26 -19.5 43t-52.5 17q-27 0 -53.5 -7t-58 -19t-47.5 -17
q14 -44 49.5 -72t79.5 -28q39 0 70.5 24t31.5 59zM198 79q39 0 89.5 54t86 128.5t35.5 129.5q0 51 -36 51q-39 0 -89.5 -54t-86 -128t-35.5 -129q0 -52 36 -52z" />
    <glyph glyph-name="endash" unicode="&#x2013;" horiz-adv-x="410" 
d="M390 227v-6h-370v6h370z" />
    <glyph glyph-name="emdash" unicode="&#x2014;" horiz-adv-x="410" 
d="M390 227v-6h-370v6h370z" />
    <glyph glyph-name="quoteleft" unicode="&#x2018;" horiz-adv-x="218" 
d="M130 458q-25 0 -42.5 17.5t-17.5 42.5q0 55 64 119q33 33 78 63l6 -8q-45 -30 -77 -62q-34 -34 -49 -66q29 24 63.5 8t34.5 -54q0 -25 -17.5 -42.5t-42.5 -17.5z" />
    <glyph glyph-name="quoteright" unicode="&#x2019;" horiz-adv-x="218" 
d="M158 700q25 0 42.5 -17.5t17.5 -42.5q0 -55 -64 -119q-33 -33 -78 -63l-6 8q45 30 77 62q34 34 49 66q-29 -24 -63.5 -8t-34.5 54q0 25 17.5 42.5t42.5 17.5z" />
    <glyph glyph-name="quotesinglbase" unicode="&#x201a;" horiz-adv-x="220" 
d="M90 115q25 0 42.5 -17.5t17.5 -42.5q0 -55 -65 -120q-31 -32 -77 -63l-6 8q45 31 76 62q33 31 50 66q-29 -24 -63.5 -7.5t-34.5 54.5q0 25 17.5 42.5t42.5 17.5z" />
    <glyph glyph-name="quotedblleft" unicode="&#x201c;" horiz-adv-x="384" 
d="M297 458q-25 0 -42.5 17.5t-17.5 42.5q-1 54 64 119q29 30 78 63l5 -8q-49 -34 -76 -62q-34 -34 -49 -66q29 24 63.5 8t34.5 -54q0 -25 -17.5 -42.5t-42.5 -17.5zM131 458q-25 0 -42.5 17.5t-17.5 42.5q-1 54 64 119q29 30 78 63l5 -8q-49 -34 -76 -62q-34 -34 -49 -66
q29 24 63.5 8t34.5 -54q0 -25 -17.5 -42.5t-42.5 -17.5z" />
    <glyph glyph-name="quotedblright" unicode="&#x201d;" horiz-adv-x="384" 
d="M157 700q25 0 42.5 -17.5t17.5 -42.5q1 -54 -64 -119q-29 -30 -78 -63l-5 8q49 34 76 62q34 34 49 66q-29 -24 -63.5 -8t-34.5 54q0 25 17.5 42.5t42.5 17.5zM323 700q25 0 42.5 -17.5t17.5 -42.5q1 -54 -64 -119q-29 -30 -78 -63l-5 8q49 34 76 62q34 34 49 66
q-29 -24 -63.5 -8t-34.5 54q0 25 17.5 42.5t42.5 17.5z" />
    </font>
</defs>
</svg>
